SplineFontDB: 3.2
FontName: am_type1
FullName: am_type1
FamilyName: am_type1
Weight: Book
Copyright: Copyright (c) 2016, AM.
Version: 1.0 (2016)
ItalicAngle: 0
UnderlinePosition: -100
UnderlineWidth: 50
Ascent: 800
Descent: 200
InvalidEm: 0
sfntRevision: 0x00010000
LayerCount: 2
Layer: 0 1 "Back" 1
Layer: 1 1 "Fore" 0
XUID: [1021 815 -601308763 7776844]
StyleMap: 0x0040
FSType: 0
OS2Version: 2
OS2_WeightWidthSlopeOnly: 0
OS2_UseTypoMetrics: 0
CreationTime: 1460284394
ModificationTime: 1609656605
PfmFamily: 81
TTFWeight: 400
TTFWidth: 5
LineGap: 9
VLineGap: 0
Panose: 0 0 0 0 0 0 0 0 0 0
OS2TypoAscent: 750
OS2TypoAOffset: 0
OS2TypoDescent: -170
OS2TypoDOffset: 0
OS2TypoLinegap: 30
OS2WinAscent: 950
OS2WinAOffset: 0
OS2WinDescent: 206
OS2WinDOffset: 0
HheadAscent: 950
HheadAOffset: 0
HheadDescent: -206
HheadDOffset: 0
OS2SubXSize: 700
OS2SubYSize: 650
OS2SubXOff: 0
OS2SubYOff: 140
OS2SupXSize: 700
OS2SupYSize: 650
OS2SupXOff: 0
OS2SupYOff: 477
OS2StrikeYSize: 50
OS2StrikeYPos: 250
OS2CapHeight: 723
OS2XHeight: 510
OS2Vendor: 'PYRS'
OS2CodePages: 00000001.00000000
OS2UnicodeRanges: 8000002f.0000000a.00000000.00000000
Lookup: 258 0 0 "'kern' Horizontal Kerning lookup 0" { "'kern' Horizontal Kerning lookup 0 subtable"  } ['kern' ('DFLT' <'dflt' > ) ]
DEI: 91125
ShortTable: maxp 16
  1
  0
  221
  141
  6
  0
  0
  1
  0
  0
  0
  0
  0
  0
  0
  0
EndShort
LangName: 1033 "" "" "Regular" "am_type1:2016" "" "Version 1.0 (2016)" "" "Trademark: FREE FOR PERSONAL USE. CONFIDENTIAL."
GaspTable: 1 65535 2 0
Encoding: UnicodeBmp
UnicodeInterp: none
NameList: AGL For New Fonts
DisplaySize: -48
AntiAlias: 1
FitToEm: 0
WinInfo: 0 27 14
BeginChars: 65539 218

StartChar: .notdef
Encoding: 65536 -1 0
Width: 610
Flags: W
LayerCount: 2
Fore
SplineSet
36 -108 m 1,0,-1
 36 768 l 1,1,-1
 574 768 l 1,2,-1
 574 -108 l 1,3,-1
 36 -108 l 1,0,-1
75 -69 m 1,4,-1
 535 -69 l 1,5,-1
 535 729 l 1,6,-1
 75 729 l 1,7,-1
 75 -69 l 1,4,-1
EndSplineSet
EndChar

StartChar: exclam
Encoding: 33 33 2
Width: 610
GlyphClass: 2
Flags: W
LayerCount: 2
Fore
SplineSet
228 656 m 0,0,1
 230 676 230 676 247 695.5 c 128,-1,2
 264 715 264 715 293 715 c 0,3,4
 327 713 327 713 340.5 693.5 c 128,-1,5
 354 674 354 674 354 656 c 0,6,7
 349 614 349 614 334.5 494.5 c 128,-1,8
 320 375 320 375 320 255 c 1,9,-1
 264 255 l 1,10,11
 261 375 261 375 244.5 498 c 128,-1,12
 228 621 228 621 228 656 c 0,0,1
292 -2 m 0,13,14
 266 -2 266 -2 245 16.5 c 128,-1,15
 224 35 224 35 224 68 c 0,16,17
 224 95 224 95 243 114.5 c 128,-1,18
 262 134 262 134 292 134 c 0,19,20
 321 134 321 134 341.5 115.5 c 128,-1,21
 362 97 362 97 362 68 c 0,22,23
 362 40 362 40 343 19 c 128,-1,24
 324 -2 324 -2 292 -2 c 0,13,14
EndSplineSet
EndChar

StartChar: quotedbl
Encoding: 34 34 3
Width: 610
GlyphClass: 2
Flags: W
LayerCount: 2
Fore
SplineSet
351 673 m 0,0,1
 353 693 353 693 370 712.5 c 128,-1,2
 387 732 387 732 416 732 c 0,3,4
 450 730 450 730 463.5 710.5 c 128,-1,5
 477 691 477 691 477 673 c 0,6,7
 472 631 472 631 457.5 567 c 128,-1,8
 443 503 443 503 443 383 c 1,9,-1
 387 383 l 1,10,11
 384 503 384 503 367.5 570.5 c 128,-1,12
 351 638 351 638 351 673 c 0,0,1
132 673 m 0,13,14
 134 693 134 693 151 712.5 c 128,-1,15
 168 732 168 732 197 732 c 0,16,17
 231 730 231 730 244.5 710.5 c 128,-1,18
 258 691 258 691 258 673 c 0,19,20
 253 631 253 631 238.5 567 c 128,-1,21
 224 503 224 503 224 383 c 1,22,-1
 168 383 l 1,23,24
 165 503 165 503 148.5 570.5 c 128,-1,25
 132 638 132 638 132 673 c 0,13,14
EndSplineSet
EndChar

StartChar: numbersign
Encoding: 35 35 4
Width: 610
GlyphClass: 2
Flags: W
LayerCount: 2
Fore
SplineSet
153 215 m 1,0,-1
 31 215 l 1,1,-1
 53 279 l 1,2,-1
 175 279 l 1,3,-1
 227 447 l 1,4,-1
 94 447 l 1,5,-1
 114 515 l 1,6,-1
 247 515 l 1,7,-1
 327 774 l 1,8,-1
 380 774 l 1,9,-1
 301 515 l 1,10,-1
 395 515 l 1,11,-1
 475 774 l 1,12,-1
 529 774 l 1,13,-1
 449 515 l 1,14,-1
 573 515 l 1,15,-1
 554 447 l 1,16,-1
 430 447 l 1,17,-1
 378 279 l 1,18,-1
 510 279 l 1,19,-1
 489 215 l 1,20,-1
 356 215 l 1,21,-1
 268 -79 l 1,22,-1
 215 -79 l 1,23,-1
 303 215 l 1,24,-1
 207 215 l 1,25,-1
 120 -79 l 1,26,-1
 66 -79 l 1,27,-1
 153 215 l 1,0,-1
324 279 m 1,28,-1
 376 447 l 1,29,-1
 281 447 l 1,30,-1
 229 279 l 1,31,-1
 324 279 l 1,28,-1
EndSplineSet
EndChar

StartChar: dollar
Encoding: 36 36 5
Width: 610
GlyphClass: 2
Flags: W
LayerCount: 2
Fore
SplineSet
328 -2 m 1,0,1
 325 -97 325 -97 337 -168 c 1,2,-1
 337 -171 l 1,3,-1
 276 -162 l 1,4,-1
 276 -3 l 1,5,-1
 232 -4 l 1,6,7
 150 18 150 18 122 68 c 1,8,9
 120 -4 120 -4 84 -2 c 1,10,11
 46 -6 46 -6 53 52 c 1,12,13
 72 118 72 118 65 190 c 1,14,15
 65 241 65 241 84 245 c 1,16,-1
 102 245 l 2,17,18
 121 245 121 245 145 126 c 1,19,20
 182 63 182 63 279 56 c 1,21,-1
 278 338 l 1,22,-1
 331 330 l 1,23,24
 331 63 331 63 331 57 c 1,25,26
 485 67 485 67 486 187 c 0,27,28
 485 312 485 312 323 342 c 1,29,-1
 291 347 l 1,30,31
 228 352 228 352 180 379 c 0,32,33
 148 396 148 396 108 442 c 1,34,35
 86 482 86 482 84 530 c 1,36,-1
 86 556 l 1,37,38
 106 650 106 650 187 695 c 0,39,40
 209 711 209 711 279 726 c 1,41,42
 286 788 286 788 279 863 c 1,43,-1
 337 860 l 1,44,-1
 337 732 l 1,45,-1
 337 719 l 1,46,47
 402 718 402 718 452 658 c 1,48,-1
 462 708 l 1,49,-1
 486 714 l 2,50,51
 518 718 518 718 520 679 c 2,52,-1
 520 672 l 2,53,54
 520 655 520 655 508 610 c 1,55,56
 514 561 514 561 514 530 c 0,57,58
 514 502 514 502 490 498 c 0,59,60
 462 490 462 490 453 550 c 0,61,62
 441 648 441 648 321 674 c 1,63,64
 202 694 202 694 151 567 c 1,65,-1
 149 529 l 1,66,67
 168 426 168 426 283 409 c 1,68,69
 434 376 434 376 461 349 c 1,70,71
 487 337 487 337 520.5 296.5 c 128,-1,72
 554 256 554 256 554 184 c 0,73,74
 554 122 554 122 520 84 c 0,75,76
 464 18 464 18 376 0 c 1,77,78
 346 -2 346 -2 328 -2 c 1,0,1
278 665 m 1,79,-1
 333 662 l 1,80,-1
 333 408 l 1,81,-1
 278 419 l 1,82,-1
 278 665 l 1,79,-1
EndSplineSet
EndChar

StartChar: percent
Encoding: 37 37 6
Width: 610
GlyphClass: 2
Flags: W
LayerCount: 2
Fore
SplineSet
429 5 m 0,0,1
 374 5 374 5 345 57.5 c 128,-1,2
 316 110 316 110 330 181 c 0,3,4
 342 252 342 252 391.5 302 c 128,-1,5
 441 352 441 352 496 352 c 0,6,7
 550 351 550 351 580 300.5 c 128,-1,8
 610 250 610 250 597 175 c 0,9,10
 583 107 583 107 532.5 55.5 c 128,-1,11
 482 4 482 4 429 5 c 0,0,1
443 69 m 0,12,13
 478 69 478 69 501.5 99.5 c 128,-1,14
 525 130 525 130 535 175 c 0,15,16
 543 221 543 221 531 254 c 128,-1,17
 519 287 519 287 488 289 c 0,18,19
 455 289 455 289 426 256.5 c 128,-1,20
 397 224 397 224 387 178 c 0,21,22
 378 136 378 136 394 103.5 c 128,-1,23
 410 71 410 71 443 69 c 0,12,13
80 -85 m 2,24,25
 60 -117 60 -117 38 -119 c 1,26,27
 13 -111 13 -111 10 -99 c 128,-1,28
 7 -87 7 -87 13 -62 c 1,29,-1
 511 739 l 1,30,31
 409 645 409 645 280 645 c 1,32,33
 288 632 288 632 291 593 c 0,34,35
 291 548 291 548 273.5 505.5 c 128,-1,36
 256 463 256 463 229.5 430.5 c 128,-1,37
 203 398 203 398 168 378.5 c 128,-1,38
 133 359 133 359 101 359 c 0,39,40
 56 359 56 359 28.5 388 c 128,-1,41
 1 417 1 417 1 475 c 0,42,43
 1 516 1 516 17 558.5 c 128,-1,44
 33 601 33 601 61 635 c 128,-1,45
 89 669 89 669 124.5 690.5 c 128,-1,46
 160 712 160 712 198 712 c 0,47,48
 225 712 225 712 247 697 c 1,49,50
 417 687 417 687 543 830 c 0,51,52
 554 843 554 843 576 844 c 0,53,54
 602 844 602 844 603 815 c 1,55,-1
 599 800 l 1,56,-1
 80 -85 l 2,24,25
227 591 m 0,57,58
 218 647 218 647 186 649 c 0,59,60
 169 654 169 654 145.5 639.5 c 128,-1,61
 122 625 122 625 101.5 598 c 128,-1,62
 81 571 81 571 70.5 540.5 c 128,-1,63
 60 510 60 510 58 482 c 0,64,65
 58 420 58 420 114 422 c 0,66,67
 134 422 134 422 161.5 439 c 128,-1,68
 189 456 189 456 203.5 486 c 128,-1,69
 218 516 218 516 223 539 c 128,-1,70
 228 562 228 562 227 591 c 0,57,58
EndSplineSet
EndChar

StartChar: ampersand
Encoding: 38 38 7
Width: 610
GlyphClass: 2
Flags: W
LayerCount: 2
Fore
SplineSet
605 101 m 1,0,1
 598 46 598 46 565.5 17 c 128,-1,2
 533 -12 533 -12 478 -12 c 0,3,4
 446 -12 446 -12 423 5 c 128,-1,5
 400 22 400 22 371 73 c 1,6,-1
 361 94 l 1,7,8
 345 59 345 59 327 38 c 0,9,10
 303 13 303 13 297 7 c 0,11,12
 266 -12 266 -12 228 -12 c 2,13,-1
 185 -16 l 1,14,-1
 135 -9 l 1,15,16
 111 -1 111 -1 92.5 6 c 128,-1,17
 74 13 74 13 53 33 c 2,18,-1
 31 59 l 1,19,20
 9 98 9 98 5 124.5 c 128,-1,21
 1 151 1 151 4 178 c 0,22,23
 9 206 9 206 20 231.5 c 128,-1,24
 31 257 31 257 72 304 c 1,25,-1
 132 360 l 1,26,-1
 192 404 l 1,27,28
 181 428 181 428 169.5 444 c 128,-1,29
 158 460 158 460 148 474 c 0,30,31
 109 534 109 534 109 600 c 256,32,33
 109 666 109 666 147 706.5 c 128,-1,34
 185 747 185 747 254 751 c 1,35,36
 391 747 391 747 391 595 c 0,37,38
 391 552 391 552 368 510 c 0,39,40
 339 460 339 460 269 399 c 1,41,42
 264 389 264 389 270 378 c 2,43,-1
 311 303 l 1,44,-1
 348 239 l 1,45,46
 351 323 351 323 372 371 c 0,47,48
 408 457 408 457 493 465 c 1,49,50
 544 462 544 462 563 437.5 c 128,-1,51
 582 413 582 413 584 382 c 0,52,53
 582 340 582 340 556 312 c 1,54,55
 524 290 524 290 502 300 c 128,-1,56
 480 310 480 310 484 343 c 1,57,58
 523 381 523 381 479 409 c 1,59,60
 436 409 436 409 415 350 c 0,61,62
 403 308 403 308 396.5 279 c 128,-1,63
 390 250 390 250 390 216 c 0,64,65
 390 178 390 178 409 132 c 128,-1,66
 428 86 428 86 454 73 c 0,67,68
 475 60 475 60 487.5 57 c 128,-1,69
 500 54 500 54 516 63 c 1,70,71
 537 85 537 85 542 112 c 128,-1,72
 547 139 547 139 570 154 c 1,73,-1
 602 133 l 1,74,-1
 605 101 l 1,0,1
333 594 m 0,75,76
 336 639 336 639 313.5 669 c 128,-1,77
 291 699 291 699 254 699 c 0,78,79
 222 699 222 699 192.5 667.5 c 128,-1,80
 163 636 163 636 170 598 c 0,81,82
 170 576 170 576 171.5 569.5 c 128,-1,83
 173 563 173 563 192 522 c 0,84,85
 205 493 205 493 210 487 c 0,86,87
 222 468 222 468 241 451 c 1,88,89
 261 464 261 464 294.5 504.5 c 128,-1,90
 328 545 328 545 333 594 c 0,75,76
306 179 m 0,91,92
 293 217 293 217 265 267 c 0,93,94
 231 330 231 330 213 356 c 1,95,96
 199 347 199 347 147 295 c 0,97,98
 130 275 130 275 109 255 c 0,99,100
 105 251 105 251 93.5 231 c 128,-1,101
 82 211 82 211 79 194 c 128,-1,102
 76 177 76 177 76 157 c 0,103,104
 76 121 76 121 93.5 93.5 c 128,-1,105
 111 66 111 66 166 46 c 1,106,-1
 205 42 l 1,107,108
 258 49 258 49 287 88 c 1,109,110
 320 125 320 125 306 179 c 0,91,92
EndSplineSet
EndChar

StartChar: quotesingle
Encoding: 39 39 8
Width: 610
GlyphClass: 2
Flags: W
LayerCount: 2
Fore
SplineSet
228 673 m 0,0,1
 230 693 230 693 248 713 c 128,-1,2
 266 733 266 733 301 733 c 0,3,4
 342 731 342 731 356 711 c 128,-1,5
 370 691 370 691 370 673 c 0,6,7
 365 631 365 631 347 566 c 128,-1,8
 329 501 329 501 329 380 c 1,9,-1
 271 380 l 1,10,11
 268 501 268 501 248 569.5 c 128,-1,12
 228 638 228 638 228 673 c 0,0,1
EndSplineSet
EndChar

StartChar: parenleft
Encoding: 40 40 9
Width: 610
GlyphClass: 2
Flags: W
LayerCount: 2
Fore
SplineSet
377 823 m 1,0,-1
 389 823 l 2,1,2
 405 822 405 822 409 802 c 1,3,4
 379 758 379 758 352 712 c 0,5,6
 328 666 328 666 307 621 c 0,7,8
 284 567 284 567 278 544 c 0,9,10
 245 447 245 447 249 276 c 1,11,12
 277 35 277 35 345 -42 c 0,13,14
 345 -48 345 -48 420 -158 c 1,15,-1
 420 -185 l 2,16,17
 420 -195 420 -195 402 -206 c 1,18,-1
 389 -206 l 2,19,20
 352 -206 352 -206 283 -117 c 1,21,22
 289 -117 289 -117 289 -110 c 1,23,24
 241 -49 241 -49 209 39 c 1,25,26
 191 39 191 39 178 156 c 1,27,28
 155 255 155 255 168 359 c 0,29,30
 175 416 175 416 180 435 c 0,31,32
 202 563 202 563 285 703 c 0,33,34
 335 786 335 786 377 823 c 1,0,-1
EndSplineSet
EndChar

StartChar: parenright
Encoding: 41 41 10
Width: 610
GlyphClass: 2
Flags: W
LayerCount: 2
Fore
SplineSet
198 830 m 1,0,-1
 211 830 l 1,1,2
 291 773 291 773 329 680 c 1,3,4
 343 680 343 680 398 554 c 0,5,6
 426 492 426 492 440 365 c 1,7,-1
 440 319 l 2,8,9
 443 218 443 218 398 73 c 1,10,11
 296 -172 296 -172 203 -199 c 1,12,13
 203 -206 203 -206 191 -206 c 1,14,-1
 168 -192 l 1,15,-1
 173 -158 l 1,16,17
 216 -112 216 -112 285 9 c 1,18,19
 352 153 352 153 362 257 c 0,20,21
 372 339 372 339 359 421 c 2,22,-1
 350 467 l 2,23,24
 328 559 328 559 272 663 c 0,25,26
 246 706 246 706 220 732 c 0,27,28
 180 779 180 779 180 802 c 2,29,-1
 180 809 l 2,30,31
 180 819 180 819 198 830 c 1,0,-1
EndSplineSet
EndChar

StartChar: asterisk
Encoding: 42 42 11
Width: 610
GlyphClass: 2
Flags: W
LayerCount: 2
Fore
SplineSet
285 587 m 1,0,-1
 132 485 l 1,1,-1
 97 545 l 1,2,-1
 269 620 l 1,3,-1
 97 695 l 1,4,-1
 132 756 l 1,5,-1
 285 653 l 1,6,-1
 270 832 l 1,7,-1
 339 832 l 1,8,-1
 329 650 l 1,9,-1
 476 756 l 1,10,-1
 513 695 l 1,11,-1
 341 620 l 1,12,-1
 513 545 l 1,13,-1
 476 485 l 1,14,-1
 326 587 l 1,15,-1
 339 411 l 1,16,-1
 270 411 l 1,17,-1
 285 587 l 1,0,-1
EndSplineSet
EndChar

StartChar: plus
Encoding: 43 43 12
Width: 610
GlyphClass: 2
Flags: W
LayerCount: 2
Fore
SplineSet
270 296 m 1,0,-1
 68 296 l 1,1,-1
 68 365 l 1,2,-1
 270 365 l 1,3,-1
 270 574 l 1,4,-1
 338 574 l 1,5,-1
 338 365 l 1,6,-1
 542 365 l 1,7,-1
 542 296 l 1,8,-1
 338 296 l 1,9,-1
 338 86 l 1,10,-1
 270 86 l 1,11,-1
 270 296 l 1,0,-1
EndSplineSet
EndChar

StartChar: comma
Encoding: 44 44 13
Width: 610
GlyphClass: 2
Flags: W
LayerCount: 2
Fore
SplineSet
213 -127 m 1,0,1
 256 -109 256 -109 283 -77 c 128,-1,2
 310 -45 310 -45 314 0 c 1,3,4
 310 -2 310 -2 304 -2 c 0,5,6
 265 -2 265 -2 243.5 18.5 c 128,-1,7
 222 39 222 39 222 74 c 0,8,9
 222 105 222 105 245.5 128.5 c 128,-1,10
 269 152 269 152 304 152 c 0,11,12
 342 152 342 152 367 123 c 128,-1,13
 392 94 392 94 392 33 c 0,14,15
 392 -43 392 -43 347 -96.5 c 128,-1,16
 302 -150 302 -150 240 -178 c 1,17,-1
 213 -127 l 1,0,1
EndSplineSet
EndChar

StartChar: hyphen
Encoding: 45 45 14
Width: 610
GlyphClass: 2
Flags: W
LayerCount: 2
Fore
SplineSet
146 370 m 1,0,-1
 448 370 l 1,1,-1
 490 370 l 1,2,3
 530 359 530 359 530 323 c 2,4,-1
 530 299 l 1,5,6
 526 270 526 270 494 262 c 1,7,-1
 460 262 l 1,8,-1
 120 262 l 1,9,10
 80 268 80 268 82 309 c 2,11,-1
 82 331 l 1,12,13
 88 377 88 377 146 370 c 1,0,-1
EndSplineSet
EndChar

StartChar: period
Encoding: 46 46 15
Width: 610
GlyphClass: 2
Flags: W
LayerCount: 2
Fore
SplineSet
284 -10 m 0,0,1
 253 -10 253 -10 228.5 12.5 c 128,-1,2
 204 35 204 35 204 74 c 0,3,4
 204 107 204 107 226.5 130.5 c 128,-1,5
 249 154 249 154 284 154 c 0,6,7
 318 154 318 154 342.5 131.5 c 128,-1,8
 367 109 367 109 367 74 c 0,9,10
 367 41 367 41 344.5 15.5 c 128,-1,11
 322 -10 322 -10 284 -10 c 0,0,1
EndSplineSet
EndChar

StartChar: slash
Encoding: 47 47 16
Width: 610
GlyphClass: 2
Flags: W
LayerCount: 2
Fore
SplineSet
561 818 m 1,0,-1
 583 840 l 1,1,2
 602 843 602 843 605 817 c 0,3,4
 606 779 606 779 571 718 c 2,5,-1
 67 -178 l 1,6,-1
 39 -202 l 1,7,-1
 33 -203 l 2,8,9
 11 -206 11 -206 0 -187 c 1,10,-1
 1 -133 l 1,11,-1
 533 775 l 1,12,-1
 561 818 l 1,0,-1
EndSplineSet
EndChar

StartChar: zero
Encoding: 48 48 17
Width: 610
GlyphClass: 2
Flags: W
LayerCount: 2
Fore
SplineSet
323 705 m 1,0,1
 431 690 431 690 497 562 c 0,2,3
 532 494 532 494 540 437 c 2,4,-1
 549 383 l 2,5,6
 553 343 553 343 553 284 c 1,7,-1
 546 227 l 2,8,9
 535 145 535 145 485 80 c 1,10,11
 429 16 429 16 371 -6 c 1,12,-1
 348 -10 l 1,13,-1
 302 -15 l 1,14,-1
 266 -9 l 1,15,16
 187 13 187 13 138 67 c 0,17,18
 112 100 112 100 94 140 c 0,19,20
 72 192 72 192 62 264 c 0,21,22
 60 298 60 298 60 352 c 0,23,24
 62 396 62 396 68 432 c 0,25,26
 76 488 76 488 109 554 c 0,27,28
 151 645 151 645 237 689 c 0,29,30
 272 708 272 708 323 705 c 1,0,1
166 510 m 0,31,32
 145 448 145 448 139 384 c 0,33,34
 135 320 135 320 149 248 c 1,35,-1
 164 198 l 1,36,37
 214 74 214 74 306 69 c 1,38,-1
 326 69 l 1,39,40
 436 94 436 94 459 234 c 2,41,-1
 468 298 l 1,42,-1
 468 364 l 1,43,-1
 461 406 l 1,44,-1
 453 442 l 1,45,-1
 445 475 l 1,46,47
 404 610 404 610 316 638 c 1,48,-1
 293 638 l 1,49,50
 245 632 245 632 207 586 c 0,51,52
 182 553 182 553 166 510 c 0,31,32
EndSplineSet
EndChar

StartChar: one
Encoding: 49 49 18
Width: 610
GlyphClass: 2
Flags: W
LayerCount: 2
Fore
SplineSet
314 692 m 0,0,1
 334 708 334 708 356 706 c 0,2,3
 380 701 380 701 382 666 c 2,4,-1
 382 636 l 1,5,-1
 382 589 l 1,6,-1
 378 436 l 2,7,8
 376 297 376 297 372 98 c 1,9,-1
 372 48 l 2,10,11
 374 -20 374 -20 330 -23 c 0,12,13
 286 -24 286 -24 288 30 c 2,14,-1
 288 100 l 1,15,-1
 294 531 l 2,16,17
 294 560 294 560 274 558 c 1,18,-1
 248 546 l 2,19,20
 204 522 204 522 152 492 c 0,21,22
 128 482 128 482 110 508 c 1,23,24
 102 540 102 540 132 560 c 0,25,26
 230 625 230 625 314 692 c 0,0,1
EndSplineSet
EndChar

StartChar: two
Encoding: 50 50 19
Width: 610
GlyphClass: 2
Flags: W
LayerCount: 2
Fore
SplineSet
336 717 m 1,0,1
 412 704 412 704 446 674 c 1,2,3
 508 634 508 634 524 513 c 1,4,-1
 521 465 l 1,5,6
 498 357 498 357 284 241 c 1,7,8
 164 188 164 188 164 122 c 1,9,10
 168 80 168 80 274 84 c 1,11,-1
 489 81 l 1,12,-1
 518 76 l 1,13,14
 555 26 555 26 493 -2 c 1,15,-1
 443 -2 l 2,16,17
 417 -2 417 -2 374 -5 c 1,18,-1
 231 0 l 2,19,20
 210 0 210 0 124 -7 c 1,21,22
 62 10 62 10 62 84 c 2,23,-1
 62 91 l 2,24,25
 62 212 62 212 252 316 c 0,26,27
 306 348 306 348 380 397 c 1,28,29
 380 404 380 404 423 451 c 1,30,31
 436 476 436 476 436 506 c 2,32,-1
 435 545 l 1,33,34
 389 656 389 656 300 644 c 1,35,-1
 294 644 l 2,36,37
 224 642 224 642 190 590 c 0,38,39
 168 558 168 558 160 478 c 1,40,-1
 126 466 l 1,41,42
 88 464 88 464 86 513 c 1,43,44
 96 604 96 604 150 654 c 0,45,46
 226 726 226 726 336 717 c 1,0,1
EndSplineSet
EndChar

StartChar: three
Encoding: 51 51 20
Width: 610
GlyphClass: 2
Flags: W
LayerCount: 2
Fore
SplineSet
447 706 m 0,0,1
 496 706 496 706 505 658 c 1,2,-1
 492 628 l 1,3,-1
 401 540 l 2,4,5
 355 490 355 490 302 440 c 1,6,-1
 354 450 l 1,7,-1
 402 444 l 1,8,9
 474 414 474 414 504 352 c 0,10,11
 522 310 522 310 527 256 c 1,12,-1
 526 232 l 2,13,14
 520 128 520 128 431 32 c 0,15,16
 369 -33 369 -33 274 -77 c 0,17,18
 201 -107 201 -107 119 -123 c 1,19,20
 82 -123 82 -123 59 -97 c 1,21,22
 82 -15 82 -15 201 -6 c 1,23,24
 301 21 301 21 353 72 c 0,25,26
 433 152 433 152 441 238 c 1,27,-1
 441 260 l 1,28,29
 418 378 418 378 318 376 c 2,30,-1
 288 376 l 1,31,32
 237 372 237 372 189 340 c 1,33,-1
 170 340 l 1,34,35
 148 350 148 350 148 372 c 1,36,37
 152 390 152 390 172 410 c 0,38,39
 306 534 306 534 365 594 c 1,40,-1
 375 612 l 1,41,42
 381 640 381 640 346 636 c 1,43,-1
 258 640 l 1,44,-1
 161 636 l 2,45,46
 134 632 134 632 128 572 c 1,47,-1
 98 562 l 1,48,49
 58 570 58 570 66 632 c 1,50,51
 66 682 66 682 112 704 c 1,52,-1
 165 705 l 1,53,54
 338 704 338 704 447 706 c 0,0,1
EndSplineSet
EndChar

StartChar: four
Encoding: 52 52 21
Width: 610
GlyphClass: 2
Flags: W
LayerCount: 2
Fore
SplineSet
364 727 m 0,0,1
 420 727 420 727 422 631 c 1,2,3
 416 350 416 350 422 214 c 1,4,5
 498 217 498 217 516 216 c 2,6,-1
 542 216 l 2,7,8
 566 216 566 216 576 188 c 1,9,-1
 576 170 l 1,10,11
 566 152 566 152 542 140 c 1,12,-1
 450 140 l 2,13,14
 423 140 423 140 417 108 c 0,15,16
 410 52 410 52 416 -32 c 1,17,18
 414 -82 414 -82 376 -82 c 1,19,20
 330 -76 330 -76 338 -28 c 0,21,22
 346 32 346 32 342 98 c 0,23,24
 340 126 340 126 319 134 c 1,25,-1
 249 134 l 1,26,-1
 121 132 l 1,27,-1
 94 132 l 1,28,29
 32 136 32 136 50 194 c 1,30,-1
 68 224 l 1,31,-1
 103 288 l 1,32,-1
 273 604 l 1,33,34
 318 720 318 720 358 720 c 1,35,36
 358 727 358 727 364 727 c 0,0,1
166 222 m 1,37,38
 174 208 174 208 198 210 c 2,39,-1
 324 210 l 1,40,41
 344 220 344 220 344 252 c 0,42,43
 348 380 348 380 346 576 c 1,44,-1
 330 576 l 1,45,46
 224 362 224 362 166 238 c 1,47,-1
 166 222 l 1,37,38
EndSplineSet
EndChar

StartChar: five
Encoding: 53 53 22
Width: 610
GlyphClass: 2
Flags: W
LayerCount: 2
Fore
SplineSet
440 722 m 1,0,1
 486 714 486 714 493 688 c 1,2,-1
 493 675 l 1,3,4
 489 656 489 656 468 644 c 1,5,-1
 433 640 l 1,6,-1
 392 640 l 2,7,8
 292 641 292 641 280 641 c 2,9,-1
 237 642 l 1,10,-1
 204 642 l 2,11,12
 171 640 171 640 173 600 c 2,13,-1
 173 438 l 1,14,-1
 227 470 l 1,15,-1
 276 480 l 2,16,17
 333 488 333 488 378 472 c 0,18,19
 448 452 448 452 495 386 c 0,20,21
 521 352 521 352 531 266 c 1,22,-1
 531 242 l 1,23,24
 527 192 527 192 513 152 c 0,25,26
 497 108 497 108 456 62 c 0,27,28
 421 17 421 17 328 -39 c 1,29,30
 207 -95 207 -95 146 -102 c 1,31,32
 146 -109 146 -109 139 -109 c 2,33,-1
 126 -109 l 2,34,35
 116 -109 116 -109 86 -92 c 1,36,-1
 86 -64 l 1,37,38
 103 -19 103 -19 256 19 c 1,39,40
 325 49 325 49 378 98 c 0,41,42
 431 150 431 150 446 214 c 0,43,44
 460 286 460 286 427 340 c 0,45,46
 395 393 395 393 343 402 c 0,47,48
 218 424 218 424 158 313 c 1,49,-1
 131 314 l 2,50,51
 96 316 96 316 95 402 c 0,52,53
 98 504 98 504 96 674 c 1,54,55
 111 715 111 715 146 715 c 2,56,-1
 215 715 l 2,57,58
 307 715 307 715 440 722 c 1,0,1
EndSplineSet
EndChar

StartChar: six
Encoding: 54 54 23
Width: 610
GlyphClass: 2
Flags: W
LayerCount: 2
Fore
SplineSet
487 768 m 1,0,-1
 512 752 l 1,1,-1
 519 728 l 1,2,3
 512 706 512 706 487 697 c 1,4,-1
 437 697 l 1,5,6
 348 687 348 687 267 627 c 1,7,8
 186 560 186 560 173 466 c 2,9,-1
 166 410 l 1,10,11
 202 449 202 449 297 462 c 1,12,13
 398 464 398 464 464 411 c 0,14,15
 544 345 544 345 544 228 c 1,16,17
 536 9 536 9 307 -4 c 1,18,-1
 307 3 l 1,19,-1
 295 -4 l 1,20,-1
 288 -4 l 1,21,22
 183 4 183 4 123 98 c 1,23,24
 74 186 74 186 74 255 c 1,25,-1
 69 304 l 1,26,-1
 73 365 l 1,27,-1
 77 405 l 2,28,29
 88 518 88 518 160 616 c 0,30,31
 280 769 280 769 487 768 c 1,0,-1
297 388 m 2,32,-1
 272 386 l 1,33,34
 161 367 161 367 161 248 c 2,35,-1
 161 226 l 2,36,37
 161 183 161 183 202 124 c 1,38,39
 252 75 252 75 308 82 c 0,40,41
 445 92 445 92 462 226 c 1,42,-1
 462 255 l 1,43,44
 452 345 452 345 359 383 c 1,45,-1
 345 383 l 1,46,47
 304 388 304 388 297 388 c 2,32,-1
EndSplineSet
EndChar

StartChar: seven
Encoding: 55 55 24
Width: 610
GlyphClass: 2
Flags: W
LayerCount: 2
Fore
SplineSet
480 713 m 1,0,1
 538 713 538 713 552 659 c 1,2,3
 520 580 520 580 486 532 c 1,4,5
 427 419 427 419 408 358 c 0,6,7
 389 296 389 296 376.5 239.5 c 128,-1,8
 364 183 364 183 361 116 c 2,9,-1
 361 82 l 2,10,11
 361 46 361 46 365 8 c 1,12,-1
 360 -27 l 1,13,14
 318 -60 318 -60 272 -27 c 1,15,16
 272 -2 272 -2 272 55 c 0,17,18
 267 173 267 173 340 390 c 1,19,20
 441 604 441 604 448 614 c 1,21,22
 424 642 424 642 312 632 c 1,23,-1
 194 632 l 1,24,25
 140 638 140 638 150 560 c 0,26,27
 160 484 160 484 104 484 c 1,28,29
 67 494 67 494 70 545 c 0,30,31
 73 587 73 587 73 604 c 0,32,33
 73 613 73 613 67 672 c 1,34,35
 67 713 67 713 135 713 c 1,36,37
 346 699 346 699 480 713 c 1,0,1
EndSplineSet
EndChar

StartChar: eight
Encoding: 56 56 25
Width: 610
GlyphClass: 2
Flags: W
LayerCount: 2
Fore
SplineSet
344 722 m 0,0,1
 451 704 451 704 493 640 c 0,2,3
 508 620 508 620 516 595 c 0,4,5
 523 577 523 577 527 543 c 1,6,-1
 524 511 l 1,7,8
 504 439 504 439 434 395 c 1,9,-1
 458 379 l 2,10,11
 552 319 552 319 552 195 c 1,12,-1
 550 175 l 2,13,14
 548 145 548 145 512 87 c 1,15,-1
 495 66 l 1,16,-1
 462 46 l 1,17,18
 404 -3 404 -3 353 -3 c 2,19,-1
 259 -3 l 1,20,21
 90 35 90 35 61 158 c 1,22,23
 56 158 56 158 53 190 c 0,24,25
 41 296 41 296 148 383 c 2,26,-1
 167 398 l 1,27,28
 122 424 122 424 111 442 c 0,29,30
 90 467 90 467 84 522 c 1,31,-1
 84 542 l 2,32,33
 84 602 84 602 122 648 c 0,34,35
 150 676 150 676 182 696 c 0,36,37
 214 712 214 712 246 720 c 2,38,-1
 280 726 l 2,39,40
 312 728 312 728 344 722 c 0,0,1
166 548 m 1,41,42
 173 430 173 430 288 430 c 2,43,-1
 314 430 l 1,44,45
 433 434 433 434 450 534 c 1,46,47
 452 632 452 632 340 652 c 0,48,49
 310 660 310 660 276 656 c 0,50,51
 178 644 178 644 166 548 c 1,41,42
140 217 m 1,52,53
 150 144 150 144 209 107 c 1,54,-1
 259 88 l 1,55,-1
 307 80 l 2,56,57
 334 78 334 78 376 88 c 1,58,59
 442 116 442 116 464 170 c 0,60,61
 475 204 475 204 475 214 c 2,62,-1
 475 224 l 1,63,64
 463 283 463 283 426 316 c 0,65,66
 397 337 397 337 359 352 c 1,67,-1
 330 360 l 1,68,69
 296 362 296 362 246 358 c 1,70,71
 140 326 140 326 140 217 c 1,52,53
EndSplineSet
EndChar

StartChar: nine
Encoding: 57 57 26
Width: 610
GlyphClass: 2
Flags: W
LayerCount: 2
Fore
SplineSet
121 -34 m 1,0,-1
 95 -19 l 1,1,-1
 94 4 l 1,2,3
 106 34 106 34 118 29 c 1,4,-1
 176 34 l 1,5,6
 274 49 274 49 344 102 c 1,7,8
 432 180 432 180 444 267 c 1,9,10
 455 308 455 308 458 348 c 1,11,12
 404 278 404 278 305 263 c 1,13,14
 193 258 193 258 122 320 c 1,15,16
 68 373 68 373 62 475 c 1,17,18
 71 703 71 703 294 724 c 1,19,-1
 294 717 l 1,20,-1
 308 724 l 1,21,-1
 315 724 l 1,22,23
 454 707 454 707 504 604 c 1,24,25
 541 542 541 542 544 451 c 2,26,-1
 545 422 l 2,27,28
 548 394 548 394 541 346 c 1,29,-1
 540 328 l 1,30,31
 527 210 527 210 454 114 c 1,32,33
 343 -48 343 -48 121 -34 c 1,0,-1
322 340 m 2,34,-1
 360 350 l 1,35,36
 440 393 440 393 452 486 c 1,37,-1
 449 494 l 1,38,39
 452 570 452 570 395 613 c 0,40,41
 374 632 374 632 343 644 c 1,42,-1
 310 650 l 2,43,44
 279 655 279 655 236 640 c 0,45,46
 150 604 150 604 144 498 c 1,47,-1
 144 476 l 1,48,49
 149 381 149 381 240 340 c 1,50,-1
 262 336 l 2,51,52
 287 331 287 331 322 340 c 2,34,-1
EndSplineSet
EndChar

StartChar: colon
Encoding: 58 58 27
Width: 610
GlyphClass: 2
Flags: W
LayerCount: 2
Fore
SplineSet
284 -10 m 0,0,1
 253 -10 253 -10 228.5 12.5 c 128,-1,2
 204 35 204 35 204 74 c 0,3,4
 204 107 204 107 226.5 130.5 c 128,-1,5
 249 154 249 154 284 154 c 0,6,7
 318 154 318 154 342.5 131.5 c 128,-1,8
 367 109 367 109 367 74 c 0,9,10
 367 41 367 41 344.5 15.5 c 128,-1,11
 322 -10 322 -10 284 -10 c 0,0,1
284 339 m 0,12,13
 253 339 253 339 228.5 361.5 c 128,-1,14
 204 384 204 384 204 421 c 0,15,16
 204 455 204 455 226.5 479 c 128,-1,17
 249 503 249 503 284 503 c 0,18,19
 318 503 318 503 342.5 480.5 c 128,-1,20
 367 458 367 458 367 421 c 0,21,22
 367 388 367 388 344.5 363.5 c 128,-1,23
 322 339 322 339 284 339 c 0,12,13
EndSplineSet
EndChar

StartChar: semicolon
Encoding: 59 59 28
Width: 610
GlyphClass: 2
Flags: W
LayerCount: 2
Fore
SplineSet
213 -127 m 1,0,1
 256 -109 256 -109 283 -77 c 128,-1,2
 310 -45 310 -45 314 0 c 1,3,4
 310 -2 310 -2 304 -2 c 0,5,6
 265 -2 265 -2 243.5 18.5 c 128,-1,7
 222 39 222 39 222 74 c 0,8,9
 222 105 222 105 245.5 128.5 c 128,-1,10
 269 152 269 152 304 152 c 0,11,12
 342 152 342 152 367 123 c 128,-1,13
 392 94 392 94 392 33 c 0,14,15
 392 -43 392 -43 347 -96.5 c 128,-1,16
 302 -150 302 -150 240 -178 c 1,17,-1
 213 -127 l 1,0,1
302 339 m 0,18,19
 271 339 271 339 246.5 361.5 c 128,-1,20
 222 384 222 384 222 421 c 0,21,22
 222 455 222 455 244.5 479 c 128,-1,23
 267 503 267 503 302 503 c 0,24,25
 336 503 336 503 360.5 480.5 c 128,-1,26
 385 458 385 458 385 421 c 0,27,28
 385 388 385 388 362.5 363.5 c 128,-1,29
 340 339 340 339 302 339 c 0,18,19
EndSplineSet
EndChar

StartChar: less
Encoding: 60 60 29
Width: 610
GlyphClass: 2
Flags: W
LayerCount: 2
Fore
SplineSet
54 268 m 1,0,-1
 54 346 l 1,1,-1
 542 572 l 1,2,-1
 542 500 l 1,3,-1
 128 307 l 1,4,-1
 542 111 l 1,5,-1
 542 41 l 1,6,-1
 54 268 l 1,0,-1
EndSplineSet
EndChar

StartChar: equal
Encoding: 61 61 30
Width: 610
GlyphClass: 2
Flags: W
LayerCount: 2
Fore
SplineSet
314 454 m 1,0,-1
 490 454 l 2,1,2
 521 453 521 453 538 434 c 1,3,-1
 540 414 l 2,4,5
 540 388 540 388 500 377 c 1,6,-1
 310 380 l 1,7,-1
 118 380 l 1,8,9
 84 386 84 386 80 419 c 1,10,-1
 80 430 l 1,11,12
 92 458 92 458 160 454 c 1,13,-1
 314 454 l 1,0,-1
492 258 m 1,14,-1
 510 251 l 1,15,16
 532 231 532 231 528 198 c 1,17,-1
 504 180 l 1,18,19
 478 176 478 176 442 181 c 1,20,-1
 137 181 l 1,21,-1
 116 182 l 2,22,23
 69 184 69 184 69 221 c 0,24,25
 69 261 69 261 116 264 c 1,26,27
 348 254 348 254 492 258 c 1,14,-1
EndSplineSet
EndChar

StartChar: greater
Encoding: 62 62 31
Width: 610
GlyphClass: 2
Flags: W
LayerCount: 2
Fore
SplineSet
54 41 m 1,0,-1
 54 111 l 1,1,-1
 468 307 l 1,2,-1
 54 500 l 1,3,-1
 54 572 l 1,4,-1
 542 346 l 1,5,-1
 542 268 l 1,6,-1
 54 41 l 1,0,-1
EndSplineSet
EndChar

StartChar: question
Encoding: 63 63 32
Width: 610
GlyphClass: 2
Flags: W
LayerCount: 2
Fore
SplineSet
244 732 m 0,0,1
 281 738 281 738 313 736 c 2,2,-1
 350 733 l 1,3,4
 437 710 437 710 479 652 c 0,5,6
 517 600 517 600 518 543 c 2,7,-1
 518 528 l 1,8,9
 513 427 513 427 415 382 c 0,10,11
 338 348 338 348 333 298 c 1,12,-1
 333 266 l 2,13,14
 333 234 333 234 333 216 c 1,15,16
 314 193 314 193 289 193 c 0,17,18
 249 195 249 195 255 236 c 1,19,-1
 255 284 l 2,20,21
 253 336 253 336 292 383 c 1,22,-1
 329 406 l 1,23,24
 420 438 420 438 432 528 c 1,25,26
 439 639 439 639 331 667 c 1,27,-1
 306 668 l 2,28,29
 287 667 287 667 270 668 c 1,30,31
 175 650 175 650 176 598 c 0,32,33
 175 570 175 570 218 546 c 1,34,-1
 218 513 l 1,35,36
 186 457 186 457 125 486 c 1,37,38
 86 516 86 516 88 570 c 0,39,40
 89 636 89 636 143 680 c 1,41,42
 186 724 186 724 244 732 c 0,0,1
297 1 m 0,43,44
 273 1 273 1 254 17.5 c 128,-1,45
 235 34 235 34 235 61 c 0,46,47
 235 85 235 85 252.5 101.5 c 128,-1,48
 270 118 270 118 297 118 c 256,49,50
 324 118 324 118 343.5 102.5 c 128,-1,51
 363 87 363 87 363 61 c 0,52,53
 363 39 363 39 344.5 20 c 128,-1,54
 326 1 326 1 297 1 c 0,43,44
EndSplineSet
EndChar

StartChar: at
Encoding: 64 64 33
Width: 610
GlyphClass: 2
Flags: W
LayerCount: 2
Fore
SplineSet
301 -97 m 0,0,1
 245 -97 245 -97 191.5 -73 c 128,-1,2
 138 -49 138 -49 95.5 -2 c 128,-1,3
 53 45 53 45 29 120.5 c 128,-1,4
 5 196 5 196 5 302 c 0,5,6
 5 428 5 428 30 511 c 128,-1,7
 55 594 55 594 100.5 649.5 c 128,-1,8
 146 705 146 705 205 738.5 c 128,-1,9
 264 772 264 772 333 772 c 0,10,11
 385 772 385 772 433 751 c 128,-1,12
 481 730 481 730 519.5 688.5 c 128,-1,13
 558 647 558 647 581 582 c 128,-1,14
 604 517 604 517 604 437 c 0,15,16
 604 359 604 359 593 300.5 c 128,-1,17
 582 242 582 242 553.5 197.5 c 128,-1,18
 525 153 525 153 492.5 125 c 128,-1,19
 460 97 460 97 420 97 c 0,20,21
 394 98 394 98 376 123 c 128,-1,22
 358 148 358 148 359 205 c 1,23,24
 331 152 331 152 310.5 125.5 c 128,-1,25
 290 99 290 99 251 99 c 0,26,27
 199 99 199 99 176 144 c 128,-1,28
 153 189 153 189 153 258 c 0,29,30
 153 323 153 323 166.5 371 c 128,-1,31
 180 419 180 419 201 455.5 c 128,-1,32
 222 492 222 492 253.5 515 c 128,-1,33
 285 538 285 538 320 536 c 0,34,35
 355 533 355 533 370.5 514.5 c 128,-1,36
 386 496 386 496 390 476 c 1,37,-1
 406 547 l 1,38,-1
 451 548 l 1,39,40
 411 361 411 361 404.5 290.5 c 128,-1,41
 398 220 398 220 401 199 c 0,42,43
 403 169 403 169 415 159 c 128,-1,44
 427 149 427 149 444 151 c 0,45,46
 464 157 464 157 482.5 174 c 128,-1,47
 501 191 501 191 518 223.5 c 128,-1,48
 535 256 535 256 545 314 c 128,-1,49
 555 372 555 372 555 432 c 0,50,51
 554 509 554 509 537.5 565 c 128,-1,52
 521 621 521 621 491 654.5 c 128,-1,53
 461 688 461 688 422 704 c 128,-1,54
 383 720 383 720 339 720 c 0,55,56
 278 720 278 720 226.5 690.5 c 128,-1,57
 175 661 175 661 137 605 c 128,-1,58
 99 549 99 549 78 477 c 128,-1,59
 57 405 57 405 57 290 c 0,60,61
 57 199 57 199 77.5 140.5 c 128,-1,62
 98 82 98 82 132.5 39 c 128,-1,63
 167 -4 167 -4 210 -22.5 c 128,-1,64
 253 -41 253 -41 298 -41 c 0,65,66
 367 -41 367 -41 418.5 -18.5 c 128,-1,67
 470 4 470 4 517 47 c 1,68,-1
 536 4 l 1,69,70
 486 -45 486 -45 431 -71 c 128,-1,71
 376 -97 376 -97 301 -97 c 0,0,1
258 160 m 256,72,73
 275 160 275 160 289 175 c 0,74,75
 303 186 303 186 317.5 214.5 c 128,-1,76
 332 243 332 243 343 284.5 c 128,-1,77
 354 326 354 326 358.5 360.5 c 128,-1,78
 363 395 363 395 363 415 c 0,79,80
 363 442 363 442 350 463 c 128,-1,81
 337 484 337 484 316 484 c 0,82,83
 291 486 291 486 266.5 456 c 128,-1,84
 242 426 242 426 229.5 384 c 128,-1,85
 217 342 217 342 214.5 306.5 c 128,-1,86
 212 271 212 271 214 240 c 0,87,88
 215 197 215 197 228 178.5 c 128,-1,89
 241 160 241 160 258 160 c 256,72,73
EndSplineSet
EndChar

StartChar: A
Encoding: 65 65 34
Width: 610
GlyphClass: 2
Flags: W
LayerCount: 2
Fore
SplineSet
319 730 m 1,0,-1
 361 706 l 1,1,-1
 460 270 l 2,2,3
 494 107 494 107 522 78 c 1,4,5
 614 98 614 98 614 29 c 0,6,7
 614 8 614 8 566 0 c 1,8,9
 487 2 487 2 434 -2 c 1,10,-1
 389 1 l 1,11,-1
 357 2 l 1,12,13
 323 40 323 40 373 74 c 1,14,-1
 418 82 l 1,15,16
 418 152 418 152 403 184 c 1,17,18
 399 204 399 204 359 206 c 2,19,-1
 293 206 l 2,20,21
 246 205 246 205 226 204 c 1,22,-1
 206 182 l 1,23,-1
 188 102 l 1,24,25
 192 62 192 62 226 64 c 1,26,-1
 257 52 l 1,27,-1
 267 34 l 1,28,29
 271 15 271 15 262 2 c 1,30,31
 240 -13 240 -13 220 -6 c 1,32,-1
 144 -6 l 2,33,34
 100 -8 100 -8 28 -8 c 1,35,36
 6 0 6 0 -4 22 c 1,37,-1
 -4 35 l 1,38,39
 4 59 4 59 101 80 c 1,40,41
 119 118 119 118 154 266 c 0,42,43
 216 543 216 543 245 646 c 1,44,-1
 265 694 l 2,45,46
 275 722 275 722 319 730 c 1,0,-1
294 588 m 1,47,-1
 288 556 l 1,48,49
 256 434 256 434 240 348 c 0,50,51
 235 325 235 325 236 290 c 1,52,-1
 262 276 l 2,53,54
 269 276 269 276 314 272 c 1,55,56
 351 276 351 276 364 286 c 1,57,58
 378 310 378 310 364 368 c 1,59,60
 354 440 354 440 328 557 c 2,61,-1
 318 598 l 1,62,-1
 302 606 l 1,63,-1
 294 588 l 1,47,-1
EndSplineSet
EndChar

StartChar: B
Encoding: 66 66 35
Width: 610
GlyphClass: 2
Flags: W
LayerCount: 2
Fore
SplineSet
313 712 m 2,0,1
 459 716 459 716 515 641 c 0,2,3
 547 593 547 593 547 520 c 0,4,5
 549 485 549 485 523 445 c 1,6,7
 498 414 498 414 444 393 c 1,8,9
 518 376 518 376 566 292 c 1,10,11
 582 250 582 250 582 202 c 0,12,13
 580 146 580 146 562 104 c 1,14,15
 533 59 533 59 498 35 c 1,16,17
 427 7 427 7 394 3.5 c 128,-1,18
 361 0 361 0 328 -7 c 1,19,20
 278 -2 278 -2 278 7 c 1,21,-1
 266 0 l 1,22,-1
 203 0 l 2,23,24
 177 0 177 0 134 -7 c 1,25,26
 116 0 116 0 116 7 c 1,27,-1
 72 0 l 1,28,-1
 47 0 l 2,29,30
 37 0 37 0 20 30 c 1,31,-1
 18 48 l 1,32,33
 22 71 22 71 41 82 c 1,34,-1
 72 82 l 2,35,36
 168 82 168 82 172 123 c 1,37,38
 169 470 169 470 169 504 c 2,39,-1
 169 511 l 1,40,-1
 163 540 l 1,41,42
 175 562 175 562 175 581 c 2,43,-1
 175 594 l 1,44,-1
 169 629 l 1,45,46
 164 629 164 629 141 622 c 1,47,-1
 116 635 l 1,48,49
 95 622 95 622 78 622 c 0,50,51
 41 629 41 629 41 642 c 2,52,-1
 41 661 l 2,53,54
 41 708 41 708 91 708 c 2,55,-1
 103 708 l 2,56,57
 126 708 126 708 182 709 c 2,58,-1
 313 712 l 2,0,1
235 600 m 2,59,-1
 235 511 l 1,60,-1
 234 484 l 1,61,62
 240 434 240 434 270 428 c 1,63,-1
 303 428 l 2,64,65
 315 428 315 428 364 428 c 1,66,67
 454 456 454 456 459 518 c 0,68,69
 459 531 459 531 465 531 c 1,70,71
 462 608 462 608 412 632 c 0,72,73
 390 642 390 642 358 646 c 1,74,75
 302 646 302 646 270 642 c 1,76,77
 238 648 238 648 235 600 c 2,59,-1
242 298 m 1,78,-1
 241 275 l 1,79,-1
 240 159 l 1,80,-1
 240 124 l 1,81,-1
 250 91 l 1,82,-1
 278 77 l 1,83,-1
 329 77 l 2,84,85
 417 77 417 77 450 120 c 1,86,87
 468 120 468 120 487 172 c 1,88,-1
 481 172 l 1,89,90
 493 197 493 197 493 215 c 2,91,-1
 493 231 l 2,92,93
 493 307 493 307 400 348 c 1,94,-1
 374 354 l 1,95,-1
 332 352 l 2,96,97
 307 348 307 348 286 350 c 0,98,99
 240 352 240 352 242 298 c 1,78,-1
EndSplineSet
EndChar

StartChar: C
Encoding: 67 67 36
Width: 610
GlyphClass: 2
Flags: W
LayerCount: 2
Fore
SplineSet
273 726 m 1,0,1
 342 726 342 726 423 686 c 1,2,3
 463 719 463 719 491 719 c 1,4,-1
 511 692 l 1,5,-1
 511 679 l 1,6,7
 498 592 498 592 486 562 c 1,8,9
 515 473 515 473 523 420 c 1,10,11
 511 413 511 413 504 413 c 0,12,13
 441 414 441 414 417 590 c 0,14,15
 417 610 417 610 304 651 c 1,16,-1
 298 651 l 1,17,18
 167 595 167 595 167 529 c 1,19,20
 140 529 140 529 130 413 c 1,21,-1
 136 413 l 1,22,23
 130 400 130 400 130 393 c 0,24,25
 130 375 130 375 136 338 c 1,26,-1
 130 311 l 1,27,28
 130 202 130 202 192 147 c 1,29,30
 192 115 192 115 255 79 c 1,31,32
 385 101 385 101 386 141 c 1,33,34
 423 180 423 180 448 256 c 1,35,36
 460 256 460 256 486 284 c 1,37,38
 535 275 535 275 535 236 c 0,39,40
 535 161 535 161 504 141 c 1,41,42
 504 97 504 97 429 38 c 1,43,-1
 373 -16 l 1,44,-1
 329 -9 l 1,45,-1
 311 -9 l 1,46,-1
 292 -23 l 1,47,-1
 273 -23 l 1,48,49
 174 38 174 38 167 52 c 1,50,51
 167 63 167 63 136 86 c 1,52,53
 136 105 136 105 80 181 c 1,54,-1
 80 215 l 2,55,56
 80 222 80 222 86 222 c 1,57,-1
 67 263 l 1,58,-1
 67 277 l 1,59,-1
 80 297 l 1,60,-1
 80 311 l 1,61,-1
 67 331 l 1,62,-1
 67 365 l 2,63,64
 67 380 67 380 73 393 c 1,65,66
 67 406 67 406 67 413 c 0,67,68
 67 428 67 428 86 495 c 1,69,70
 80 495 80 495 80 501 c 1,71,72
 100 501 100 501 111 597 c 1,73,74
 133 597 133 597 148 658 c 1,75,76
 203 701 203 701 273 726 c 1,0,1
EndSplineSet
EndChar

StartChar: D
Encoding: 68 68 37
Width: 610
GlyphClass: 2
Flags: W
LayerCount: 2
Fore
SplineSet
224 716 m 1,0,1
 234 716 234 716 280 703 c 1,2,3
 305 716 305 716 324 716 c 1,4,5
 472 683 472 683 486 635 c 1,6,7
 549 591 549 591 565 505 c 1,8,9
 572 430 572 430 580 430 c 1,10,11
 580 424 580 424 579 361 c 0,12,13
 579 341 579 341 573 267 c 1,14,15
 559 171 559 171 530 171 c 1,16,-1
 530 165 l 1,17,-1
 536 117 l 1,18,19
 476 21 476 21 418 21 c 1,20,21
 404 12 404 12 330 -5 c 0,22,23
 318 -5 318 -5 286 8 c 1,24,25
 255 -5 255 -5 243 -5 c 2,26,-1
 168 1 l 1,27,28
 149 -5 149 -5 149 -12 c 1,29,30
 24 -12 24 -12 24 49 c 2,31,-1
 24 56 l 1,32,33
 74 62 74 62 74 83 c 1,34,-1
 130 76 l 1,35,-1
 155 76 l 1,36,37
 180 87 180 87 180 124 c 0,38,39
 180 131 180 131 173 131 c 1,40,41
 180 199 180 199 186 199 c 1,42,43
 173 233 173 233 173 247 c 0,44,45
 173 252 173 252 180 301 c 1,46,-1
 173 349 l 2,47,48
 173 355 173 355 180 355 c 1,49,-1
 173 390 l 1,50,-1
 180 485 l 1,51,-1
 173 519 l 1,52,53
 180 532 180 532 180 540 c 2,54,-1
 173 566 l 1,55,56
 180 593 180 593 180 621 c 1,57,-1
 148 642 l 1,58,59
 87 635 87 635 37 635 c 1,60,61
 24 660 24 660 24 689 c 1,62,63
 52 703 52 703 106 703 c 1,64,65
 183 696 183 696 187 696 c 2,66,-1
 224 716 l 1,0,1
243 614 m 1,67,68
 242 515 242 515 242 480 c 1,69,-1
 232 460 l 1,70,-1
 242 421 l 1,71,72
 243 302 243 302 243 247 c 0,73,74
 243 241 243 241 249 206 c 1,75,76
 237 171 237 171 237 158 c 0,77,78
 237 76 237 76 280 76 c 2,79,-1
 299 76 l 2,80,81
 446 77 446 77 511 308 c 1,82,-1
 505 369 l 2,83,84
 505 374 505 374 511 410 c 1,85,-1
 505 437 l 1,86,87
 517 488 517 488 517 505 c 1,88,89
 468 578 468 578 443 594 c 1,90,91
 407 648 407 648 324 648 c 1,92,93
 259 633 259 633 243 614 c 1,67,68
EndSplineSet
EndChar

StartChar: E
Encoding: 69 69 38
Width: 610
GlyphClass: 2
Flags: W
LayerCount: 2
Fore
SplineSet
344 712 m 1,0,-1
 379 712 l 2,1,2
 409 712 409 712 446 714 c 0,3,4
 474 716 474 716 498 714 c 1,5,-1
 514 705 l 1,6,7
 559 705 559 705 563 616 c 1,8,-1
 581 446 l 1,9,-1
 568 439 l 1,10,-1
 533 439 l 2,11,12
 518 439 518 439 491 616 c 1,13,14
 478 616 478 616 478 637 c 1,15,-1
 472 637 l 2,16,17
 439 637 439 637 398 644 c 1,18,19
 373 637 373 637 353 637 c 1,20,21
 353 646 353 646 284 637 c 1,22,-1
 251 638 l 1,23,24
 227 632 227 632 218 613 c 1,25,-1
 220 576 l 1,26,27
 217 548 217 548 217 528 c 0,28,29
 214 480 214 480 216 426 c 1,30,31
 234 398 234 398 277 402 c 1,32,33
 350 400 350 400 350 452 c 0,34,35
 353 514 353 514 366 514 c 2,36,-1
 379 514 l 2,37,38
 391 514 391 514 407 480 c 1,39,40
 417 415 417 415 411 378 c 1,41,42
 413 322 413 322 417 269 c 1,43,44
 413 214 413 214 398 214 c 2,45,-1
 379 214 l 2,46,47
 362 214 362 214 347 317 c 1,48,49
 324 351 324 351 296 351 c 1,50,51
 227 333 227 333 227 283 c 1,52,53
 220 244 220 244 220 174 c 1,54,55
 234 85 234 85 259 85 c 0,56,57
 273 85 273 85 284 92 c 0,58,59
 288 92 288 92 322 85 c 0,60,61
 490 69 490 69 487 140 c 2,62,-1
 487 153 l 1,63,-1
 490 169 l 1,64,65
 493 255 493 255 532 283 c 1,66,-1
 557 283 l 2,67,68
 569 283 569 283 583 235 c 1,69,70
 575 115 575 115 575 92 c 0,71,72
 575 79 575 79 575 71 c 0,73,74
 552 -3 552 -3 510 -3 c 2,75,-1
 470 -3 l 2,76,77
 316 -3 316 -3 296 10 c 1,78,79
 253 -3 253 -3 220 -3 c 0,80,81
 214 -3 214 -3 214 3 c 1,82,-1
 189 -10 l 1,83,84
 178 -3 178 -3 59 0 c 0,85,86
 34 3 34 3 24 10 c 1,87,-1
 12 31 l 1,88,-1
 12 38 l 1,89,90
 28 85 28 85 88 85 c 1,91,-1
 126 78 l 1,92,93
 164 92 164 92 164 153 c 1,94,-1
 158 201 l 1,95,-1
 160 278 l 2,96,97
 158 332 158 332 160 352 c 2,98,-1
 161 544 l 1,99,100
 166 630 166 630 136 630 c 2,101,-1
 130 630 l 2,102,103
 123 630 123 630 82 632 c 2,104,-1
 44 634 l 1,105,106
 18 647 18 647 18 662 c 2,107,-1
 18 678 l 2,108,109
 18 705 18 705 81 712 c 1,110,-1
 95 705 l 1,111,-1
 132 712 l 1,112,113
 144 709 144 709 186 710 c 0,114,115
 239 710 239 710 296 712 c 2,116,-1
 304 712 l 1,117,-1
 344 712 l 1,0,-1
EndSplineSet
EndChar

StartChar: F
Encoding: 70 70 39
Width: 610
GlyphClass: 2
Flags: W
LayerCount: 2
Fore
SplineSet
477 723 m 0,0,1
 558 712 558 712 558 634 c 1,2,3
 576 593 576 593 589 498 c 1,4,-1
 589 450 l 1,5,6
 570 428 570 428 570 417 c 1,7,-1
 558 417 l 1,8,9
 501 445 501 445 501 546 c 1,10,11
 508 559 508 559 508 566 c 0,12,13
 488 648 488 648 477 648 c 0,14,15
 426 662 426 662 414 662 c 2,16,-1
 383 662 l 2,17,18
 337 659 337 659 304 641 c 1,19,-1
 272 648 l 1,20,-1
 247 648 l 2,21,22
 222 648 222 648 235 430 c 1,23,24
 245 410 245 410 352 410 c 1,25,26
 370 435 370 435 383 505 c 1,27,-1
 376 505 l 1,28,29
 389 536 389 536 401 539 c 2,30,-1
 427 539 l 2,31,32
 447 539 447 539 458 430 c 1,33,-1
 452 417 l 2,34,35
 452 409 452 409 458 396 c 1,36,-1
 452 348 l 1,37,38
 458 245 458 245 458 205 c 1,39,-1
 445 198 l 1,40,-1
 401 198 l 1,41,42
 376 212 376 212 376 239 c 0,43,44
 383 286 383 286 383 314 c 1,45,46
 355 341 355 341 339 341 c 0,47,48
 235 346 235 346 235 301 c 1,49,50
 247 273 247 273 247 253 c 2,51,-1
 241 219 l 1,52,53
 253 197 253 197 253 185 c 2,54,-1
 247 117 l 2,55,56
 247 107 247 107 272 83 c 1,57,-1
 324 89 l 1,58,-1
 330 89 l 1,59,60
 412 76 412 76 412 48 c 2,61,-1
 412 21 l 2,62,63
 411 12 411 12 381 -6 c 1,64,65
 373 -6 373 -6 318 1 c 1,66,67
 241 -13 241 -13 216 -13 c 0,68,69
 208 -13 208 -13 166 8 c 1,70,71
 136 0 136 0 116 -20 c 1,72,-1
 97 -20 l 2,73,74
 22 -20 22 -20 22 28 c 2,75,-1
 22 55 l 2,76,77
 22 77 22 77 153 89 c 1,78,-1
 160 124 l 2,79,80
 160 144 160 144 166 181 c 0,81,82
 172 233 172 233 172 484 c 1,83,-1
 147 553 l 1,84,85
 160 556 160 556 172 586 c 1,86,87
 172 629 172 629 28 655 c 1,88,-1
 22 668 l 1,89,-1
 22 696 l 2,90,91
 22 708 22 708 53 716 c 1,92,-1
 129 703 l 1,93,-1
 134 716 l 1,94,-1
 197 709 l 1,95,-1
 259 716 l 1,96,-1
 304 709 l 1,97,98
 364 716 364 716 396 716 c 1,99,-1
 427 709 l 1,100,101
 458 723 458 723 477 723 c 0,0,1
EndSplineSet
EndChar

StartChar: G
Encoding: 71 71 40
Width: 610
GlyphClass: 2
Flags: W
LayerCount: 2
Fore
SplineSet
331 715 m 1,0,1
 410 667 410 667 444 667 c 1,2,-1
 475 708 l 1,3,-1
 500 708 l 1,4,5
 519 702 519 702 519 667 c 0,6,7
 519 664 519 664 506 559 c 1,8,9
 512 466 512 466 512 443 c 1,10,-1
 506 443 l 2,11,12
 458 443 458 443 413 586 c 1,13,14
 391 613 391 613 319 654 c 1,15,-1
 231 654 l 1,16,17
 231 611 231 611 163 600 c 1,18,19
 163 588 163 588 144 565 c 1,20,-1
 144 518 l 1,21,22
 108 518 108 518 100 409 c 1,23,-1
 106 395 l 1,24,-1
 106 327 l 1,25,26
 136 157 136 157 187 157 c 1,27,28
 187 82 187 82 269 82 c 2,29,-1
 312 82 l 1,30,31
 418 106 418 106 418 157 c 1,32,33
 434 157 434 157 437 238 c 1,34,-1
 406 245 l 1,35,36
 394 238 394 238 387 238 c 0,37,38
 375 245 375 245 369 245 c 1,39,-1
 369 293 l 2,40,41
 369 304 369 304 394 320 c 1,42,-1
 456 313 l 1,43,44
 506 318 506 318 506 327 c 1,45,46
 600 311 600 311 600 279 c 2,47,-1
 600 252 l 2,48,49
 600 237 600 237 519 225 c 1,50,51
 519 211 519 211 512 211 c 1,52,53
 525 123 525 123 525 48 c 1,54,-1
 531 48 l 1,55,56
 514 2 514 2 494 -7 c 1,57,58
 452 -7 452 -7 425 27 c 1,59,-1
 418 27 l 1,60,61
 375 2 375 2 344 -27 c 1,62,63
 344 -16 344 -16 312 -7 c 0,64,65
 308 -7 308 -7 275 -14 c 1,66,67
 224 -14 224 -14 144 55 c 1,68,69
 75 136 75 136 75 164 c 0,70,71
 75 175 75 175 44 238 c 1,72,-1
 63 272 l 1,73,-1
 63 279 l 1,74,75
 50 296 50 296 50 307 c 0,76,77
 50 324 50 324 57 361 c 1,78,79
 50 388 50 388 50 416 c 1,80,81
 66 436 66 436 75 436 c 1,82,83
 75 453 75 453 63 498 c 1,84,85
 87 498 87 498 113 593 c 1,86,87
 191 688 191 688 200 688 c 1,88,89
 239 710 239 710 331 715 c 1,0,1
EndSplineSet
EndChar

StartChar: H
Encoding: 72 72 41
Width: 610
GlyphClass: 2
Flags: W
LayerCount: 2
Fore
SplineSet
278 648 m 1,0,-1
 205 642 l 2,1,2
 184 644 184 644 182 614 c 0,3,4
 180 566 180 566 185 512 c 1,5,-1
 178 478 l 1,6,-1
 191 424 l 1,7,-1
 231 416 l 1,8,9
 310 408 310 408 396 416 c 0,10,11
 433 417 433 417 433 442 c 2,12,-1
 433 630 l 1,13,14
 414 640 414 640 376 646 c 1,15,-1
 347 658 l 1,16,17
 335 698 335 698 370 708 c 1,18,19
 464 710 464 710 498 708 c 2,20,-1
 551 708 l 2,21,22
 586 707 586 707 595 680 c 1,23,-1
 595 671 l 2,24,25
 593 650 593 650 564 639 c 1,26,-1
 525 642 l 1,27,-1
 500 622 l 1,28,29
 496 442 496 442 500 308 c 2,30,-1
 502 139 l 1,31,-1
 508 86 l 1,32,-1
 530 79 l 1,33,-1
 577 73 l 1,34,35
 595 59 595 59 600 42 c 1,36,-1
 600 35 l 1,37,38
 595 1 595 1 561 -2 c 2,39,-1
 482 -3 l 2,40,41
 476 -3 476 -3 394 -2 c 0,42,43
 358 -3 358 -3 342 33 c 1,44,-1
 342 45 l 1,45,46
 364 85 364 85 426 81 c 1,47,-1
 434 118 l 1,48,-1
 434 308 l 1,49,50
 425 342 425 342 394 342 c 0,51,52
 350 346 350 346 308 346 c 0,53,54
 252 348 252 348 210 342 c 0,55,56
 184 335 184 335 184 301 c 0,57,58
 184 296 184 296 184 204 c 2,59,-1
 186 142 l 1,60,61
 176 69 176 69 243 80 c 1,62,63
 284 72 284 72 303 45 c 1,64,-1
 306 26 l 2,65,66
 311 -5 311 -5 251 -8 c 1,67,-1
 170 -2 l 2,68,69
 124 -2 124 -2 59 -10 c 1,70,71
 31 -4 31 -4 16 24 c 1,72,-1
 16 54 l 1,73,74
 38 82 38 82 66 86 c 2,75,-1
 106 93 l 1,76,77
 119 151 119 151 119 168 c 2,78,-1
 119 383 l 2,79,80
 119 444 119 444 119 451 c 2,81,-1
 114 486 l 1,82,-1
 114 637 l 1,83,-1
 62 637 l 2,84,85
 27 637 27 637 11 664 c 1,86,-1
 11 678 l 1,87,88
 18 705 18 705 62 712 c 1,89,-1
 119 711 l 2,90,91
 182 710 182 710 249 714 c 0,92,93
 280 716 280 716 290 690 c 128,-1,94
 300 664 300 664 278 648 c 1,0,-1
EndSplineSet
EndChar

StartChar: I
Encoding: 73 73 42
Width: 610
GlyphClass: 2
Flags: W
LayerCount: 2
Fore
SplineSet
444 718 m 1,0,-1
 502 710 l 1,1,2
 537 669 537 669 507 652 c 2,3,-1
 482 636 l 1,4,5
 440 621 440 621 419 628 c 128,-1,6
 398 635 398 635 394 635 c 0,7,8
 356 621 356 621 351 601 c 2,9,-1
 343 551 l 1,10,11
 338 467 338 467 338 458 c 2,12,-1
 338 451 l 2,13,14
 337 281 337 281 343 189.5 c 128,-1,15
 349 98 349 98 347 91 c 1,16,17
 361 91 361 91 372 84 c 1,18,-1
 518 73 l 1,19,-1
 528 28 l 1,20,21
 509 -13 509 -13 471 -13 c 0,22,23
 399 -13 399 -13 309 -6 c 1,24,-1
 171 -13 l 1,25,26
 72 1 72 1 72 15 c 2,27,-1
 72 35 l 2,28,29
 72 83 72 83 146 83 c 1,30,31
 262 76 262 76 262 112 c 2,32,-1
 262 118 l 2,33,34
 263 276 263 276 263 389 c 2,35,-1
 263 601 l 1,36,37
 255 635 255 635 220 635 c 2,38,-1
 207 635 l 1,39,40
 163 621 163 621 114 630 c 1,41,-1
 67 649 l 1,42,-1
 67 669 l 1,43,44
 86 719 86 719 142 719 c 2,45,-1
 248 718 l 1,46,-1
 444 718 l 1,0,-1
EndSplineSet
EndChar

StartChar: J
Encoding: 74 74 43
Width: 610
GlyphClass: 2
Flags: W
LayerCount: 2
Fore
SplineSet
540 705 m 1,0,1
 599 680 599 680 593 653 c 1,2,3
 580 637 580 637 558 630 c 1,4,-1
 504 628 l 2,5,6
 480 631 480 631 443 631 c 1,7,-1
 427 619 l 1,8,9
 418 597 418 597 420 538 c 0,10,11
 418 438 418 438 422 345 c 1,12,-1
 422 291 l 2,13,14
 423 225 423 225 423 201 c 0,15,16
 425 49 425 49 312 -9 c 1,17,-1
 276 -17 l 1,18,19
 252 -18 252 -18 234 -18 c 0,20,21
 109 -17 109 -17 72 80 c 1,22,23
 57 80 57 80 42 150 c 1,24,-1
 44 180 l 1,25,26
 56 246 56 246 119 262 c 1,27,28
 211 254 211 254 199 180 c 1,29,-1
 166 133 l 1,30,31
 152 105 152 105 193 70 c 1,32,-1
 232 56 l 1,33,34
 275 56 275 56 301 77 c 1,35,36
 336 95 336 95 343 163 c 0,37,38
 347 219 347 219 347 255 c 2,39,-1
 347 280 l 1,40,41
 351 355 351 355 345 444 c 1,42,-1
 345 538 l 2,43,44
 347 626 347 626 318 622 c 0,45,46
 298 619 298 619 283 619 c 1,47,-1
 251 631 l 1,48,-1
 237 625 l 1,49,-1
 173 637 l 1,50,-1
 173 666 l 1,51,52
 196 705 196 705 251 705 c 2,53,-1
 295 705 l 2,54,55
 309 705 309 705 322 698 c 1,56,57
 333 705 333 705 347 705 c 2,58,-1
 385 705 l 2,59,60
 392 705 392 705 392 698 c 1,61,-1
 404 705 l 1,62,-1
 424 705 l 2,63,64
 430 705 430 705 430 698 c 1,65,66
 453 709 453 709 540 705 c 1,0,1
EndSplineSet
EndChar

StartChar: K
Encoding: 75 75 44
Width: 610
GlyphClass: 2
Flags: W
LayerCount: 2
Fore
SplineSet
57 699 m 1,0,1
 116 696 116 696 156 698 c 2,2,-1
 201 699 l 2,3,4
 230 698 230 698 251 692 c 0,5,6
 266 690 266 690 279 670 c 1,7,-1
 279 657 l 1,8,9
 272 636 272 636 215 634 c 1,10,-1
 198 624 l 1,11,-1
 188 608 l 1,12,-1
 188 456 l 1,13,-1
 188 408 l 1,14,15
 198 368 198 368 234 396 c 1,16,-1
 252 418 l 2,17,18
 276 449 276 449 332 520 c 1,19,20
 384 594 384 594 396 622 c 1,21,22
 362 636 362 636 334 640 c 1,23,-1
 312 658 l 1,24,-1
 312 671 l 1,25,26
 321 699 321 699 364 694 c 2,27,-1
 402 692 l 1,28,-1
 446 692 l 1,29,-1
 509 692 l 1,30,-1
 546 699 l 1,31,32
 577 690 577 690 584 666 c 1,33,-1
 582 654 l 2,34,35
 578 632 578 632 538 622 c 1,36,37
 510 620 510 620 486 622 c 1,38,39
 462 606 462 606 460 590 c 1,40,41
 422 538 422 538 346 442 c 1,42,-1
 316 394 l 1,43,44
 436 181 436 181 504 78 c 1,45,46
 565 91 565 91 596 55 c 1,47,-1
 606 33 l 1,48,49
 603 0 603 0 571 0 c 2,50,-1
 506 0 l 1,51,52
 480 10 480 10 452 0 c 1,53,-1
 408 0 l 2,54,55
 353 -1 353 -1 334 13 c 1,56,57
 315 37 315 37 349 56 c 1,58,-1
 385 68 l 1,59,-1
 419 78 l 1,60,61
 358 198 358 198 266 336 c 1,62,-1
 236 306 l 1,63,64
 206 283 206 283 205 229 c 2,65,-1
 204 98 l 1,66,-1
 220 78 l 1,67,68
 250 66 250 66 284 62 c 1,69,-1
 294 28 l 1,70,71
 271 0 271 0 238 0 c 0,72,73
 198 0 198 0 148 5 c 1,74,75
 112 0 112 0 49 0 c 1,76,77
 24 7 24 7 22 38 c 1,78,79
 28 72 28 72 102 77 c 1,80,-1
 120 103 l 1,81,82
 136 146 136 146 132 262 c 0,83,84
 130 400 130 400 130 486 c 0,85,86
 126 576 126 576 126 583 c 0,87,88
 126 628 126 628 14 638 c 1,89,-1
 14 658 l 2,90,91
 16 688 16 688 57 699 c 1,0,1
EndSplineSet
EndChar

StartChar: L
Encoding: 76 76 45
Width: 610
GlyphClass: 2
Flags: W
LayerCount: 2
Fore
SplineSet
94 699 m 2,0,-1
 150 699 l 1,1,-1
 314 702 l 2,2,3
 422 702 422 702 426 681 c 1,4,-1
 426 674 l 2,5,6
 426 638 426 638 401 627 c 1,7,-1
 326 627 l 2,8,9
 312 627 312 627 296 628 c 0,10,11
 270 634 270 634 264 584 c 1,12,-1
 264 552 l 2,13,14
 264 480 264 480 260 383 c 0,15,16
 260 330 260 330 256 196 c 0,17,18
 256 99 256 99 305 92 c 0,19,20
 342 86 342 86 387 89 c 0,21,22
 414 87 414 87 445 96 c 1,23,24
 476 96 476 96 496 148 c 1,25,-1
 502 242 l 1,26,-1
 504 320 l 2,27,28
 506 348 506 348 528 360 c 1,29,-1
 548 360 l 1,30,31
 572 346 572 346 576 293 c 1,32,-1
 576 232 l 2,33,34
 576 174 576 174 576 114 c 1,35,-1
 574 88 l 2,36,37
 570 42 570 42 550 16 c 1,38,-1
 534 6 l 2,39,40
 512 -6 512 -6 464 14 c 1,41,42
 445 7 445 7 445 1 c 1,43,-1
 295 4 l 1,44,-1
 289 4 l 1,45,-1
 243 12 l 1,46,-1
 201 10 l 1,47,-1
 146 5 l 1,48,-1
 73 11 l 2,49,50
 40 11 40 11 35 31 c 1,51,-1
 35 65 l 1,52,53
 86 106 86 106 184 100 c 1,54,-1
 188 140 l 2,55,56
 189 170 189 170 189 185 c 2,57,-1
 187 304 l 1,58,-1
 185 559 l 1,59,-1
 185 572 l 1,60,-1
 183 606 l 1,61,62
 160 626 160 626 120 627 c 0,63,64
 94 628 94 628 66 628 c 0,65,66
 34 630 34 630 28 654 c 1,67,-1
 29 667 l 2,68,69
 34 702 34 702 94 699 c 2,0,-1
EndSplineSet
EndChar

StartChar: M
Encoding: 77 77 46
Width: 610
GlyphClass: 2
Flags: W
LayerCount: 2
Fore
SplineSet
470 722 m 2,0,-1
 559 722 l 2,1,2
 595 722 595 722 604 694 c 1,3,-1
 604 676 l 1,4,5
 592 640 592 640 539 650 c 1,6,-1
 533 634 l 1,7,-1
 533 441 l 1,8,-1
 533 143 l 2,9,10
 530 95 530 95 553 65 c 1,11,12
 601 53 601 53 601 33 c 2,13,-1
 601 21 l 2,14,15
 601 4 601 4 579 -2 c 1,16,17
 440 -14 440 -14 388 7 c 1,18,-1
 389 51 l 1,19,20
 439 58 439 58 467 81 c 1,21,-1
 467 151 l 1,22,-1
 467 462 l 1,23,-1
 466 619 l 1,24,-1
 446 619 l 1,25,-1
 381 321 l 2,26,27
 374 280 374 280 365 246 c 0,28,29
 351 187 351 187 324 175 c 1,30,-1
 311 175 l 1,31,32
 273 194 273 194 262 245 c 2,33,-1
 230 381 l 1,34,-1
 182 593 l 1,35,36
 155 640 155 640 149 586 c 1,37,-1
 148 530 l 1,38,-1
 147 148 l 1,39,-1
 147 122 l 1,40,41
 151 79 151 79 172 66 c 1,42,43
 223 61 223 61 223 36 c 2,44,-1
 223 22 l 2,45,46
 223 12 223 12 195 -7 c 1,47,-1
 114 -4 l 1,48,49
 92 4 92 4 70 -4 c 1,50,-1
 32 -7 l 1,51,-1
 5 6 l 1,52,-1
 7 50 l 1,53,54
 78 53 78 53 78 87 c 0,55,56
 78 116 78 116 82 136 c 1,57,-1
 82 521 l 2,58,59
 85 609 85 609 76 640 c 1,60,61
 49 640 49 640 15 659 c 1,62,-1
 8 680 l 1,63,64
 10 706 10 706 35 718 c 1,65,-1
 124 722 l 1,66,67
 179 720 179 720 197 709 c 0,68,69
 209 700 209 700 217 687 c 2,70,-1
 228 667 l 1,71,-1
 244 609 l 1,72,-1
 266 517 l 1,73,-1
 311 327 l 1,74,-1
 321 327 l 1,75,76
 331 373 331 373 363 526 c 2,77,-1
 394 669 l 1,78,79
 413 724 413 724 470 722 c 2,0,-1
EndSplineSet
EndChar

StartChar: N
Encoding: 78 78 47
Width: 610
GlyphClass: 2
Flags: W
LayerCount: 2
Fore
SplineSet
13 34 m 1,0,1
 20 63 20 63 36.5 66 c 128,-1,2
 53 69 53 69 71 71 c 2,3,-1
 90 70 l 1,4,5
 106 74 106 74 111 85 c 0,6,7
 115 95 115 95 116.5 101 c 128,-1,8
 118 107 118 107 120 162 c 2,9,-1
 120 566 l 1,10,-1
 112 598 l 2,11,12
 102 626 102 626 60.5 630.5 c 128,-1,13
 19 635 19 635 13 661 c 0,14,15
 10 683 10 683 15 690 c 128,-1,16
 20 697 20 697 46 705 c 1,17,-1
 174 705 l 1,18,-1
 204 696 l 1,19,-1
 231 673 l 1,20,-1
 273 574 l 1,21,-1
 413 177 l 2,22,23
 426 150 426 150 439 150 c 128,-1,24
 452 150 452 150 450 210 c 2,25,-1
 448 321 l 1,26,-1
 442 611 l 1,27,-1
 438 634 l 1,28,-1
 419 641 l 1,29,-1
 373 646 l 1,30,31
 350 653 350 653 349 677 c 0,32,33
 349 703 349 703 379 708 c 0,34,35
 392 708 392 708 429.5 707.5 c 128,-1,36
 467 707 467 707 489 707 c 2,37,-1
 571 707 l 2,38,39
 591 707 591 707 599 699.5 c 128,-1,40
 607 692 607 692 608 676 c 1,41,42
 603 651 603 651 583 647.5 c 128,-1,43
 563 644 563 644 545 642 c 128,-1,44
 527 640 527 640 513 627 c 1,45,-1
 511 607 l 1,46,-1
 512 86 l 1,47,-1
 510 30 l 1,48,-1
 498 2 l 1,49,-1
 473 -8 l 1,50,51
 441 -8 441 -8 426 4 c 0,52,53
 419 11 419 11 411 21 c 0,54,55
 386 62 386 62 317.5 251.5 c 128,-1,56
 249 441 249 441 245 450 c 0,57,58
 206 589 206 589 195 589 c 2,59,-1
 189 589 l 1,60,-1
 184 572 l 1,61,-1
 184 324 l 1,62,-1
 188 116 l 2,63,64
 191 96 191 96 199.5 85.5 c 128,-1,65
 208 75 208 75 218 71 c 2,66,-1
 268 61 l 1,67,68
 284 52 284 52 286 28 c 0,69,70
 285 18 285 18 284 14.5 c 128,-1,71
 283 11 283 11 277 2 c 1,72,73
 262 -4 262 -4 252.5 -3.5 c 128,-1,74
 243 -3 243 -3 229 -1 c 0,75,76
 194 0 194 0 125 -1 c 2,77,-1
 38 -1 l 1,78,79
 13 7 13 7 13 34 c 1,0,1
EndSplineSet
EndChar

StartChar: O
Encoding: 79 79 48
Width: 610
GlyphClass: 2
Flags: W
LayerCount: 2
Fore
SplineSet
309 719 m 1,0,1
 406 702 406 702 437 657 c 1,2,3
 499 593 499 593 534 487 c 0,4,5
 543 453 543 453 550 339 c 0,6,7
 550 327 550 327 548.5 298.5 c 128,-1,8
 547 270 547 270 538 230 c 0,9,10
 531 190 531 190 506 137 c 1,11,-1
 512 136 l 1,12,13
 447 28 447 28 334 -5 c 1,14,15
 266 -11 266 -11 242 3 c 1,16,17
 184 14 184 14 128 87 c 1,18,19
 75 141 75 141 49 311 c 0,20,21
 50 318 50 318 47 378 c 1,22,23
 57 558 57 558 148 652 c 1,24,25
 201 670 201 670 202 683 c 0,26,27
 214 724 214 724 309 719 c 1,0,1
165 564 m 1,28,-1
 145 508 l 2,29,30
 145 497 145 497 138.5 470.5 c 128,-1,31
 132 444 132 444 129 391 c 2,32,-1
 130 334 l 1,33,-1
 129 327 l 1,34,35
 132 276 132 276 151 208 c 1,36,37
 186 119 186 119 263 96 c 1,38,-1
 294 91 l 1,39,40
 363 85 363 85 411 143 c 1,41,-1
 444 189 l 1,42,43
 451 220 451 220 457 236 c 0,44,45
 470 278 470 278 470 310 c 0,46,47
 467 507 467 507 406 573 c 1,48,49
 376 622 376 622 317 646 c 1,50,51
 246 650 246 650 205 610 c 1,52,-1
 165 564 l 1,28,-1
EndSplineSet
EndChar

StartChar: P
Encoding: 80 80 49
Width: 610
GlyphClass: 2
Flags: W
LayerCount: 2
Fore
SplineSet
136 702 m 2,0,-1
 149 701 l 2,1,2
 184 698 184 698 192 690 c 1,3,4
 226 695 226 695 248 693 c 2,5,-1
 354 694 l 2,6,7
 360 694 360 694 360 687 c 1,8,-1
 373 693 l 1,9,-1
 385 692 l 1,10,-1
 428 682 l 1,11,-1
 429 688 l 1,12,13
 450 684 450 684 502 637 c 1,14,15
 531 596 531 596 549 565 c 0,16,17
 561 543 561 543 571 491 c 1,18,-1
 568 450 l 2,19,20
 559 377 559 377 495 315 c 0,21,22
 472 290 472 290 411 278 c 1,23,24
 367 274 367 274 368 288 c 1,25,26
 330 277 330 277 329 271 c 1,27,-1
 317 278 l 1,28,-1
 311 278 l 2,29,30
 296 280 296 280 254 269 c 1,31,32
 251 100 251 100 297 88 c 1,33,-1
 335 92 l 1,34,-1
 353 91 l 1,35,-1
 383 68 l 1,36,-1
 396 74 l 1,37,38
 420 62 420 62 419 52 c 2,39,-1
 418 38 l 1,40,41
 375 -13 375 -13 346 -11 c 0,42,43
 324 -9 324 -9 213 -12 c 1,44,-1
 157 -1 l 2,45,46
 151 -1 151 -1 138 -7 c 1,47,48
 21 0 21 0 24 41 c 2,49,-1
 26 68 l 1,50,51
 59 93 59 93 91 91 c 2,52,-1
 119 90 l 1,53,54
 133 101 133 101 143 94 c 1,55,56
 175 91 175 91 185 146 c 1,57,-1
 185 268 l 2,58,59
 186 283 186 283 185.5 378 c 128,-1,60
 185 473 185 473 194 472 c 1,61,62
 192 499 192 499 184 500 c 1,63,-1
 193 547 l 1,64,-1
 196 581 l 1,65,-1
 187 629 l 1,66,-1
 162 631 l 2,67,68
 63 639 63 639 64 659 c 2,69,-1
 65 666 l 1,70,71
 107 704 107 704 136 702 c 2,0,-1
312 629 m 1,72,-1
 268 623 l 1,73,74
 267 610 267 610 261 610 c 1,75,76
 269 565 269 565 265 463 c 1,77,-1
 265 456 l 2,78,79
 264 440 264 440 268 397 c 1,80,81
 268 343 268 343 352 356 c 1,82,-1
 373 356 l 1,83,84
 457 366 457 366 472 417 c 1,85,-1
 478 416 l 1,86,-1
 474 451 l 1,87,88
 476 471 476 471 490 497 c 1,89,90
 485 589 485 589 380 627 c 1,91,92
 356 626 356 626 312 629 c 1,72,-1
EndSplineSet
EndChar

StartChar: Q
Encoding: 81 81 50
Width: 610
GlyphClass: 2
Flags: W
LayerCount: 2
Fore
SplineSet
319 719 m 2,0,-1
 332 719 l 1,1,2
 380 704 380 704 416 679 c 1,3,4
 438 651 438 651 459 624 c 0,5,6
 538 532 538 532 538 335 c 1,7,8
 543 260 543 260 514 172 c 1,9,10
 449 35 449 35 409 35 c 1,11,-1
 409 9 l 2,12,13
 409 -7 409 -7 441 -12 c 0,14,15
 447 -12 447 -12 478 15 c 1,16,-1
 510 15 l 2,17,18
 518 15 518 15 547 -26 c 1,19,-1
 547 -46 l 2,20,21
 547 -108 547 -108 484 -128 c 1,22,23
 484 -148 484 -148 453 -148 c 1,24,25
 361 -121 361 -121 347 -80 c 1,26,27
 335 -73 335 -73 328 -73 c 1,28,-1
 328 -60 l 1,29,-1
 322 -12 l 1,30,-1
 303 -12 l 2,31,32
 289 -12 289 -12 279 -5 c 1,33,34
 267 -12 267 -12 253 -12 c 2,35,-1
 235 -12 l 1,36,37
 107 88 107 88 107 131 c 1,38,39
 87 131 87 131 65 267 c 0,40,41
 65 274 65 274 71 274 c 1,42,43
 59 299 59 299 59 328 c 2,44,-1
 59 349 l 1,45,46
 64 543 64 543 151 637 c 0,47,48
 208 700 208 700 294 717 c 0,49,50
 309 719 309 719 319 719 c 2,0,-1
132 301 m 1,51,52
 146 165 146 165 197 165 c 2,53,-1
 203 165 l 1,54,55
 212 206 212 206 297 206 c 0,56,57
 332 206 332 206 385 152 c 1,58,59
 427 156 427 156 453 245 c 0,60,61
 472 320 472 320 468 397 c 1,62,63
 458 471 458 471 427 549 c 1,64,65
 380 634 380 634 311 644 c 1,66,67
 216 633 216 633 178 549 c 1,68,69
 146 498 146 498 132 380 c 1,70,-1
 132 301 l 1,51,52
279 141 m 1,71,-1
 252 102 l 1,72,-1
 252 92 l 2,73,74
 252 79 252 79 296 54 c 1,75,76
 310 63 310 63 330 63 c 1,77,-1
 330 113 l 1,78,79
 320 141 320 141 279 141 c 1,71,-1
EndSplineSet
EndChar

StartChar: R
Encoding: 82 82 51
Width: 610
GlyphClass: 2
Flags: W
LayerCount: 2
Fore
SplineSet
273 700 m 0,0,1
 451 705 451 705 496 623 c 2,2,-1
 515 588 l 1,3,-1
 533 543 l 1,4,5
 533 503 533 503 533 494 c 0,6,7
 509 389 509 389 406 341 c 1,8,-1
 430 313 l 2,9,10
 467 270 467 270 473 201 c 1,11,12
 484 143 484 143 494 106.5 c 128,-1,13
 504 70 504 70 545 78 c 1,14,15
 592 108 592 108 612 71 c 1,16,-1
 616 45 l 1,17,18
 605 0 605 0 545 -11 c 0,19,20
 517 -13 517 -13 486 -11 c 1,21,-1
 458 1 l 2,22,23
 427 15 427 15 408 82 c 1,24,25
 395 179 395 179 374 244 c 1,26,-1
 334 303 l 1,27,-1
 304 324 l 1,28,29
 267 327 267 327 232 320 c 1,30,31
 202 324 202 324 202 263 c 0,32,33
 201 121 201 121 201 108 c 0,34,35
 202 65 202 65 292 70 c 1,36,-1
 306 37 l 1,37,38
 292 -2 292 -2 261 -2 c 0,39,40
 154 3 154 3 142 3 c 0,41,42
 132 3 132 3 72 4 c 0,43,44
 43 4 43 4 36 4 c 1,45,-1
 11 26 l 1,46,-1
 13 48 l 2,47,48
 18 79 18 79 75 76 c 1,49,50
 121 82 121 82 123 115 c 0,51,52
 127 261 127 261 126.5 400 c 128,-1,53
 126 539 126 539 125 609 c 1,54,55
 45 596 45 596 23 633 c 1,56,57
 19 655 19 655 26 665 c 2,58,-1
 56 691 l 1,59,-1
 69 691 l 1,60,-1
 106 685 l 1,61,62
 119 696 119 696 273 700 c 0,0,1
200 596 m 1,63,-1
 206 569 l 1,64,-1
 200 508 l 1,65,66
 212 456 212 456 212 446 c 2,67,-1
 206 432 l 1,68,69
 212 406 212 406 239 406 c 1,70,71
 279 399 279 399 291 399 c 0,72,73
 321 406 321 406 353 406 c 1,74,75
 397 424 397 424 428 458 c 0,76,77
 447 484 447 484 447 528 c 1,78,79
 436 623 436 623 353 630 c 0,80,81
 290 637 290 637 252 630 c 0,82,83
 200 618 200 618 200 596 c 1,63,-1
EndSplineSet
EndChar

StartChar: S
Encoding: 83 83 52
Width: 610
GlyphClass: 2
Flags: W
LayerCount: 2
Fore
SplineSet
280 717 m 0,0,1
 346 720 346 720 394 691 c 2,2,-1
 415 678 l 1,3,4
 424 714 424 714 443 719 c 1,5,-1
 456 719 l 1,6,7
 493 697 493 697 488 644 c 2,8,-1
 487 630 l 1,9,-1
 487 616 l 1,10,11
 500 492 500 492 500 480 c 1,12,13
 493 468 493 468 483 465 c 2,14,-1
 472 465 l 1,15,16
 414 484 414 484 410 599 c 1,17,18
 384 632 384 632 340 647 c 1,19,-1
 316 652 l 2,20,21
 289 658 289 658 256 650 c 0,22,23
 167 628 167 628 157 549 c 0,24,25
 156 535 156 535 156 528 c 0,26,27
 156 449 156 449 372 398 c 0,28,29
 424 382 424 382 456 351 c 0,30,31
 498 312 498 312 512 256 c 1,32,-1
 517 225 l 2,33,34
 520 200 520 200 517 180 c 0,35,36
 511 110 511 110 454 47 c 1,37,38
 407 3 407 3 356 3 c 1,39,40
 356 -2 356 -2 312 -8 c 1,41,42
 194 -3 194 -3 169 38 c 1,43,-1
 144 38 l 1,44,-1
 106 3 l 1,45,-1
 82 3 l 1,46,47
 56 15 56 15 56 51 c 1,48,49
 65 112 65 112 69 214 c 1,50,-1
 69 262 l 2,51,52
 71 276 71 276 82 276 c 2,53,-1
 94 276 l 1,54,55
 131 259 131 259 169 140 c 1,56,57
 205 84 205 84 270 81 c 2,58,-1
 284 81 l 1,59,60
 413 87 413 87 431 181 c 1,61,-1
 431 190 l 1,62,63
 440 285 440 285 335 327 c 0,64,65
 310 336 310 336 290 343 c 0,66,67
 201 371 201 371 141 415 c 0,68,69
 84 453 84 453 90 559 c 1,70,71
 108 656 108 656 200 698 c 0,72,73
 233 713 233 713 280 717 c 0,0,1
EndSplineSet
EndChar

StartChar: T
Encoding: 84 84 53
Width: 610
GlyphClass: 2
Flags: W
LayerCount: 2
Fore
SplineSet
285 707 m 2,0,1
 326 714 326 714 353 705 c 1,2,-1
 453 718 l 1,3,4
 521 708 521 708 521 664 c 1,5,-1
 524 654 l 2,6,7
 528 636 528 636 534 576 c 2,8,-1
 546 479 l 1,9,-1
 556 410 l 1,10,11
 550 371 550 371 529 369 c 2,12,-1
 510 369 l 1,13,14
 480 389 480 389 474 414 c 128,-1,15
 468 439 468 439 465 466 c 2,16,-1
 459 514 l 1,17,-1
 453 576 l 2,18,19
 445 655 445 655 381 647 c 0,20,21
 328 642 328 642 328 596 c 0,22,23
 329 377 329 377 330 327 c 0,24,25
 328 252 328 252 331 202 c 2,26,-1
 334 158 l 1,27,-1
 340 125 l 2,28,29
 341 99 341 99 376 97 c 0,30,31
 429 96 429 96 465 91 c 0,32,33
 527 86 527 86 520 28 c 1,34,-1
 491 3 l 1,35,36
 396 12 396 12 396 17 c 1,37,-1
 342 10 l 2,38,39
 300 3 300 3 265 3 c 0,40,41
 160 10 160 10 122 10 c 1,42,43
 84 18 84 18 85 49 c 0,44,45
 84 84 84 84 161 90 c 0,46,47
 197 90 197 90 219 91 c 0,48,49
 267 92 267 92 263 230 c 0,50,51
 262 355 262 355 259 514 c 2,52,-1
 259 548 l 2,53,54
 259 577 259 577 259 596 c 0,55,56
 262 644 262 644 211 644 c 0,57,58
 140 643 140 643 140 548 c 0,59,60
 140 538 140 538 128 439 c 1,61,-1
 128 398 l 1,62,63
 106 357 106 357 97 357 c 2,64,-1
 91 357 l 1,65,66
 53 375 53 375 53 384 c 2,67,-1
 53 398 l 1,68,69
 65 444 65 444 64 514 c 0,70,71
 67 555 67 555 73 639 c 2,72,-1
 78 684 l 1,73,-1
 97 698 l 2,74,75
 106 700 106 700 138 703 c 0,76,77
 176 705 176 705 203 705 c 2,78,-1
 222 705 l 2,79,80
 236 705 236 705 273 704 c 1,81,-1
 285 707 l 2,0,1
EndSplineSet
EndChar

StartChar: U
Encoding: 85 85 54
Width: 610
GlyphClass: 2
Flags: W
LayerCount: 2
Fore
SplineSet
423 698 m 1,0,1
 544 698 544 698 568 686 c 2,2,-1
 588 672 l 1,3,4
 599 641 599 641 572 628 c 1,5,6
 552 628 552 628 519 622 c 0,7,8
 492 615 492 615 493 588 c 0,9,10
 494 557 494 557 493 523 c 0,11,12
 493 475 493 475 493 427 c 0,13,14
 493 380 493 380 493 366 c 0,15,16
 493 361 493 361 494 331 c 0,17,18
 495 284 495 284 495 250 c 0,19,20
 493 138 493 138 461 75 c 0,21,22
 426 7 426 7 362 -9 c 0,23,24
 323 -18 323 -18 278 -16 c 0,25,26
 174 -3 174 -3 146 44 c 1,27,28
 114 88 114 88 109 145 c 2,29,-1
 106 169 l 2,30,31
 104 187 104 187 105 215 c 2,32,-1
 106 266 l 1,33,-1
 109 379 l 1,34,-1
 110 462 l 1,35,-1
 112 585 l 1,36,37
 108 625 108 625 30 626 c 1,38,-1
 14 647 l 1,39,40
 13 687 13 687 49 693 c 1,41,-1
 71 693 l 1,42,-1
 106 695 l 1,43,-1
 186 695 l 1,44,-1
 238 693 l 2,45,46
 267 692 267 692 280 666 c 1,47,-1
 280 655 l 2,48,49
 280 640 280 640 267 632 c 0,50,51
 248 626 248 626 216 627 c 1,52,53
 183 620 183 620 180 588 c 0,54,55
 180 512 180 512 180 495 c 0,56,57
 180 475 180 475 174 475 c 1,58,-1
 180 441 l 1,59,60
 175 354 175 354 175 331 c 0,61,62
 174 268 174 268 175 239 c 2,63,-1
 175 197 l 1,64,65
 189 74 189 74 287 66 c 1,66,67
 388 63 388 63 418 173 c 0,68,69
 424 206 424 206 424 236 c 2,70,-1
 424 262 l 1,71,-1
 426 582 l 2,72,73
 428 607 428 607 415 619 c 1,74,75
 400 623 400 623 381 623 c 0,76,77
 342 630 342 630 335 652 c 1,78,-1
 335 662 l 2,79,80
 336 694 336 694 423 698 c 1,0,1
EndSplineSet
EndChar

StartChar: V
Encoding: 86 86 55
Width: 610
GlyphClass: 2
Flags: W
LayerCount: 2
Fore
SplineSet
233 713 m 1,0,1
 286 699 286 699 267 661 c 1,2,-1
 248 650 l 1,3,4
 233 650 233 650 185 636 c 1,5,-1
 187 619 l 1,6,7
 221 438 221 438 251 309 c 128,-1,8
 281 180 281 180 294 162 c 1,9,-1
 304 162 l 1,10,11
 322 199 322 199 367 352 c 128,-1,12
 412 505 412 505 443 631 c 1,13,14
 434 646 434 646 356 661 c 1,15,-1
 351 682 l 1,16,17
 356 708 356 708 402 712 c 0,18,19
 429 715 429 715 485 709 c 0,20,21
 502 708 502 708 562 713 c 1,22,23
 605 708 605 708 609 676 c 1,24,25
 607 633 607 633 521 633 c 1,26,27
 454 433 454 433 345 21 c 1,28,29
 321 -32 321 -32 260 -4 c 1,30,-1
 234 57 l 1,31,-1
 121 561 l 1,32,-1
 103 614 l 1,33,34
 80 649 80 649 13 646 c 1,35,-1
 2 661 l 1,36,-1
 2 677 l 1,37,38
 6 706 6 706 53 709 c 0,39,40
 177 718 177 718 233 713 c 1,0,1
EndSplineSet
EndChar

StartChar: W
Encoding: 87 87 56
Width: 610
GlyphClass: 2
Flags: W
LayerCount: 2
Fore
SplineSet
542 708 m 1,0,1
 608 700 608 700 611 681 c 2,2,-1
 611 661 l 1,3,4
 545 654 545 654 542 612 c 2,5,-1
 452 21 l 2,6,7
 440 -32 440 -32 391 -8 c 1,8,9
 365 26 365 26 358 76 c 2,10,-1
 350 123 l 1,11,12
 314 308 314 308 311.5 332 c 128,-1,13
 309 356 309 356 302 381 c 1,14,-1
 294 379 l 1,15,-1
 270 253 l 2,16,17
 246 138 246 138 235 68 c 0,18,19
 222 -21 222 -21 191 -19 c 0,20,21
 149 -16 149 -16 140 62 c 2,22,-1
 107 322 l 1,23,-1
 65 612 l 2,24,25
 62 640 62 640 1 656 c 1,26,-1
 1 676 l 2,27,28
 3 702 3 702 84 709 c 1,29,30
 226 713 226 713 200 655 c 1,31,-1
 131 629 l 1,32,33
 141 518 141 518 171 311 c 1,34,-1
 187 179 l 1,35,-1
 198 179 l 1,36,37
 234 357 234 357 274 522 c 0,38,39
 283 545 283 545 300 550 c 1,40,-1
 310 549 l 1,41,42
 342 540 342 540 349 470 c 1,43,-1
 383 277 l 1,44,-1
 403 173 l 2,45,46
 411 152 411 152 417 179 c 2,47,-1
 459 462 l 2,48,49
 478 588 478 588 478.5 596.5 c 128,-1,50
 479 605 479 605 477 615 c 0,51,52
 471 637 471 637 412 652 c 1,53,-1
 400 671 l 1,54,55
 396 710 396 710 492 708 c 2,56,-1
 542 708 l 1,0,1
EndSplineSet
EndChar

StartChar: X
Encoding: 88 88 57
Width: 610
GlyphClass: 2
Flags: W
LayerCount: 2
Fore
SplineSet
230 122 m 1,0,-1
 230 95 l 1,1,2
 257 95 257 95 291 54 c 1,3,-1
 294 27 l 1,4,5
 278 8 278 8 160 8 c 0,6,7
 123 8 123 8 76 10 c 128,-1,8
 29 12 29 12 20 15 c 1,9,-1
 10 27 l 1,10,11
 5 41 5 41 15 60 c 1,12,-1
 39 77 l 1,13,-1
 84 86 l 1,14,15
 132 82 132 82 156 128 c 0,16,17
 184 176 184 176 216 245 c 0,18,19
 248 308 248 308 268 347 c 1,20,21
 274 374 274 374 279 374 c 1,22,-1
 234 478 l 1,23,-1
 194 559 l 2,24,25
 160 633 160 633 129 644 c 1,26,27
 89 647 89 647 62 647 c 1,28,-1
 50 665 l 1,29,-1
 52 680 l 2,30,31
 56 698 56 698 74 709 c 1,32,-1
 113 712 l 1,33,34
 154 709 154 709 192 715 c 1,35,36
 260 715 260 715 285 698 c 1,37,38
 309 688 309 688 290 660 c 1,39,-1
 241 647 l 1,40,-1
 229 654 l 1,41,42
 229 650 229 650 225 633 c 1,43,44
 269 513 269 513 313 459 c 0,45,46
 326 449 326 449 346 479 c 0,47,48
 378 533 378 533 390 566 c 2,49,-1
 409 613 l 1,50,-1
 417 637 l 1,51,52
 373 633 373 633 346 667 c 1,53,-1
 346 680 l 1,54,55
 352 702 352 702 389 709 c 1,56,57
 440 713 440 713 497 706 c 1,58,59
 531 713 531 713 568 702 c 1,60,-1
 585 682 l 1,61,-1
 583 658 l 1,62,63
 578 648 578 648 553 637 c 1,64,65
 519 640 519 640 503 640 c 1,66,67
 473 630 473 630 456 581 c 1,68,69
 431 529 431 529 375 412 c 0,70,71
 366 395 366 395 366 388 c 0,72,73
 369 330 369 330 421 225 c 1,74,75
 480 81 480 81 542 81 c 0,76,77
 594 79 594 79 608 47 c 1,78,-1
 608 34 l 1,79,80
 587 1 587 1 522 2 c 2,81,-1
 447 2 l 1,82,83
 353 -6 353 -6 325 22 c 1,84,85
 315 59 315 59 366 80 c 2,86,-1
 398 94 l 1,87,88
 347 249 347 249 318 293 c 1,89,90
 305 284 305 284 281 231 c 0,91,92
 257 183 257 183 230 122 c 1,0,-1
EndSplineSet
EndChar

StartChar: Y
Encoding: 89 89 58
Width: 610
GlyphClass: 2
Flags: W
LayerCount: 2
Fore
SplineSet
98 708 m 1,0,-1
 173 701 l 2,1,2
 178 701 178 701 223 708 c 1,3,4
 251 699 251 699 267 653 c 1,5,6
 248 633 248 633 198 626 c 1,7,-1
 198 605 l 1,8,9
 253 497 253 497 298 383 c 1,10,-1
 308 384 l 1,11,-1
 397 599 l 1,12,-1
 397 626 l 1,13,14
 335 641 335 641 335 653 c 2,15,-1
 335 667 l 2,16,17
 335 692 335 692 404 708 c 1,18,-1
 435 701 l 1,19,20
 499 708 499 708 535 708 c 0,21,22
 574 708 574 708 579 653 c 0,23,24
 579 643 579 643 554 626 c 1,25,26
 538 626 538 626 485 640 c 1,27,28
 465 599 465 599 438.5 536 c 128,-1,29
 412 473 412 473 379 401 c 1,30,31
 341 331 341 331 335 245 c 1,32,33
 338 105 338 105 359 95 c 1,34,35
 498 86 498 86 498 36 c 2,36,-1
 498 28 l 2,37,38
 497 17 497 17 489 7 c 1,39,40
 468 0 468 0 429 3 c 0,41,42
 330 8 330 8 267 4 c 1,43,-1
 217 4 l 1,44,-1
 165 3 l 2,45,46
 141 4 141 4 124 22 c 0,47,48
 104 46 104 46 136 68 c 0,49,50
 156 82 156 82 184 81 c 0,51,52
 216 83 216 83 237 91 c 0,53,54
 264 98 264 98 267 149 c 2,55,-1
 267 245 l 2,56,57
 267 266 267 266 267 292 c 0,58,59
 267 323 267 323 220 412 c 1,60,61
 210 446 210 446 173 503 c 1,62,63
 173 528 173 528 135 585 c 1,64,65
 135 618 135 618 104 633 c 1,66,-1
 73 626 l 1,67,-1
 67 626 l 2,68,69
 21 626 21 626 17 646 c 1,70,-1
 17 674 l 2,71,72
 17 690 17 690 98 708 c 1,0,-1
EndSplineSet
EndChar

StartChar: Z
Encoding: 90 90 59
Width: 610
GlyphClass: 2
Flags: W
LayerCount: 2
Fore
SplineSet
452 693 m 1,0,1
 503 687 503 687 505 650 c 2,2,-1
 505 641 l 2,3,4
 505 598 505 598 438 496 c 1,5,6
 393 436 393 436 178 105 c 1,7,-1
 181 92 l 1,8,9
 188 85 188 85 207 82 c 2,10,-1
 369 82 l 2,11,12
 444 85 444 85 451 215 c 1,13,14
 451 310 451 310 501 310 c 1,15,16
 532 301 532 301 532 263 c 1,17,18
 520 197 520 197 520 188 c 2,19,-1
 520 106 l 1,20,-1
 520 52 l 1,21,22
 502 -3 502 -3 433 -3 c 1,23,-1
 376 4 l 1,24,25
 175 3 175 3 166 3 c 0,26,27
 115 -3 115 -3 82 -1 c 1,28,29
 26 31 26 31 84 103 c 1,30,-1
 399 553 l 2,31,32
 414 579 414 579 418 594 c 1,33,-1
 418 607 l 2,34,35
 417 626 417 626 380 627 c 0,36,37
 312 628 312 628 281 628 c 128,-1,38
 250 628 250 628 206 627 c 0,39,40
 168 626 168 626 156 566 c 1,41,42
 149 437 149 437 118 437 c 2,43,-1
 99 437 l 2,44,45
 85 437 85 437 81 532 c 1,46,47
 86 621 86 621 105 669 c 1,48,49
 120 694 120 694 157 692 c 2,50,-1
 238 689 l 1,51,52
 323 694 323 694 397 691 c 1,53,-1
 452 693 l 1,0,1
EndSplineSet
EndChar

StartChar: bracketleft
Encoding: 91 91 60
Width: 610
GlyphClass: 2
Flags: W
LayerCount: 2
Fore
SplineSet
169 -200 m 1,0,1
 160 -185 160 -185 160 -170 c 128,-1,2
 160 -155 160 -155 163 -148 c 2,3,-1
 164 308 l 2,4,5
 162 555 162 555 165 622 c 1,6,-1
 160 764 l 2,7,8
 159 767 159 767 159 769 c 2,9,-1
 159 777 l 2,10,11
 160 782 160 782 165 810 c 1,12,-1
 181 826 l 1,13,14
 198 833 198 833 222 814 c 1,15,16
 235 815 235 815 252 818 c 2,17,-1
 399 819 l 1,18,-1
 405 823 l 1,19,20
 447 823 447 823 447 793 c 2,21,-1
 447 785 l 2,22,23
 447 767 447 767 438 752 c 1,24,-1
 248 750 l 1,25,-1
 246 750 l 1,26,-1
 237 752 l 1,27,28
 239 729 239 729 233 652 c 1,29,-1
 237 190 l 2,30,31
 237 -29 237 -29 236.5 -51.5 c 128,-1,32
 236 -74 236 -74 248 -130 c 1,33,-1
 250 -130 l 1,34,35
 256 -134 256 -134 259 -134 c 2,36,-1
 405 -128 l 1,37,38
 431 -120 431 -120 454 -133 c 0,39,40
 462 -137 462 -137 474 -171 c 1,41,-1
 474 -180 l 2,42,43
 474 -187 474 -187 457 -200 c 1,44,-1
 451 -196 l 1,45,46
 441 -196 441 -196 169 -200 c 1,0,1
EndSplineSet
EndChar

StartChar: backslash
Encoding: 92 92 61
Width: 610
GlyphClass: 2
Flags: W
LayerCount: 2
Fore
SplineSet
62 831 m 1,0,-1
 93 777 l 1,1,-1
 609 -133 l 1,2,-1
 605 -187 l 1,3,4
 594 -206 594 -206 584 -203 c 2,5,-1
 578 -202 l 1,6,-1
 537 -155 l 1,7,8
 47 705 47 705 47 718 c 1,9,10
 22 722 22 722 13 817 c 1,11,12
 16 843 16 843 35 840 c 2,13,-1
 49 839 l 1,14,-1
 62 831 l 1,0,-1
EndSplineSet
EndChar

StartChar: bracketright
Encoding: 93 93 62
Width: 610
GlyphClass: 2
Flags: W
LayerCount: 2
Fore
SplineSet
429 -200 m 1,0,1
 152 -196 152 -196 142 -196 c 1,2,-1
 136 -200 l 1,3,4
 119 -187 119 -187 119 -180 c 2,5,-1
 119 -166 l 1,6,7
 131 -137 131 -137 139 -133 c 0,8,9
 162 -120 162 -120 188 -128 c 1,10,-1
 339 -134 l 2,11,12
 342 -134 342 -134 348 -130 c 1,13,-1
 350 -130 l 1,14,15
 362 -74 362 -74 361.5 -51.5 c 128,-1,16
 361 -29 361 -29 361 195 c 2,17,-1
 365 655 l 1,18,19
 359 729 359 729 361 752 c 1,20,-1
 352 750 l 1,21,-1
 350 750 l 1,22,-1
 155 752 l 1,23,24
 146 767 146 767 146 785 c 2,25,-1
 146 793 l 2,26,27
 146 823 146 823 188 823 c 1,28,-1
 194 819 l 1,29,-1
 341 818 l 2,30,31
 358 815 358 815 371 814 c 1,32,33
 395 833 395 833 417 826 c 1,34,-1
 433 810 l 1,35,36
 438 782 438 782 439 777 c 2,37,-1
 439 769 l 2,38,39
 439 767 439 767 438 764 c 2,40,-1
 433 622 l 1,41,42
 436 555 436 555 434 308 c 2,43,-1
 435 -148 l 2,44,45
 438 -155 438 -155 438 -170 c 128,-1,46
 438 -185 438 -185 429 -200 c 1,0,1
EndSplineSet
EndChar

StartChar: asciicircum
Encoding: 94 94 63
Width: 610
GlyphClass: 2
Flags: W
LayerCount: 2
Fore
SplineSet
555 461 m 1,0,-1
 485 461 l 1,1,-1
 304 749 l 1,2,-1
 126 461 l 1,3,-1
 54 461 l 1,4,-1
 265 832 l 1,5,-1
 343 832 l 1,6,-1
 555 461 l 1,0,-1
EndSplineSet
EndChar

StartChar: underscore
Encoding: 95 95 64
Width: 610
GlyphClass: 2
Flags: W
LayerCount: 2
Fore
SplineSet
121 -111 m 1,0,-1
 188 -118 l 1,1,-1
 390 -111 l 1,2,-1
 619 -111 l 1,3,4
 651 -116 651 -116 657 -159 c 1,5,-1
 657 -172 l 1,6,7
 645 -199 645 -199 621 -206 c 1,8,-1
 551 -201 l 1,9,-1
 4 -206 l 1,10,11
 -51 -199 -51 -199 -51 -159 c 2,12,-1
 -51 -144 l 1,13,14
 -41 -107 -41 -107 4 -111 c 1,15,-1
 121 -111 l 1,0,-1
EndSplineSet
EndChar

StartChar: grave
Encoding: 96 96 65
Width: 610
GlyphClass: 2
Flags: W
LayerCount: 2
Fore
SplineSet
406 569 m 1,0,-1
 349 569 l 1,1,-1
 214 643 l 2,2,3
 192 654 192 654 179 670 c 128,-1,4
 166 686 166 686 162 709 c 0,5,6
 158 731 158 731 168.5 745 c 128,-1,7
 179 759 179 759 200 759 c 0,8,9
 238 759 238 759 278 715 c 2,10,-1
 406 569 l 1,0,-1
EndSplineSet
EndChar

StartChar: a
Encoding: 97 97 66
Width: 610
GlyphClass: 2
Flags: W
LayerCount: 2
Fore
SplineSet
221 512 m 0,0,1
 245 518 245 518 287 520 c 2,2,-1
 303 520 l 1,3,4
 435 508 435 508 455 372 c 0,5,6
 458 358 458 358 460 323 c 0,7,8
 463 280 463 280 466 198 c 2,9,-1
 468 130 l 2,10,11
 469 100 469 100 487 84 c 1,12,-1
 507 84 l 1,13,14
 535 100 535 100 543 136 c 1,15,-1
 556 137 l 1,16,17
 582 129 582 129 585 104 c 2,18,-1
 585 82 l 1,19,20
 563 14 563 14 487 1 c 1,21,22
 425 14 425 14 410 69 c 1,23,-1
 403 69 l 1,24,25
 335 1 335 1 239 1 c 0,26,27
 186 -1 186 -1 147 16 c 1,28,-1
 113 38 l 1,29,30
 70 78 70 78 70 146 c 1,31,32
 80 233 80 233 175 276 c 0,33,34
 197 285 197 285 234 293 c 0,35,36
 283 302 283 302 341 310 c 1,37,38
 382 308 382 308 386 352 c 1,39,-1
 382 392 l 1,40,-1
 370 424 l 1,41,-1
 350 444 l 1,42,43
 311 468 311 468 277 464 c 1,44,-1
 259 464 l 2,45,46
 231 463 231 463 208 451 c 2,47,-1
 197 446 l 2,48,49
 174 433 174 433 164 407 c 1,50,-1
 191 372 l 1,51,-1
 175 339 l 1,52,-1
 137 326 l 1,53,54
 85 331 85 331 84 386 c 1,55,-1
 87 399 l 2,56,57
 95 442 95 442 151 484 c 1,58,59
 189 506 189 506 221 512 c 0,0,1
353 252 m 0,60,61
 333 251 333 251 303 244 c 0,62,63
 144 216 144 216 147 136 c 0,64,65
 150 74 150 74 222 70 c 1,66,-1
 245 71 l 1,67,68
 322 82 322 82 381 132 c 0,69,70
 397 144 397 144 403 179 c 1,71,-1
 401 211 l 1,72,-1
 396 232 l 1,73,-1
 386 246 l 1,74,75
 370 256 370 256 353 252 c 0,60,61
EndSplineSet
EndChar

StartChar: b
Encoding: 98 98 67
Width: 610
GlyphClass: 2
Flags: W
LayerCount: 2
Fore
SplineSet
132 721 m 0,0,1
 176 726 176 726 180 692 c 1,2,-1
 180 664 l 1,3,4
 176 588 176 588 180 506 c 1,5,-1
 184 472 l 1,6,-1
 198 480 l 1,7,8
 241 530 241 530 340 540 c 1,9,10
 425 522 425 522 473 458 c 0,11,12
 520 395 520 395 524 313 c 1,13,-1
 528 284 l 1,14,15
 528 248 528 248 525 214 c 0,16,17
 519 158 519 158 484 100 c 0,18,19
 441 28 441 28 354 -1 c 0,20,21
 348 -1 348 -1 336 6 c 1,22,23
 325 -1 325 -1 311 -1 c 2,24,-1
 291 -1 l 1,25,26
 227 16 227 16 203 40 c 0,27,28
 188 52 188 52 176 56 c 1,29,-1
 172 10 l 1,30,-1
 139 -6 l 1,31,-1
 103 -2 l 1,32,33
 107 26 107 26 111 66 c 0,34,35
 121 126 121 126 116 285 c 1,36,37
 123 476 123 476 115 602 c 0,38,39
 113 634 113 634 103 648 c 1,40,41
 76 662 76 662 -4 660 c 1,42,-1
 -17 692 l 1,43,44
 -2 718 -2 718 25 720 c 2,45,-1
 67 720 l 2,46,47
 106 722 106 722 132 721 c 0,0,1
188 342 m 1,48,-1
 186 280 l 1,49,-1
 188 232 l 1,50,-1
 196 172 l 1,51,52
 214 110 214 110 278 78 c 1,53,-1
 308 78 l 1,54,55
 397 88 397 88 425 161 c 0,56,57
 438 187 438 187 444 217 c 2,58,-1
 448 245 l 2,59,60
 449 273 449 273 450 290 c 0,61,62
 422 462 422 462 332 464 c 2,63,-1
 312 464 l 2,64,65
 272 461 272 461 230 416 c 0,66,67
 206 396 206 396 188 342 c 1,48,-1
EndSplineSet
EndChar

StartChar: c
Encoding: 99 99 68
Width: 610
GlyphClass: 2
Flags: W
LayerCount: 2
Fore
SplineSet
286 506 m 0,0,1
 304 512 304 512 328 510 c 2,2,-1
 344 510 l 1,3,4
 442 494 442 494 491 427 c 1,5,-1
 505 404 l 1,6,-1
 510 379 l 1,7,8
 508 310 508 310 437 290 c 1,9,-1
 432 290 l 1,10,11
 395 295 395 295 377 325 c 1,12,-1
 371 345 l 1,13,14
 375 384 375 384 399 394 c 1,15,16
 371 441 371 441 296 441 c 1,17,18
 203 422 203 422 177 324 c 0,19,20
 167 290 167 290 169 246 c 0,21,22
 171 177 171 177 200 142 c 1,23,-1
 221 111 l 1,24,25
 259 82 259 82 285 77 c 2,26,-1
 299 76 l 2,27,28
 321 76 321 76 342 80 c 2,29,-1
 371 91 l 1,30,-1
 398 109 l 2,31,32
 421 124 421 124 429 153 c 1,33,-1
 449 172 l 1,34,35
 505 180 505 180 518 134 c 1,36,-1
 506 100 l 1,37,-1
 471 59 l 2,38,39
 423 8 423 8 324 0 c 1,40,-1
 296 0 l 2,41,42
 230 3 230 3 181 42 c 0,43,44
 145 67 145 67 118 120 c 1,45,46
 98 173 98 173 93 199.5 c 128,-1,47
 88 226 88 226 87 254 c 2,48,-1
 92 303 l 1,49,50
 110 380 110 380 142 420 c 0,51,52
 166 451 166 451 200 471 c 2,53,-1
 230 486 l 2,54,55
 260 502 260 502 286 506 c 0,0,1
EndSplineSet
EndChar

StartChar: d
Encoding: 100 100 69
Width: 610
GlyphClass: 2
Flags: W
LayerCount: 2
Fore
SplineSet
258 716 m 1,0,1
 436 730 436 730 446 698 c 1,2,3
 463 674 463 674 463 642 c 0,4,5
 459 436 459 436 463 408 c 1,6,7
 462 305 462 305 463 264 c 2,8,-1
 463 122 l 1,9,10
 469 78 469 78 539 84 c 1,11,12
 571 82 571 82 585 50 c 1,13,-1
 585 32 l 1,14,15
 567 -8 567 -8 459 2 c 1,16,17
 422 10 422 10 406 56 c 1,18,19
 372 12 372 12 314 -6 c 1,20,-1
 256 -13 l 1,21,-1
 224 -6 l 1,22,23
 82 38 82 38 60 210 c 1,24,25
 56 322 56 322 100 395 c 0,26,27
 159 495 159 495 244 504 c 1,28,-1
 251 504 l 2,29,30
 256 504 256 504 311 504 c 1,31,32
 354 492 354 492 394 446 c 1,33,-1
 394 504 l 1,34,-1
 392 566 l 2,35,36
 392 620 392 620 391 638 c 1,37,-1
 368 648 l 1,38,39
 312 650 312 650 258 648 c 1,40,41
 234 652 234 652 228 674 c 2,42,-1
 226 688 l 1,43,44
 234 704 234 704 258 716 c 1,0,1
139 274 m 2,45,-1
 136 228 l 1,46,-1
 144 182 l 1,47,-1
 162 142 l 1,48,-1
 190 100 l 1,49,-1
 218 78 l 1,50,51
 254 58 254 58 316 66 c 1,52,-1
 350 90 l 1,53,54
 377 130 377 130 386 166 c 0,55,56
 403 248 403 248 399 274 c 0,57,58
 395 351 395 351 378 372 c 0,59,60
 338 428 338 428 280 438 c 1,61,62
 194 440 194 440 166 374 c 1,63,64
 144 336 144 336 139 274 c 2,45,-1
EndSplineSet
EndChar

StartChar: e
Encoding: 101 101 70
Width: 610
GlyphClass: 2
Flags: W
LayerCount: 2
Fore
SplineSet
345 514 m 1,0,1
 407 497 407 497 435 473 c 2,2,-1
 445 463 l 2,3,4
 504 406 504 406 513 333 c 0,5,6
 516 305 516 305 511 279 c 0,7,8
 509 269 509 269 509 262 c 0,9,10
 486 228 486 228 423 230 c 2,11,-1
 220 232 l 1,12,-1
 214 232 l 2,13,14
 207 232 207 232 172 233 c 1,15,-1
 164 223 l 1,16,-1
 159 206 l 1,17,18
 160 183 160 183 174 148 c 1,19,-1
 190 122 l 1,20,21
 230 73 230 73 302 70 c 0,22,23
 335 66 335 66 380 85 c 0,24,25
 424 107 424 107 449 148 c 1,26,-1
 458 160 l 1,27,28
 486 171 486 171 504 152 c 2,29,-1
 516 138 l 1,30,31
 475 7 475 7 307 -7 c 1,32,33
 223 -5 223 -5 178 32 c 0,34,35
 110 86 110 86 96 141 c 1,36,37
 85 166 85 166 80 223 c 1,38,-1
 80 262 l 1,39,40
 84 333 84 333 105 379 c 0,41,42
 137 456 137 456 201 495 c 0,43,44
 212 501 212 501 237 509 c 0,45,46
 257 513 257 513 271 514 c 0,47,48
 291 520 291 520 345 514 c 1,0,1
214 430 m 2,49,-1
 193 409 l 1,50,51
 159 358 159 358 159 328 c 0,52,53
 162 301 162 301 189 295 c 1,54,-1
 204 295 l 1,55,-1
 245 294 l 2,56,57
 313 290 313 290 399 296 c 1,58,-1
 406 296 l 2,59,60
 439 296 439 296 435 332 c 0,61,62
 433 352 433 352 424 369 c 2,63,-1
 416 385 l 1,64,65
 378 451 378 451 289 451 c 1,66,-1
 269 450 l 2,67,68
 236 447 236 447 214 430 c 2,49,-1
EndSplineSet
EndChar

StartChar: f
Encoding: 102 102 71
Width: 610
GlyphClass: 2
Flags: W
LayerCount: 2
Fore
SplineSet
432 734 m 0,0,1
 508 726 508 726 561 654 c 1,2,-1
 574 622 l 1,3,-1
 576 592 l 1,4,5
 568 548 568 548 518 540 c 1,6,7
 466 538 466 538 456 588 c 1,8,-1
 478 618 l 1,9,10
 472 670 472 670 414 672 c 2,11,-1
 396 672 l 1,12,13
 312 668 312 668 304 546 c 1,14,15
 296 502 296 502 409 514 c 1,16,17
 471 516 471 516 475 488 c 1,18,-1
 475 470 l 1,19,20
 470 448 470 448 417 448 c 0,21,22
 380 448 380 448 341 446 c 1,23,-1
 308 430 l 1,24,25
 304 262 304 262 312 172 c 0,26,27
 312 148 312 148 318 116 c 1,28,-1
 335 88 l 1,29,30
 366 76 366 76 383.5 76 c 128,-1,31
 401 76 401 76 432 76 c 2,32,-1
 467 76 l 2,33,34
 505 75 505 75 505 44 c 0,35,36
 505 12 505 12 467 4 c 1,37,38
 374 0 374 0 321 0 c 2,39,-1
 214 0 l 2,40,41
 181 0 181 0 150 -2 c 256,42,43
 119 -4 119 -4 90 -4 c 1,44,45
 56 2 56 2 56 37 c 1,46,47
 74 74 74 74 113 71 c 0,48,49
 137 71 137 71 181 71 c 0,50,51
 224 74 224 74 236 104 c 0,52,53
 251 132 251 132 247 187 c 2,54,-1
 246 264 l 2,55,56
 246 356 246 356 244 410 c 1,57,-1
 232 436 l 1,58,59
 171 442 171 442 148 440 c 0,60,61
 88 436 88 436 80 468 c 1,62,-1
 80 482 l 2,63,64
 81 514 81 514 216 514 c 1,65,66
 243 510 243 510 238 570 c 1,67,68
 251 662 251 662 310 706 c 0,69,70
 341 726 341 726 384 734 c 1,71,72
 411 734 411 734 432 734 c 0,0,1
EndSplineSet
EndChar

StartChar: g
Encoding: 103 103 72
Width: 610
GlyphClass: 2
Flags: W
LayerCount: 2
Fore
SplineSet
307 528 m 0,0,1
 366 516 366 516 398 482 c 1,2,-1
 410 482 l 1,3,4
 431 518 431 518 468 523 c 1,5,-1
 481 523 l 2,6,7
 565 523 565 523 565 428 c 1,8,-1
 541 402 l 1,9,-1
 508 394 l 1,10,-1
 467 451 l 1,11,12
 435 453 435 453 436 428 c 1,13,-1
 445 408 l 1,14,-1
 452 385 l 2,15,16
 458 362 458 362 458 349 c 2,17,-1
 458 331 l 1,18,-1
 457 307 l 1,19,20
 449 244 449 244 380 193 c 1,21,-1
 347 178 l 2,22,23
 322 169 322 169 297 171 c 0,24,25
 234 170 234 170 181 210 c 1,26,27
 143 209 143 209 128 175 c 1,28,-1
 128 160 l 1,29,30
 138 115 138 115 179 100 c 1,31,32
 211 114 211 114 267 122 c 1,33,-1
 299 122 l 2,34,35
 351 124 351 124 423 108 c 1,36,-1
 494 79 l 1,37,38
 576 19 576 19 555 -79 c 1,39,-1
 534 -112 l 2,40,41
 522 -137 522 -137 451 -168 c 0,42,43
 401 -190 401 -190 317 -202 c 1,44,45
 253 -206 253 -206 236 -206 c 0,46,47
 142 -188 142 -188 86 -136 c 0,48,49
 60 -110 60 -110 48 -83 c 1,50,51
 35 -10 35 -10 110 73 c 1,52,-1
 67 131 l 1,53,54
 30 173 30 173 71 210 c 2,55,-1
 141 269 l 1,56,57
 126 293 126 293 119 318 c 0,58,59
 113 340 113 340 114 360 c 2,60,-1
 114 374 l 1,61,62
 133 452 133 452 169 481 c 0,63,64
 218 522 218 522 280 528 c 0,65,66
 295 530 295 530 307 528 c 0,0,1
181 336 m 1,67,68
 210 244 210 244 281 241 c 2,69,-1
 309 241 l 1,70,71
 403 267 403 267 397 355 c 1,72,73
 384 457 384 457 296 462 c 1,74,-1
 276 462 l 1,75,76
 205 454 205 454 183 379 c 0,77,78
 181 359 181 359 181 336 c 1,67,68
218 46 m 1,79,-1
 186 40 l 1,80,81
 127 19 127 19 127 -23 c 0,82,83
 122 -129 122 -129 288 -130 c 1,84,85
 472 -114 472 -114 479 -43 c 1,86,87
 493 13 493 13 374 46 c 1,88,89
 281 62 281 62 218 46 c 1,79,-1
EndSplineSet
EndChar

StartChar: h
Encoding: 104 104 73
Width: 610
GlyphClass: 2
Flags: W
LayerCount: 2
Fore
SplineSet
129 393 m 2,0,-1
 129 546 l 1,1,-1
 129 625 l 1,2,-1
 116 636 l 1,3,4
 116 651 116 651 67 649 c 2,5,-1
 25 649 l 1,6,-1
 13 667 l 1,7,-1
 13 690 l 2,8,9
 15 718 15 718 53 720 c 0,10,11
 81 724 81 724 160 724 c 0,12,13
 191 726 191 726 191 682 c 1,14,15
 197 660 197 660 195 636 c 2,16,-1
 195 576 l 1,17,-1
 195 520 l 2,18,19
 195 482 195 482 191 446 c 1,20,-1
 197 413 l 1,21,22
 274 512 274 512 357 512 c 2,23,-1
 382 512 l 1,24,25
 467 498 467 498 500 400 c 0,26,27
 512 356 512 356 512 290 c 0,28,29
 512 250 512 250 512 218 c 2,30,-1
 512 166 l 2,31,32
 510 120 510 120 510 84 c 1,33,34
 524 72 524 72 570 66 c 1,35,36
 586 56 586 56 598 38 c 1,37,-1
 598 24 l 1,38,39
 594 5 594 5 553 -2 c 1,40,41
 467 1 467 1 387 1 c 1,42,-1
 356 -6 l 1,43,-1
 337 21 l 1,44,-1
 337 42 l 1,45,46
 342 58 342 58 423 71 c 1,47,48
 437 94 437 94 439 136 c 2,49,-1
 439 184 l 1,50,51
 447 250 447 250 439 350 c 1,52,53
 427 416 427 416 395 430 c 0,54,55
 388 430 388 430 365 440 c 1,56,57
 282 437 282 437 225 357 c 0,58,59
 207 326 207 326 203.5 302 c 128,-1,60
 200 278 200 278 197 218 c 2,61,-1
 197 91 l 1,62,63
 223 67 223 67 270 62 c 1,64,-1
 285 38 l 1,65,-1
 283 22 l 1,66,67
 269 4 269 4 251 1 c 0,68,69
 191 1 191 1 64 1 c 2,70,-1
 39 1 l 2,71,72
 26 1 26 1 16 15 c 1,73,-1
 16 35 l 1,74,75
 28 56 28 56 39 56 c 0,76,77
 86 64 86 64 101 69 c 0,78,79
 129 71 129 71 124 91 c 1,80,-1
 125 120 l 2,81,82
 129 228 129 228 129 393 c 2,0,-1
EndSplineSet
EndChar

StartChar: i
Encoding: 105 105 74
Width: 610
GlyphClass: 2
Flags: W
LayerCount: 2
Fore
SplineSet
321 507 m 2,0,1
 363 503 363 503 355 434 c 1,2,-1
 355 276 l 2,3,4
 353 206 353 206 355 171 c 2,5,-1
 355 102 l 1,6,-1
 361 89 l 2,7,8
 364 89 364 89 386 76 c 1,9,-1
 444 74 l 1,10,-1
 474 74 l 1,11,-1
 505 72 l 1,12,13
 533 59 533 59 536 36 c 1,14,15
 530 1 530 1 509 1 c 2,16,-1
 317 6 l 1,17,-1
 97 -3 l 1,18,19
 69 17 69 17 66 41 c 1,20,-1
 81 65 l 1,21,22
 81 76 81 76 150 74 c 0,23,24
 207 76 207 76 245 80 c 1,25,26
 281 92 281 92 284 131 c 2,27,-1
 284 256 l 1,28,-1
 284 356 l 1,29,30
 292 433 292 433 249 433 c 0,31,32
 110 433 110 433 110 457 c 2,33,-1
 110 472 l 2,34,35
 110 511 110 511 198 511 c 0,36,37
 251 511 251 511 300 509 c 2,38,-1
 321 507 l 2,0,1
299 579 m 0,39,40
 268 579 268 579 246.5 599.5 c 128,-1,41
 225 620 225 620 225 654 c 0,42,43
 225 689 225 689 245 711 c 128,-1,44
 265 733 265 733 299 733 c 0,45,46
 328 733 328 733 349.5 714.5 c 128,-1,47
 371 696 371 696 371 654 c 0,48,49
 371 622 371 622 351 600.5 c 128,-1,50
 331 579 331 579 299 579 c 0,39,40
EndSplineSet
EndChar

StartChar: j
Encoding: 106 106 75
Width: 610
GlyphClass: 2
Flags: W
LayerCount: 2
Fore
SplineSet
399 503 m 1,0,-1
 405 503 l 2,1,2
 424 503 424 503 433 457 c 1,3,4
 438 403 438 403 432 166 c 1,5,-1
 432 107 l 1,6,-1
 426 66 l 1,7,-1
 432 25 l 1,8,9
 432 -9 432 -9 428 -48 c 0,10,11
 414 -128 414 -128 382 -152 c 1,12,13
 382 -181 382 -181 254 -206 c 1,14,-1
 166 -185 l 1,15,16
 77 -136 77 -136 80 -26 c 1,17,-1
 92 12 l 1,18,19
 120 58 120 58 156 66 c 0,20,21
 196 76 196 76 218 36 c 0,22,23
 236 2 236 2 210 -44 c 1,24,-1
 164 -62 l 1,25,-1
 164 -76 l 1,26,27
 189 -132 189 -132 255 -133 c 0,28,29
 323 -130 323 -130 344 -91 c 2,30,-1
 354 -70 l 1,31,-1
 358 -40 l 1,32,-1
 360 -12 l 2,33,34
 366 46 366 46 363 111 c 1,35,-1
 364 168 l 2,36,37
 367 230 367 230 367 295 c 0,38,39
 369 417 369 417 330 421 c 2,40,-1
 282 424 l 1,41,-1
 195 421 l 1,42,43
 142 430 142 430 140 453 c 2,44,-1
 140 474 l 1,45,46
 146 497 146 497 181 505 c 1,47,48
 233 506 233 506 307 499 c 1,49,-1
 344 499 l 1,50,51
 367 513 367 513 399 503 c 1,0,-1
360 584 m 0,52,53
 332 584 332 584 312.5 602 c 128,-1,54
 293 620 293 620 293 650 c 0,55,56
 293 681 293 681 311 700 c 128,-1,57
 329 719 329 719 360 719 c 0,58,59
 386 719 386 719 406 703 c 128,-1,60
 426 687 426 687 426 650 c 0,61,62
 426 622 426 622 407.5 603 c 128,-1,63
 389 584 389 584 360 584 c 0,52,53
EndSplineSet
EndChar

StartChar: k
Encoding: 107 107 76
Width: 610
GlyphClass: 2
Flags: W
LayerCount: 2
Fore
SplineSet
340 494 m 0,0,1
 493 506 493 506 553 492 c 1,2,-1
 573 468 l 1,3,4
 571 436 571 436 547 428 c 2,5,-1
 504 417 l 1,6,7
 485 417 485 417 467 417 c 1,8,9
 351 319 351 319 343 294 c 1,10,-1
 344 275 l 1,11,12
 381 226 381 226 416 172 c 1,13,14
 463 114 463 114 485 89 c 1,15,-1
 500 76 l 1,16,17
 524 67 524 67 535 66 c 0,18,19
 593 67 593 67 597 42 c 1,20,-1
 597 21 l 1,21,22
 583 -4 583 -4 550 -5 c 2,23,-1
 498 -5 l 1,24,-1
 480 -5 l 1,25,26
 431 2 431 2 379 -5 c 1,27,28
 348 3 348 3 342 20 c 1,29,-1
 346 47 l 1,30,-1
 393 62 l 1,31,32
 396 94 396 94 358 152 c 0,33,34
 314 227 314 227 277 225 c 0,35,36
 239 222 239 222 218 192 c 0,37,38
 203 172 203 172 201 150 c 2,39,-1
 201 96 l 2,40,41
 200 69 200 69 222 64 c 1,42,43
 247 66 247 66 258 66 c 1,44,45
 275 58 275 58 285 31 c 1,46,47
 285 2 285 2 259 -7 c 1,48,49
 172 -6 172 -6 63 -7 c 1,50,-1
 32 5 l 1,51,-1
 22 32 l 1,52,53
 26 80 26 80 73 72 c 0,54,55
 117 68 117 68 128 92 c 1,56,-1
 128 126 l 1,57,-1
 128 246 l 1,58,-1
 127 553 l 1,59,-1
 129 626 l 2,60,61
 127 656 127 656 91 653 c 1,62,-1
 51 656 l 2,63,64
 25 660 25 660 19 676 c 1,65,-1
 19 688 l 1,66,67
 30 710 30 710 48 714 c 0,68,69
 103 726 103 726 178 714 c 1,70,71
 203 694 203 694 196 666 c 1,72,-1
 196 608 l 1,73,-1
 197 295 l 1,74,-1
 205 267 l 1,75,76
 228 275 228 275 281 321 c 2,77,-1
 391 424 l 1,78,-1
 320 433 l 1,79,-1
 304 459 l 1,80,81
 295 491 295 491 340 494 c 0,0,1
EndSplineSet
EndChar

StartChar: l
Encoding: 108 108 77
Width: 610
GlyphClass: 2
Flags: W
LayerCount: 2
Fore
SplineSet
315 712 m 1,0,1
 340 719 340 719 356 670 c 1,2,-1
 358 618 l 1,3,4
 353 558 353 558 356 481 c 2,5,-1
 356 431 l 1,6,-1
 356 287 l 2,7,8
 356 281 356 281 353 249 c 2,9,-1
 350 219 l 1,10,-1
 356 185 l 1,11,-1
 357 104 l 1,12,13
 363 74 363 74 395 76 c 1,14,15
 431 73 431 73 455 73 c 0,16,17
 469 73 469 73 480 66 c 1,18,19
 490 73 490 73 504 73 c 0,20,21
 512 73 512 73 531 53 c 1,22,23
 542 35 542 35 538 14 c 1,24,25
 510 -20 510 -20 482 -13 c 1,26,27
 432 -9 432 -9 409 -6 c 2,28,-1
 329 -5 l 1,29,-1
 238 -5 l 2,30,31
 233 -5 233 -5 121 -11 c 1,32,33
 64 -5 64 -5 63 21 c 2,34,-1
 63 29 l 2,35,36
 64 76 64 76 145 76 c 1,37,38
 145 83 145 83 181.5 75.5 c 128,-1,39
 218 68 218 68 244 75 c 0,40,41
 276 86 276 86 276 109 c 0,42,43
 287 496 287 496 281 618 c 1,44,45
 265 639 265 639 224 636 c 2,46,-1
 218 636 l 2,47,48
 205 636 205 636 177 636 c 0,49,50
 96 637 96 637 95 662 c 2,51,-1
 95 680 l 2,52,53
 96 700 96 700 121 717 c 1,54,-1
 146 717 l 2,55,56
 219 715 219 715 219 703 c 1,57,58
 298 712 298 712 315 712 c 1,0,1
EndSplineSet
EndChar

StartChar: m
Encoding: 109 109 78
Width: 610
GlyphClass: 2
Flags: W
LayerCount: 2
Fore
SplineSet
336 327 m 2,0,-1
 336 117 l 1,1,2
 329 54 329 54 379 58 c 1,3,-1
 391 21 l 1,4,-1
 377 -1 l 1,5,6
 321 -6 321 -6 270 -5 c 0,7,8
 219 -6 219 -6 217 28 c 0,9,10
 219 60 219 60 243 59 c 1,11,-1
 261 67 l 1,12,13
 263 89 263 89 263 150 c 2,14,-1
 263 340 l 2,15,16
 263 427 263 427 210 428 c 1,17,18
 146 414 146 414 148 332 c 1,19,-1
 146 259 l 1,20,21
 148 156 148 156 145 71 c 1,22,23
 177 76 177 76 197 42 c 1,24,25
 202 23 202 23 189 10 c 1,26,-1
 170 0 l 1,27,-1
 100 0 l 2,28,29
 73 0 73 0 30 0 c 0,30,31
 12 3 12 3 8 30 c 1,32,33
 13 63 13 63 51 62 c 1,34,-1
 74 74 l 1,35,-1
 74 206 l 1,36,-1
 75 407 l 1,37,38
 61 441 61 441 21 440 c 1,39,-1
 -6 444 l 1,40,-1
 -6 480 l 1,41,42
 12 510 12 510 89 504 c 0,43,44
 127 503 127 503 139 463 c 1,45,-1
 146 463 l 1,46,47
 188 506 188 506 231 506 c 0,48,49
 282 507 282 507 310 435 c 1,50,51
 349 499 349 499 419 507 c 1,52,-1
 435 507 l 1,53,54
 533 484 533 484 539 365 c 1,55,-1
 539 318 l 1,56,-1
 539 242 l 1,57,-1
 539 98 l 2,58,59
 536 56 536 56 602 57 c 1,60,-1
 609 13 l 1,61,62
 552 -8 552 -8 427 1 c 1,63,64
 392 35 392 35 421 50 c 2,65,-1
 448 60 l 1,66,-1
 462 71 l 1,67,68
 465 117 465 117 464 168 c 2,69,-1
 465 249 l 1,70,-1
 465 340 l 2,71,72
 463 420 463 420 416 427 c 1,73,-1
 406 427 l 1,74,75
 339 407 339 407 336 327 c 2,0,-1
EndSplineSet
EndChar

StartChar: n
Encoding: 110 110 79
Width: 610
GlyphClass: 2
Flags: W
LayerCount: 2
Fore
SplineSet
208 305 m 1,0,1
 204 246 204 246 204 171 c 0,2,3
 202 129 202 129 214 87 c 1,4,5
 307 78 307 78 290 19 c 1,6,7
 254 2 254 2 231 2 c 256,8,9
 208 2 208 2 152 9 c 1,10,11
 119 9 119 9 58 9 c 0,12,13
 34 9 34 9 28 35 c 1,14,-1
 36 63 l 1,15,-1
 65 77 l 1,16,-1
 95 78 l 2,17,18
 121 77 121 77 136 111 c 1,19,20
 136 213 136 213 136 344 c 0,21,22
 136 372 136 372 125 404 c 2,23,-1
 116 423 l 1,24,25
 20 437 20 437 20 454 c 2,26,-1
 22 484 l 1,27,28
 79 504 79 504 116 504 c 2,29,-1
 155 504 l 1,30,-1
 190 476 l 1,31,-1
 199 438 l 1,32,33
 259 499 259 499 333 510 c 1,34,-1
 379 505 l 1,35,36
 459 473 459 473 484 395 c 0,37,38
 487 378 487 378 491 354 c 2,39,-1
 494 306 l 2,40,41
 494 264 494 264 494 238 c 128,-1,42
 494 212 494 212 492 164 c 0,43,44
 490 130 490 130 492 98 c 0,45,46
 492 68 492 68 567 68 c 1,47,-1
 590 44 l 1,48,49
 590 4 590 4 543 0 c 1,50,-1
 492 0 l 1,51,52
 459 4 459 4 444.5 2 c 128,-1,53
 430 0 430 0 414 0 c 2,54,-1
 352 0 l 1,55,56
 327 14 327 14 332 35 c 128,-1,57
 337 56 337 56 354 60 c 2,58,-1
 396 66 l 1,59,60
 420 86 420 86 417 129 c 0,61,62
 418 222 418 222 417 311 c 0,63,64
 415 398 415 398 357 430 c 1,65,66
 341 434 341 434 325 434 c 0,67,68
 237 422 237 422 213 341 c 1,69,-1
 208 305 l 1,0,1
EndSplineSet
EndChar

StartChar: o
Encoding: 111 111 80
Width: 610
GlyphClass: 2
Flags: W
LayerCount: 2
Fore
SplineSet
374 506 m 1,0,-1
 430 468 l 1,1,2
 515 387 515 387 525 279 c 2,3,-1
 528 243 l 1,4,5
 517 122 517 122 463 67 c 1,6,7
 442 36 442 36 387 5 c 1,8,-1
 376 0 l 1,9,10
 324 -19 324 -19 266 -8 c 0,11,12
 228 -1 228 -1 176 32 c 0,13,14
 128 67 128 67 105 120 c 0,15,16
 90 153 90 153 82 177 c 2,17,-1
 72 236 l 1,18,19
 72 272 72 272 77 297 c 0,20,21
 82 328 82 328 88 350 c 0,22,23
 134 461 134 461 234 509 c 1,24,25
 299 527 299 527 374 506 c 1,0,-1
158 199 m 0,26,27
 182 112 182 112 270 80 c 0,28,29
 315 64 315 64 369 83 c 1,30,31
 460 135 460 135 454 261 c 1,32,33
 446 343 446 343 416 374 c 1,34,35
 374 443 374 443 299 446 c 1,36,37
 224 442 224 442 183 382 c 1,38,39
 154 353 154 353 147 268 c 0,40,41
 146 241 146 241 158 199 c 0,26,27
EndSplineSet
EndChar

StartChar: p
Encoding: 112 112 81
Width: 610
GlyphClass: 2
Flags: W
LayerCount: 2
Fore
SplineSet
352 516 m 2,0,-1
 383 516 l 1,1,2
 500 488 500 488 540 369 c 1,3,4
 552 319 552 319 554 282 c 2,5,-1
 554 266 l 2,6,7
 554 241 554 241 546 201 c 0,8,9
 518 77 518 77 405 16 c 0,10,11
 374 -2 374 -2 302 -8 c 1,12,-1
 268 -5 l 1,13,-1
 229 24 l 1,14,15
 218 11 218 11 215 -8 c 2,16,-1
 215 -122 l 1,17,18
 319 -119 319 -119 331 -130 c 1,19,-1
 331 -158 l 1,20,21
 309 -199 309 -199 256 -199 c 0,22,23
 209 -199 209 -199 209 -185 c 1,24,25
 191 -199 191 -199 65 -206 c 1,26,27
 65 -190 65 -190 34 -185 c 1,28,-1
 34 -158 l 1,29,30
 57 -103 57 -103 131 -122 c 1,31,32
 156 -104 156 -104 152 -44 c 1,33,-1
 153 56 l 1,34,-1
 152 394 l 1,35,36
 161 394 161 394 153 419 c 0,37,38
 153 432 153 432 141 432 c 2,39,-1
 59 441 l 1,40,41
 40 448 40 448 40 492 c 1,42,43
 52 506 52 506 176 505 c 1,44,45
 202 492 202 492 224 456 c 1,46,47
 287 515 287 515 352 516 c 2,0,-1
211 268 m 1,48,-1
 216 254 l 1,49,-1
 216 205 l 2,50,51
 216 199 216 199 211 199 c 1,52,53
 226 71 226 71 326 75 c 1,54,55
 420 88 420 88 446 151 c 0,56,57
 463 185 463 185 467 213 c 2,58,-1
 470 230 l 2,59,60
 471 254 471 254 475 278 c 1,61,-1
 475 296 l 2,62,63
 475 313 475 313 470 327 c 0,64,65
 453 410 453 410 403 442 c 0,66,67
 382 455 382 455 350 456 c 1,68,69
 247 431 247 431 217 334 c 1,70,71
 216 268 216 268 211 268 c 1,48,-1
EndSplineSet
EndChar

StartChar: q
Encoding: 113 113 82
Width: 610
GlyphClass: 2
Flags: W
LayerCount: 2
Fore
SplineSet
294 514 m 1,0,1
 370 508 370 508 433 446 c 1,2,-1
 434 491 l 2,3,4
 437 526 437 526 472 516 c 1,5,6
 505 517 505 517 496 413 c 0,7,8
 482 142 482 142 487 -57 c 0,9,10
 487 -131 487 -131 523 -131 c 0,11,12
 569 -133 569 -133 584 -133 c 1,13,14
 604 -139 604 -139 606 -166 c 1,15,16
 599 -199 599 -199 551 -202 c 1,17,-1
 458 -198 l 1,18,-1
 350 -200 l 1,19,20
 298 -192 298 -192 288 -174 c 1,21,-1
 287 -160 l 1,22,23
 297 -133 297 -133 331 -133 c 2,24,-1
 404 -133 l 2,25,26
 416 -133 416 -133 416 -119 c 2,27,-1
 417 24 l 1,28,-1
 418 98 l 1,29,30
 396 52 396 52 350 22 c 1,31,32
 292 -10 292 -10 224 10 c 0,33,34
 165 29 165 29 136 68 c 0,35,36
 113 96 113 96 91 136 c 1,37,38
 70 200 70 200 72 271 c 1,39,40
 93 413 93 413 136 440 c 1,41,42
 157 489 157 489 263 511 c 1,43,-1
 294 514 l 1,0,1
142 239 m 1,44,45
 147 123 147 123 234 83 c 1,46,-1
 274 73 l 1,47,-1
 308 79 l 1,48,49
 403 120 403 120 420 236 c 1,50,-1
 420 277 l 2,51,52
 420 282 420 282 416 348 c 1,53,54
 404 380 404 380 384 402 c 0,55,56
 333 459 333 459 271 447 c 0,57,58
 152 426 152 426 142 258 c 1,59,-1
 142 239 l 1,44,45
EndSplineSet
EndChar

StartChar: r
Encoding: 114 114 83
Width: 610
GlyphClass: 2
Flags: W
LayerCount: 2
Fore
SplineSet
249 497 m 1,0,1
 270 455 270 455 267 386 c 1,2,3
 313 478 313 478 422 511 c 1,4,5
 457 515 457 515 473 513 c 128,-1,6
 489 511 489 511 514 505 c 1,7,8
 562 485 562 485 575 427 c 1,9,10
 582 333 582 333 512 319 c 1,11,12
 452 319 452 319 449 379 c 0,13,14
 449 387 449 387 455 400 c 1,15,16
 480 405 480 405 475 435 c 1,17,-1
 449 449 l 1,18,19
 335 417 335 417 288 330 c 0,20,21
 268 286 268 286 268 240 c 1,22,23
 256 132 256 132 276 79 c 1,24,25
 327 76 327 76 363 76 c 1,26,27
 398 69 398 69 403 35 c 1,28,29
 388 1 388 1 363 1 c 1,30,-1
 336 8 l 1,31,32
 310 -5 310 -5 250 8 c 1,33,34
 109 9 109 9 109 -3 c 1,35,36
 59 -12 59 -12 59 35 c 2,37,-1
 59 42 l 1,38,39
 84 70 84 70 103 70 c 0,40,41
 127 69 127 69 137 69 c 0,42,43
 182 72 182 72 197 94 c 1,44,45
 203 123 203 123 203 174 c 2,46,-1
 203 383 l 1,47,48
 211 435 211 435 136 424 c 1,49,50
 62 421 62 421 62 459 c 0,51,52
 62 511 62 511 154 499 c 1,53,-1
 249 497 l 1,0,1
EndSplineSet
EndChar

StartChar: s
Encoding: 115 115 84
Width: 610
GlyphClass: 2
Flags: W
LayerCount: 2
Fore
SplineSet
250 515 m 0,0,1
 256 515 256 515 256 508 c 1,2,-1
 294 515 l 1,3,-1
 307 515 l 1,4,5
 389 501 389 501 407 480 c 1,6,7
 430 480 430 480 457 508 c 1,8,-1
 471 514 l 1,9,10
 496 512 496 512 494 465 c 1,11,12
 480 446 480 446 479 433 c 0,13,14
 479 413 479 413 482 385 c 0,15,16
 482 382 482 382 482 365 c 0,17,18
 482 355 482 355 482 340 c 1,19,-1
 469 333 l 1,20,-1
 444 333 l 1,21,22
 436 349 436 349 436 377 c 1,23,-1
 428 398 l 1,24,25
 421 444 421 444 326 453 c 0,26,27
 319 453 319 453 307 446 c 1,28,29
 275 453 275 453 256 453 c 0,30,31
 191 452 191 452 182 390 c 1,32,-1
 184 371 l 1,33,34
 208 319 208 319 314 310 c 1,35,36
 314 304 314 304 326 304 c 2,37,-1
 368 304 l 1,38,39
 439 289 439 289 463 264 c 1,40,41
 496 248 496 248 512 192 c 1,42,43
 519 152 519 152 510 113 c 0,44,45
 500 81 500 81 483 60 c 0,46,47
 439 7 439 7 326 -1 c 1,48,49
 202 10 202 10 169 38 c 1,50,51
 169 28 169 28 150 18 c 1,52,-1
 119 18 l 2,53,54
 107 18 107 18 107 31 c 0,55,56
 107 105 107 105 116 133 c 1,57,-1
 116 147 l 1,58,59
 100 178 100 178 100 208 c 1,60,-1
 125 228 l 1,61,-1
 138 228 l 1,62,63
 168 215 168 215 200 126 c 1,64,65
 228 84 228 84 298 75 c 0,66,67
 333 71 333 71 372 77 c 0,68,69
 434 91 434 91 434 152 c 2,70,-1
 434 166 l 1,71,72
 423 231 423 231 358 240 c 1,73,-1
 317 249 l 1,74,75
 144 256 144 256 144 324 c 1,76,77
 134 324 134 324 119 351 c 1,78,-1
 125 365 l 1,79,-1
 119 406 l 1,80,81
 119 438 119 438 157 467 c 1,82,83
 157 478 157 478 213 494 c 1,84,85
 219 515 219 515 250 515 c 0,0,1
EndSplineSet
EndChar

StartChar: t
Encoding: 116 116 85
Width: 610
GlyphClass: 2
Flags: W
LayerCount: 2
Fore
SplineSet
242 709 m 1,0,-1
 267 709 l 1,1,2
 296 700 296 700 296 657 c 0,3,4
 292 610 292 610 294 518 c 1,5,-1
 312 508 l 1,6,7
 390 500 390 500 482 503 c 1,8,9
 511 481 511 481 493 441 c 1,10,11
 439 434 439 434 419 434 c 0,12,13
 393 434 393 434 333 434 c 1,14,15
 292 438 292 438 294 406 c 2,16,-1
 294 248 l 2,17,18
 292 190 292 190 298 172 c 1,19,-1
 302 134 l 1,20,-1
 318 94 l 1,21,-1
 350 74 l 1,22,23
 404 70 404 70 428 111 c 1,24,25
 440 148 440 148 440 181 c 1,26,-1
 456 212 l 1,27,28
 479 230 479 230 504 225 c 1,29,30
 522 187 522 187 522 170 c 0,31,32
 523 120 523 120 488 61 c 0,33,34
 461 20 461 20 391 -4 c 1,35,-1
 335 -7 l 1,36,37
 279 3 279 3 243 61 c 1,38,39
 221 123 221 123 221 215 c 1,40,-1
 226 294 l 1,41,42
 224 371 224 371 224 385 c 2,43,-1
 224 399 l 2,44,45
 224 434 224 434 174 434 c 2,46,-1
 95 428 l 1,47,48
 56 441 56 441 52 461 c 1,49,-1
 52 476 l 1,50,51
 65 509 65 509 75 509 c 2,52,-1
 100 509 l 1,53,54
 123 503 123 503 193 506 c 1,55,56
 213 502 213 502 221 532 c 1,57,58
 225 575 225 575 225 593 c 0,59,60
 225 597 225 597 219 628 c 1,61,62
 217 695 217 695 242 709 c 1,0,-1
EndSplineSet
EndChar

StartChar: u
Encoding: 117 117 86
Width: 610
GlyphClass: 2
Flags: W
LayerCount: 2
Fore
SplineSet
53 505 m 2,0,-1
 59 505 l 2,1,2
 80 505 80 505 90 499 c 1,3,-1
 144 505 l 1,4,5
 192 505 192 505 192 444 c 2,6,-1
 189 289 l 1,7,-1
 187 249 l 1,8,9
 179 210 179 210 179 192 c 0,10,11
 183 151 183 151 199 131 c 1,12,13
 210 90 210 90 255 85 c 1,14,15
 288 90 288 90 346 112 c 1,16,17
 397 165 397 165 408 218 c 0,18,19
 422 270 422 270 425 320 c 2,20,-1
 424 417 l 1,21,22
 403 431 403 431 386 431 c 0,23,24
 339 424 339 424 331 424 c 1,25,-1
 303 455 l 1,26,-1
 311 475 l 2,27,28
 319 495 319 495 337 505 c 1,29,-1
 375 499 l 1,30,31
 407 505 407 505 437 505 c 0,32,33
 482 505 482 505 500 460 c 1,34,-1
 491 308 l 1,35,-1
 488 176 l 1,36,-1
 484 109 l 1,37,38
 507 71 507 71 585 75 c 1,39,-1
 599 49 l 1,40,-1
 599 36 l 1,41,42
 583 1 583 1 549 1 c 2,43,-1
 543 1 l 1,44,45
 425 -7 425 -7 425 22 c 2,46,-1
 425 28 l 2,47,48
 425 47 425 47 424 83 c 1,49,50
 418 96 418 96 418 104 c 1,51,-1
 412 104 l 1,52,53
 373 32 373 32 282 8 c 0,54,55
 232 -5 232 -5 229 -5 c 0,56,57
 133 23 133 23 133 83 c 1,58,59
 121 85 121 85 114 124 c 1,60,-1
 115 158 l 1,61,-1
 109 192 l 2,62,63
 109 197 109 197 112 273 c 2,64,-1
 115 344 l 2,65,66
 115 382 115 382 115 403 c 1,67,68
 83 436 83 436 21 437 c 1,69,-1
 21 478 l 2,70,71
 22 505 22 505 53 505 c 2,0,-1
EndSplineSet
EndChar

StartChar: v
Encoding: 118 118 87
Width: 610
GlyphClass: 2
Flags: W
LayerCount: 2
Fore
SplineSet
567 495 m 1,0,1
 589 478 589 478 585.5 454.5 c 128,-1,2
 582 431 582 431 554 423 c 1,3,-1
 500 421 l 1,4,-1
 492 410 l 1,5,6
 409 171 409 171 397 129 c 0,7,8
 384 88 384 88 378 75 c 0,9,10
 364 37 364 37 350 16 c 0,11,12
 335 -16 335 -16 308 -16 c 2,13,-1
 295 -16 l 1,14,15
 269 -3 269 -3 237 87 c 0,16,17
 225 112 225 112 161 282 c 0,18,19
 140 337 140 337 115 397 c 0,20,21
 109 415 109 415 99 423 c 1,22,23
 87 423 87 423 73 424.5 c 128,-1,24
 59 426 59 426 46 429 c 128,-1,25
 33 432 33 432 27.5 438.5 c 128,-1,26
 22 445 22 445 19 470 c 1,27,28
 21 487 21 487 43 496 c 1,29,-1
 215 501 l 2,30,31
 249 501 249 501 260.5 493 c 128,-1,32
 272 485 272 485 276 467 c 1,33,34
 272 446 272 446 246.5 433 c 128,-1,35
 221 420 221 420 192 426 c 1,36,-1
 195 413 l 1,37,-1
 238 277 l 1,38,39
 265 212 265 212 277.5 182.5 c 128,-1,40
 290 153 290 153 301 133 c 0,41,42
 309 126 309 126 320 134 c 1,43,44
 334 162 334 162 353 210 c 2,45,-1
 406 378 l 2,46,47
 412 405 412 405 409 416 c 1,48,-1
 393 431 l 1,49,50
 369 435 369 435 345 436 c 1,51,52
 334 450 334 450 334 469 c 256,53,54
 334 488 334 488 346 491 c 0,55,56
 358 492 358 492 366 492 c 0,57,58
 377 494 377 494 380 494 c 2,59,-1
 405 497 l 2,60,61
 446 499 446 499 510 499 c 1,62,-1
 567 495 l 1,0,1
EndSplineSet
EndChar

StartChar: w
Encoding: 119 119 88
Width: 610
GlyphClass: 2
Flags: W
LayerCount: 2
Fore
SplineSet
71 499 m 2,0,-1
 192 499 l 1,1,2
 232 481 232 481 208 447 c 1,3,4
 148 447 148 447 140 421 c 1,5,6
 162 285 162 285 195 101 c 1,7,-1
 206 103 l 1,8,9
 221 187 221 187 278 385 c 1,10,11
 302 418 302 418 323 410 c 0,12,13
 343 405 343 405 353 358 c 2,14,-1
 405 123 l 1,15,-1
 417 124 l 1,16,17
 457 309 457 309 465 409 c 1,18,19
 474 445 474 445 410 451 c 1,20,-1
 410 472 l 1,21,22
 421 500 421 500 468 500 c 2,23,-1
 564 500 l 2,24,25
 602 500 602 500 596 449 c 1,26,27
 555 456 555 456 540 423 c 0,28,29
 531 409 531 409 502.5 244.5 c 128,-1,30
 474 80 474 80 448 0 c 1,31,32
 430 -20 430 -20 394 -15 c 1,33,-1
 374 6 l 1,34,35
 353 56 353 56 333 160 c 2,36,-1
 314 267 l 1,37,-1
 301 267 l 1,38,-1
 297 248 l 1,39,-1
 255 91 l 2,40,41
 235 16 235 16 227 -13 c 1,42,-1
 203 -22 l 1,43,-1
 171 -13 l 1,44,-1
 150 24 l 1,45,-1
 116 181 l 1,46,-1
 71 417 l 1,47,48
 57 436 57 436 21 434 c 0,49,50
 7 434 7 434 7 455 c 2,51,-1
 7 464 l 1,52,53
 18 499 18 499 71 499 c 2,0,-1
EndSplineSet
EndChar

StartChar: x
Encoding: 120 120 89
Width: 610
GlyphClass: 2
Flags: W
LayerCount: 2
Fore
SplineSet
213 506 m 1,0,1
 287 500 287 500 287 479 c 2,2,-1
 287 459 l 1,3,-1
 258 452 l 1,4,-1
 238 445 l 1,5,-1
 238 435 l 1,6,7
 242 418 242 418 252 403 c 0,8,9
 263 384 263 384 284 356 c 0,10,11
 297 337 297 337 306 323 c 1,12,-1
 321 316 l 1,13,14
 329 317 329 317 403 423 c 1,15,-1
 403 443 l 1,16,17
 363 443 363 443 363 464 c 2,18,-1
 363 477 l 2,19,20
 363 498 363 498 431 502 c 1,21,-1
 500 501 l 1,22,-1
 545 495 l 2,23,24
 569 493 569 493 570 471 c 2,25,-1
 569 457 l 2,26,27
 569 443 569 443 541 441 c 2,28,-1
 503 441 l 1,29,30
 475 433 475 433 458 408 c 0,31,32
 404 339 404 339 351 267 c 1,33,34
 422 160 422 160 473 100 c 0,35,36
 501 64 501 64 532 64 c 1,37,-1
 563 70 l 1,38,39
 594 61 594 61 586 23 c 1,40,41
 552 2 552 2 530 2 c 0,42,43
 522 2 522 2 467 9 c 0,44,45
 463 9 463 9 430 2 c 1,46,-1
 342 16 l 1,47,-1
 342 30 l 2,48,49
 342 56 342 56 393 71 c 1,50,51
 386 116 386 116 316 200 c 1,52,-1
 305 203 l 1,53,54
 246 126 246 126 222 90 c 1,55,-1
 222 73 l 1,56,57
 256 66 256 66 272 66 c 1,58,-1
 282 38 l 1,59,60
 272 16 272 16 253 5 c 1,61,62
 214 5 214 5 180 10 c 2,63,-1
 147 12 l 2,64,65
 101 18 101 18 63 12 c 1,66,-1
 35 12 l 1,67,68
 22 29 22 29 22 39 c 0,69,70
 35 70 35 70 47 73 c 2,71,-1
 85 73 l 1,72,73
 113 69 113 69 155 114 c 2,74,-1
 279 262 l 1,75,76
 262 295 262 295 218 356 c 0,77,78
 183 405 183 405 169 426 c 1,79,80
 153 437 153 437 153 445 c 1,81,-1
 117 452 l 1,82,-1
 73 452 l 2,83,84
 64 452 64 452 55 472 c 1,85,-1
 55 486 l 2,86,87
 57 500 57 500 67 500 c 0,88,89
 99 510 99 510 120 503 c 1,90,-1
 213 506 l 1,0,1
EndSplineSet
EndChar

StartChar: y
Encoding: 121 121 90
Width: 610
GlyphClass: 2
Flags: W
LayerCount: 2
Fore
SplineSet
194 429 m 1,0,-1
 197 414 l 1,1,-1
 228 330 l 1,2,3
 281 199 281 199 314 144 c 1,4,5
 326 105 326 105 344 141 c 0,6,7
 386 221 386 221 419 348 c 1,8,-1
 433 395 l 1,9,-1
 430 408 l 2,10,11
 419 442 419 442 356 437 c 1,12,-1
 350 470 l 2,13,14
 344 501 344 501 374 503 c 2,15,-1
 476 506 l 1,16,-1
 535 503 l 1,17,-1
 563 503 l 2,18,19
 594 504 594 504 601 470 c 1,20,21
 602 427 602 427 571 422 c 1,22,23
 549 427 549 427 523 422 c 1,24,25
 510 393 510 393 495 360 c 2,26,-1
 448 228 l 1,27,-1
 404 112 l 2,28,29
 379 40 379 40 360 0 c 2,30,-1
 331 -64 l 1,31,-1
 317 -98 l 1,32,33
 285 -150 285 -150 268 -169 c 0,34,35
 237 -195 237 -195 184 -204 c 1,36,-1
 130 -206 l 1,37,38
 95 -202 95 -202 68 -184 c 2,39,-1
 44 -165 l 2,40,41
 17 -141 17 -141 20 -85 c 1,42,-1
 39 -40 l 1,43,44
 108 18 108 18 147 -46 c 0,45,46
 158 -67 158 -67 157 -88 c 0,47,48
 157 -111 157 -111 131 -123 c 1,49,50
 131 -134 131 -134 157 -144 c 1,51,52
 236 -152 236 -152 267 -63 c 0,53,54
 281 -26 281 -26 284 20 c 2,55,-1
 284 36 l 1,56,57
 270 77 270 77 263 93 c 0,58,59
 223 191 223 191 145 344 c 0,60,61
 126 377 126 377 103 419 c 1,62,63
 75 435 75 435 28 432 c 1,64,-1
 20 452 l 1,65,-1
 20 480 l 2,66,67
 20 496 20 496 65 501 c 0,68,69
 93 501 93 501 134 502 c 0,70,71
 210 503 210 503 238 503 c 2,72,-1
 244 503 l 1,73,74
 258 498 258 498 265 476 c 1,75,-1
 265 459 l 1,76,77
 256 433 256 433 220 432 c 2,78,-1
 194 429 l 1,0,-1
EndSplineSet
EndChar

StartChar: z
Encoding: 122 122 91
Width: 610
GlyphClass: 2
Flags: W
LayerCount: 2
Fore
SplineSet
449 505 m 1,0,1
 505 497 505 497 492 444 c 1,2,3
 461 381 461 381 378 294 c 1,4,5
 243 140 243 140 217 102 c 1,6,7
 198 65 198 65 250 65 c 2,8,-1
 325 65 l 1,9,-1
 392 65 l 1,10,11
 453 73 453 73 452 171 c 1,12,13
 442 222 442 222 471 239 c 1,14,-1
 476 239 l 2,15,16
 519 237 519 237 516 157 c 0,17,18
 511 8 511 8 470 3 c 0,19,20
 446 0 446 0 399 -7 c 1,21,22
 214 1 214 1 190 1 c 0,23,24
 169 1 169 1 121 -2 c 1,25,26
 60 3 60 3 89 66 c 1,27,28
 127 116 127 116 195 189 c 0,29,30
 291 296 291 296 378 397 c 0,31,32
 411 437 411 437 358 443 c 1,33,-1
 301 443 l 1,34,-1
 249 444 l 2,35,36
 183 446 183 446 183 430 c 1,37,-1
 168 392 l 1,38,39
 168 372 168 372 174 350 c 1,40,41
 177 309 177 309 135 309 c 2,42,-1
 128 309 l 2,43,44
 119 309 119 309 97 342 c 1,45,-1
 97 371 l 2,46,47
 97 389 97 389 99 419 c 0,48,49
 106 505 106 505 148 505 c 2,50,-1
 449 505 l 1,0,1
EndSplineSet
EndChar

StartChar: braceleft
Encoding: 123 123 92
Width: 610
GlyphClass: 2
Flags: W
LayerCount: 2
Fore
SplineSet
207 281 m 1,0,1
 241 266 241 266 261.5 251.5 c 128,-1,2
 282 237 282 237 300.5 213.5 c 128,-1,3
 319 190 319 190 328.5 162.5 c 128,-1,4
 338 135 338 135 338 95 c 0,5,6
 338 74 338 74 336 52 c 128,-1,7
 334 30 334 30 331 11 c 128,-1,8
 328 -8 328 -8 325 -23.5 c 128,-1,9
 322 -39 322 -39 322 -46 c 0,10,11
 322 -109 322 -109 358 -139 c 128,-1,12
 394 -169 394 -169 474 -164 c 1,13,-1
 474 -206 l 1,14,15
 402 -203 402 -203 367 -190.5 c 128,-1,16
 332 -178 332 -178 302.5 -157 c 128,-1,17
 273 -136 273 -136 256 -106.5 c 128,-1,18
 239 -77 239 -77 239 -40 c 0,19,20
 239 -18 239 -18 242.5 3.5 c 128,-1,21
 246 25 246 25 251.5 46 c 128,-1,22
 257 67 257 67 260 87.5 c 128,-1,23
 263 108 263 108 263 140 c 0,24,25
 263 167 263 167 251.5 187.5 c 128,-1,26
 240 208 240 208 225 222.5 c 128,-1,27
 210 237 210 237 186 245 c 128,-1,28
 162 253 162 253 87 259 c 1,29,-1
 87 310 l 1,30,31
 198 315 198 315 227.5 344.5 c 128,-1,32
 257 374 257 374 257 417 c 0,33,34
 257 474 257 474 246 515 c 128,-1,35
 235 556 235 556 235 598 c 0,36,37
 235 637 235 637 253.5 667 c 128,-1,38
 272 697 272 697 300.5 718.5 c 128,-1,39
 329 740 329 740 373.5 752 c 128,-1,40
 418 764 418 764 468 765 c 1,41,-1
 468 732 l 1,42,43
 389 724 389 724 351.5 688.5 c 128,-1,44
 314 653 314 653 314 606 c 0,45,46
 314 570 314 570 323 535 c 128,-1,47
 332 500 332 500 332 464 c 0,48,49
 332 422 332 422 321 392.5 c 128,-1,50
 310 363 310 363 290.5 340 c 128,-1,51
 271 317 271 317 251 303 c 128,-1,52
 231 289 231 289 207 281 c 1,0,1
EndSplineSet
EndChar

StartChar: bar
Encoding: 124 124 93
Width: 610
GlyphClass: 2
Flags: W
LayerCount: 2
Fore
SplineSet
265 806 m 1,0,-1
 276 812 l 2,1,2
 298 820 298 820 330 798 c 1,3,4
 358 753 358 753 339 742 c 1,5,6
 346 731 346 731 338 622 c 1,7,-1
 340 356 l 1,8,-1
 341 -16 l 2,9,10
 339 -66 339 -66 347 -136 c 1,11,-1
 335 -199 l 1,12,-1
 324 -202 l 2,13,14
 317 -206 317 -206 294 -194 c 2,15,-1
 262 -174 l 1,16,17
 249 -78 249 -78 256 -9 c 1,18,-1
 260 299 l 1,19,20
 257 484 257 484 257 586 c 1,21,-1
 249 719 l 1,22,23
 260 738 260 738 258 795 c 1,24,-1
 265 806 l 1,0,-1
EndSplineSet
EndChar

StartChar: braceright
Encoding: 125 125 94
Width: 610
GlyphClass: 2
Flags: W
LayerCount: 2
Fore
SplineSet
364 281 m 1,0,1
 340 289 340 289 320 303 c 128,-1,2
 300 317 300 317 280.5 340 c 128,-1,3
 261 363 261 363 250 392.5 c 128,-1,4
 239 422 239 422 239 464 c 0,5,6
 239 500 239 500 248 535 c 128,-1,7
 257 570 257 570 257 606 c 0,8,9
 257 653 257 653 219.5 688.5 c 128,-1,10
 182 724 182 724 103 732 c 1,11,-1
 103 765 l 1,12,13
 153 764 153 764 197.5 752 c 128,-1,14
 242 740 242 740 270.5 718.5 c 128,-1,15
 299 697 299 697 317.5 667 c 128,-1,16
 336 637 336 637 336 598 c 0,17,18
 336 556 336 556 325 515 c 128,-1,19
 314 474 314 474 314 417 c 0,20,21
 314 374 314 374 343.5 344.5 c 128,-1,22
 373 315 373 315 484 310 c 1,23,-1
 484 259 l 1,24,25
 409 253 409 253 385 245 c 128,-1,26
 361 237 361 237 346 222.5 c 128,-1,27
 331 208 331 208 319.5 187.5 c 128,-1,28
 308 167 308 167 308 140 c 0,29,30
 308 108 308 108 311 87.5 c 128,-1,31
 314 67 314 67 319.5 46 c 128,-1,32
 325 25 325 25 328.5 3.5 c 128,-1,33
 332 -18 332 -18 332 -40 c 0,34,35
 332 -77 332 -77 315 -106.5 c 128,-1,36
 298 -136 298 -136 268.5 -157 c 128,-1,37
 239 -178 239 -178 204 -190.5 c 128,-1,38
 169 -203 169 -203 97 -206 c 1,39,-1
 97 -164 l 1,40,41
 177 -169 177 -169 213 -139 c 128,-1,42
 249 -109 249 -109 249 -46 c 0,43,44
 249 -39 249 -39 246 -23.5 c 128,-1,45
 243 -8 243 -8 240 11 c 128,-1,46
 237 30 237 30 235 52 c 128,-1,47
 233 74 233 74 233 95 c 0,48,49
 233 135 233 135 242.5 162.5 c 128,-1,50
 252 190 252 190 270.5 213.5 c 128,-1,51
 289 237 289 237 309.5 251.5 c 128,-1,52
 330 266 330 266 364 281 c 1,0,1
EndSplineSet
EndChar

StartChar: asciitilde
Encoding: 126 126 95
Width: 610
GlyphClass: 2
Flags: W
LayerCount: 2
Fore
SplineSet
219 413 m 0,0,1
 243 404 243 404 270 387 c 128,-1,2
 297 370 297 370 321 354 c 0,3,4
 348 332 348 332 374.5 316.5 c 128,-1,5
 401 301 401 301 427 298 c 0,6,7
 497 285 497 285 519 406 c 1,8,-1
 561 396 l 1,9,10
 553 276 553 276 511 237.5 c 128,-1,11
 469 199 469 199 401 220 c 0,12,13
 352 238 352 238 289 285 c 0,14,15
 258 310 258 310 239.5 319 c 128,-1,16
 221 328 221 328 199 334 c 0,17,18
 172 342 172 342 146.5 325.5 c 128,-1,19
 121 309 121 309 100 219 c 1,20,-1
 47 230 l 1,21,22
 63 350 63 350 116.5 389.5 c 128,-1,23
 170 429 170 429 219 413 c 0,0,1
EndSplineSet
EndChar

StartChar: exclamdown
Encoding: 161 161 97
Width: 610
GlyphClass: 2
Flags: W
LayerCount: 2
Fore
SplineSet
370 -147 m 0,0,1
 368 -167 368 -167 351 -186.5 c 128,-1,2
 334 -206 334 -206 305 -206 c 0,3,4
 271 -204 271 -204 257.5 -184.5 c 128,-1,5
 244 -165 244 -165 244 -147 c 0,6,7
 249 -105 249 -105 263.5 9 c 128,-1,8
 278 123 278 123 278 251 c 1,9,-1
 334 251 l 1,10,11
 337 123 337 123 353.5 5.5 c 128,-1,12
 370 -112 370 -112 370 -147 c 0,0,1
306 500 m 0,13,14
 332 500 332 500 353 481.5 c 128,-1,15
 374 463 374 463 374 430 c 0,16,17
 374 403 374 403 355 383.5 c 128,-1,18
 336 364 336 364 306 364 c 0,19,20
 277 364 277 364 256.5 382.5 c 128,-1,21
 236 401 236 401 236 430 c 0,22,23
 236 458 236 458 255 479 c 128,-1,24
 274 500 274 500 306 500 c 0,13,14
EndSplineSet
EndChar

StartChar: cent
Encoding: 162 162 98
Width: 610
GlyphClass: 2
Flags: W
LayerCount: 2
Fore
SplineSet
263 11 m 1,0,1
 187 29 187 29 132.5 92 c 128,-1,2
 78 155 78 155 78 254 c 0,3,4
 78 301 78 301 95.5 344 c 128,-1,5
 113 387 113 387 144 420.5 c 128,-1,6
 175 454 175 454 217.5 475 c 128,-1,7
 260 496 260 496 311 499 c 1,8,-1
 337 767 l 1,9,-1
 391 767 l 1,10,-1
 363 499 l 1,11,12
 430 491 430 491 470.5 452 c 128,-1,13
 511 413 511 413 511 371 c 0,14,15
 511 343 511 343 494.5 322 c 128,-1,16
 478 301 478 301 444 301 c 0,17,18
 418 301 418 301 402 315 c 128,-1,19
 386 329 386 329 386 354 c 0,20,21
 386 397 386 397 425 416 c 1,22,23
 416 425 416 425 398.5 434 c 128,-1,24
 381 443 381 443 359 447 c 1,25,-1
 322 63 l 1,26,27
 388 64 388 64 421.5 94.5 c 128,-1,28
 455 125 455 125 473 176 c 1,29,-1
 532 157 l 1,30,31
 512 91 512 91 459.5 47.5 c 128,-1,32
 407 4 407 4 318 8 c 1,33,-1
 301 -200 l 1,34,-1
 242 -200 l 1,35,-1
 263 11 l 1,0,1
304 448 m 1,36,37
 251 440 251 440 201.5 396 c 128,-1,38
 152 352 152 352 152 254 c 0,39,40
 152 180 152 180 188.5 133.5 c 128,-1,41
 225 87 225 87 266 76 c 1,42,-1
 304 448 l 1,36,37
EndSplineSet
EndChar

StartChar: sterling
Encoding: 163 163 99
Width: 610
GlyphClass: 2
Flags: W
LayerCount: 2
Fore
SplineSet
111 -6 m 0,0,1
 56 -6 56 -6 31.5 22.5 c 128,-1,2
 7 51 7 51 14 94 c 0,3,4
 20 136 20 136 56.5 166.5 c 128,-1,5
 93 197 93 197 144 197 c 0,6,7
 192 197 192 197 231 172 c 1,8,-1
 231 176 l 1,9,10
 238 217 238 217 233.5 242 c 128,-1,11
 229 267 229 267 221 301 c 1,12,-1
 68 301 l 1,13,-1
 86 363 l 1,14,-1
 210 363 l 1,15,16
 181 409 181 409 171.5 441 c 128,-1,17
 162 473 162 473 162 518 c 1,18,19
 167 558 167 558 189 592 c 128,-1,20
 211 626 211 626 243 652.5 c 128,-1,21
 275 679 275 679 316 693.5 c 128,-1,22
 357 708 357 708 403 708 c 0,23,24
 458 708 458 708 495 693.5 c 128,-1,25
 532 679 532 679 553.5 654.5 c 128,-1,26
 575 630 575 630 583 602 c 128,-1,27
 591 574 591 574 586 545 c 0,28,29
 577 497 577 497 517 493 c 1,30,31
 475 510 475 510 476 534 c 0,32,33
 480 560 480 560 486.5 576 c 128,-1,34
 493 592 493 592 507 601 c 1,35,36
 503 613 503 613 478.5 631.5 c 128,-1,37
 454 650 454 650 404 654 c 1,38,39
 348 654 348 654 297.5 622.5 c 128,-1,40
 247 591 247 591 233 532 c 0,41,42
 224 481 224 481 236 449 c 128,-1,43
 248 417 248 417 281 363 c 1,44,-1
 470 363 l 1,45,-1
 449 301 l 1,46,-1
 294 301 l 1,47,48
 303 258 303 258 300 208 c 0,49,50
 298 193 298 193 293.5 179 c 128,-1,51
 289 165 289 165 284 150 c 1,52,53
 308 120 308 120 329 104 c 128,-1,54
 350 88 350 88 411 74 c 1,55,56
 475 74 475 74 498 103 c 128,-1,57
 521 132 521 132 531 191 c 1,58,-1
 588 191 l 1,59,60
 583 148 583 148 572 116.5 c 128,-1,61
 561 85 561 85 538 57.5 c 128,-1,62
 515 30 515 30 484.5 12 c 128,-1,63
 454 -6 454 -6 404 -6 c 1,64,65
 332 8 332 8 303.5 29.5 c 128,-1,66
 275 51 275 51 260 84 c 1,67,68
 220 32 220 32 183 13 c 128,-1,69
 146 -6 146 -6 111 -6 c 0,0,1
122 51 m 0,70,71
 146 51 146 51 169 66 c 128,-1,72
 192 81 192 81 206 108 c 1,73,74
 192 123 192 123 175.5 131.5 c 128,-1,75
 159 140 159 140 137 140 c 0,76,77
 108 140 108 140 91.5 127 c 128,-1,78
 75 114 75 114 72 94 c 0,79,80
 65 51 65 51 122 51 c 0,70,71
EndSplineSet
EndChar

StartChar: currency
Encoding: 164 164 100
Width: 610
GlyphClass: 2
Flags: W
LayerCount: 2
Fore
SplineSet
306 594 m 256,0,1
 261 594 261 594 221 576.5 c 128,-1,2
 181 559 181 559 151 529 c 128,-1,3
 121 499 121 499 104 459 c 128,-1,4
 87 419 87 419 87 374 c 256,5,6
 87 329 87 329 104.5 289.5 c 128,-1,7
 122 250 122 250 151.5 220.5 c 128,-1,8
 181 191 181 191 221 174 c 128,-1,9
 261 157 261 157 306 157 c 256,10,11
 351 157 351 157 390.5 174 c 128,-1,12
 430 191 430 191 459.5 220.5 c 128,-1,13
 489 250 489 250 506.5 289.5 c 128,-1,14
 524 329 524 329 524 374 c 256,15,16
 524 419 524 419 507 459 c 128,-1,17
 490 499 490 499 460 529 c 128,-1,18
 430 559 430 559 390.5 576.5 c 128,-1,19
 351 594 351 594 306 594 c 256,0,1
11 120 m 1,20,-1
 95 204 l 1,21,22
 64 237 64 237 50 283 c 128,-1,23
 36 329 36 329 36 374 c 0,24,25
 36 420 36 420 51.5 465 c 128,-1,26
 67 510 67 510 96 546 c 1,27,-1
 9 634 l 1,28,-1
 49 672 l 1,29,-1
 135 587 l 1,30,31
 171 614 171 614 215.5 629.5 c 128,-1,32
 260 645 260 645 306 645 c 0,33,34
 351 645 351 645 395.5 629.5 c 128,-1,35
 440 614 440 614 476 587 c 1,36,-1
 562 672 l 1,37,-1
 602 634 l 1,38,-1
 515 546 l 1,39,40
 547 512 547 512 561 466 c 128,-1,41
 575 420 575 420 575 374 c 0,42,43
 575 329 575 329 560.5 283 c 128,-1,44
 546 237 546 237 516 204 c 1,45,-1
 600 120 l 1,46,-1
 562 82 l 1,47,-1
 480 165 l 1,48,49
 439 134 439 134 395.5 120 c 128,-1,50
 352 106 352 106 306 106 c 0,51,52
 259 106 259 106 212.5 121.5 c 128,-1,53
 166 137 166 137 131 165 c 1,54,-1
 49 82 l 1,55,-1
 11 120 l 1,20,-1
EndSplineSet
EndChar

StartChar: yen
Encoding: 165 165 101
Width: 610
GlyphClass: 2
Flags: W
LayerCount: 2
Fore
SplineSet
166 56 m 1,0,1
 251 46 251 46 263.5 68.5 c 128,-1,2
 276 91 276 91 276 153 c 1,3,-1
 82 153 l 1,4,-1
 82 199 l 1,5,-1
 276 199 l 1,6,-1
 276 295 l 1,7,-1
 82 295 l 1,8,-1
 82 342 l 1,9,-1
 270 342 l 1,10,-1
 101 625 l 1,11,12
 58 643 58 643 8 649 c 1,13,-1
 8 700 l 1,14,-1
 240 700 l 1,15,-1
 240 652 l 1,16,17
 202 652 202 652 165 638 c 1,18,-1
 306 383 l 1,19,-1
 441 634 l 1,20,21
 415 650 415 650 362 654 c 1,22,-1
 362 700 l 1,23,-1
 595 700 l 1,24,-1
 595 652 l 1,25,26
 547 646 547 646 505 630 c 1,27,-1
 337 342 l 1,28,-1
 518 342 l 1,29,-1
 518 295 l 1,30,-1
 327 295 l 1,31,-1
 327 199 l 1,32,-1
 518 199 l 1,33,-1
 518 153 l 1,34,-1
 327 153 l 1,35,36
 327 123 327 123 328 105 c 128,-1,37
 329 87 329 87 333 73.5 c 128,-1,38
 337 60 337 60 355.5 57 c 128,-1,39
 374 54 374 54 433 56 c 1,40,-1
 433 1 l 1,41,-1
 166 1 l 1,42,-1
 166 56 l 1,0,1
EndSplineSet
EndChar

StartChar: brokenbar
Encoding: 166 166 102
Width: 610
GlyphClass: 2
Flags: W
LayerCount: 2
Fore
SplineSet
266 213 m 1,0,-1
 276 219 l 1,1,2
 298 226 298 226 316 205 c 0,3,4
 344 161 344 161 325 150 c 1,5,6
 332 139 332 139 332 88 c 2,7,-1
 332 -156 l 1,8,-1
 325 -191 l 1,9,-1
 319 -194 l 2,10,11
 312 -198 312 -198 280 -192 c 1,12,-1
 263 -166 l 1,13,14
 256 -121 256 -121 258 -98 c 2,15,-1
 259 202 l 1,16,-1
 266 213 l 1,0,-1
258 805 m 1,17,-1
 268 811 l 1,18,19
 290 819 290 819 308 797 c 0,20,21
 336 752 336 752 317 741 c 1,22,23
 324 730 324 730 320 638 c 1,24,25
 325 607 325 607 322 408 c 1,26,-1
 311 369 l 1,27,28
 304 365 304 365 270 362 c 1,29,-1
 254 400 l 1,30,31
 242 470 242 470 249 539 c 1,32,-1
 248 740 l 1,33,-1
 251 794 l 1,34,-1
 258 805 l 1,17,-1
EndSplineSet
EndChar

StartChar: section
Encoding: 167 167 103
Width: 610
GlyphClass: 2
Flags: W
LayerCount: 2
Fore
SplineSet
333 806 m 2,0,-1
 345 806 l 1,1,2
 403 782 403 782 420 766 c 0,3,4
 465 727 465 727 458 680 c 0,5,6
 453 624 453 624 398 624 c 1,7,8
 339 632 339 632 358 684 c 1,9,10
 372 741 372 741 315 744 c 0,11,12
 282 742 282 742 262 721 c 0,13,14
 241 700 241 700 244 673 c 2,15,-1
 244 667 l 2,16,17
 244 620 244 620 312 552 c 0,18,19
 353 506 353 506 405 445 c 1,20,21
 482 370 482 370 493 294 c 1,22,23
 506 266 506 266 498 230 c 0,24,25
 493 204 493 204 478 169 c 1,26,27
 445 118 445 118 376 105 c 1,28,-1
 405 66 l 1,29,-1
 419 31 l 1,30,-1
 422 -3 l 1,31,32
 414 -95 414 -95 330 -148 c 0,33,34
 315 -156 315 -156 278 -156 c 1,35,36
 207 -145 207 -145 167 -85 c 0,37,38
 149 -56 149 -56 153 -33 c 0,39,40
 164 38 164 38 227 35 c 1,41,-1
 250 23 l 2,42,43
 285 6 285 6 263 -51 c 1,44,-1
 281 -74 l 1,45,-1
 308 -74 l 1,46,47
 357 -36 357 -36 351 -3 c 1,48,49
 351 49 351 49 296 97 c 1,50,-1
 199 215 l 1,51,52
 164 250 164 250 149 282 c 0,53,54
 112 347 112 347 112 376 c 0,55,56
 105 496 105 496 225 554 c 1,57,58
 179 625 179 625 185 625 c 1,59,60
 176 644 176 644 178 667 c 0,61,62
 180 740 180 740 236 780 c 0,63,64
 272 803 272 803 333 806 c 2,0,-1
263 506 m 1,65,66
 209 506 209 506 188 418 c 0,67,68
 186 400 186 400 186 394 c 0,69,70
 186 367 186 367 206 322 c 1,71,72
 253 250 253 250 296 204 c 1,73,74
 327 179 327 179 351 162 c 1,75,-1
 357 162 l 2,76,77
 391 162 391 162 428 225 c 0,78,79
 441 245 441 245 441 263 c 1,80,81
 432 296 432 296 416 326 c 1,82,-1
 351 413 l 1,83,84
 317 442 317 442 289 483 c 1,85,-1
 263 506 l 1,65,66
EndSplineSet
EndChar

StartChar: dieresis
Encoding: 168 168 104
Width: 610
GlyphClass: 2
Flags: W
LayerCount: 2
Fore
SplineSet
183 589 m 0,0,1
 159 589 159 589 143 604.5 c 128,-1,2
 127 620 127 620 127 647 c 256,3,4
 127 674 127 674 142 691 c 128,-1,5
 157 708 157 708 183 708 c 0,6,7
 207 708 207 708 224 693.5 c 128,-1,8
 241 679 241 679 241 647 c 0,9,10
 241 622 241 622 226.5 605.5 c 128,-1,11
 212 589 212 589 183 589 c 0,0,1
420 589 m 0,12,13
 396 589 396 589 379 604.5 c 128,-1,14
 362 620 362 620 362 647 c 256,15,16
 362 674 362 674 377.5 691 c 128,-1,17
 393 708 393 708 420 708 c 0,18,19
 443 708 443 708 460.5 693.5 c 128,-1,20
 478 679 478 679 478 647 c 0,21,22
 478 622 478 622 461.5 605.5 c 128,-1,23
 445 589 445 589 420 589 c 0,12,13
EndSplineSet
EndChar

StartChar: copyright
Encoding: 169 169 105
Width: 610
GlyphClass: 2
Flags: W
LayerCount: 2
Fore
SplineSet
306 -78 m 0,0,1
 216 -78 216 -78 137 -44 c 128,-1,2
 58 -10 58 -10 0 51 c 128,-1,3
 -58 112 -58 112 -92 191.5 c 128,-1,4
 -126 271 -126 271 -126 363 c 0,5,6
 -126 457 -126 457 -92 537.5 c 128,-1,7
 -58 618 -58 618 0 679 c 128,-1,8
 58 740 58 740 137 775.5 c 128,-1,9
 216 811 216 811 306 811 c 0,10,11
 395 811 395 811 474 775.5 c 128,-1,12
 553 740 553 740 611.5 679 c 128,-1,13
 670 618 670 618 703.5 537.5 c 128,-1,14
 737 457 737 457 737 363 c 0,15,16
 737 273 737 273 703.5 192.5 c 128,-1,17
 670 112 670 112 611.5 52 c 128,-1,18
 553 -8 553 -8 474 -43 c 128,-1,19
 395 -78 395 -78 306 -78 c 0,0,1
306 -13 m 0,20,21
 385 -13 385 -13 451.5 14.5 c 128,-1,22
 518 42 518 42 567.5 93 c 128,-1,23
 617 144 617 144 645 213.5 c 128,-1,24
 673 283 673 283 673 363 c 0,25,26
 673 444 673 444 645 513.5 c 128,-1,27
 617 583 617 583 567.5 635.5 c 128,-1,28
 518 688 518 688 451.5 718 c 128,-1,29
 385 748 385 748 306 748 c 256,30,31
 227 748 227 748 160.5 719 c 128,-1,32
 94 690 94 690 44.5 638 c 128,-1,33
 -5 586 -5 586 -33 515 c 128,-1,34
 -61 444 -61 444 -61 363 c 0,35,36
 -61 286 -61 286 -33 216.5 c 128,-1,37
 -5 147 -5 147 43.5 95.5 c 128,-1,38
 92 44 92 44 158.5 15.5 c 128,-1,39
 225 -13 225 -13 306 -13 c 0,20,21
312 142 m 0,40,41
 269 142 269 142 231 159 c 128,-1,42
 193 176 193 176 164.5 206 c 128,-1,43
 136 236 136 236 120 277.5 c 128,-1,44
 104 319 104 319 104 369 c 0,45,46
 104 413 104 413 119 453 c 128,-1,47
 134 493 134 493 163.5 523.5 c 128,-1,48
 193 554 193 554 233 572.5 c 128,-1,49
 273 591 273 591 319 591 c 0,50,51
 355 591 355 591 385.5 580.5 c 128,-1,52
 416 570 416 570 435 553.5 c 128,-1,53
 454 537 454 537 466 515 c 128,-1,54
 478 493 478 493 478 470 c 0,55,56
 478 446 478 446 462 425 c 128,-1,57
 446 404 446 404 419 404 c 0,58,59
 398 404 398 404 381.5 418 c 128,-1,60
 365 432 365 432 365 454 c 0,61,62
 365 493 365 493 404 511 c 1,63,64
 396 522 396 522 373 534 c 128,-1,65
 350 546 350 546 319 546 c 0,66,67
 268 546 268 546 223.5 507 c 128,-1,68
 179 468 179 468 179 368 c 0,69,70
 179 320 179 320 189.5 288.5 c 128,-1,71
 200 257 200 257 226 237 c 128,-1,72
 252 217 252 217 274.5 206.5 c 128,-1,73
 297 196 297 196 320 196 c 0,74,75
 377 196 377 196 406 226.5 c 128,-1,76
 435 257 435 257 445 297 c 1,77,-1
 493 280 l 1,78,79
 476 220 476 220 431 181 c 128,-1,80
 386 142 386 142 312 142 c 0,40,41
EndSplineSet
EndChar

StartChar: ordfeminine
Encoding: 170 170 106
Width: 610
GlyphClass: 2
Flags: W
LayerCount: 2
Fore
SplineSet
231 452 m 256,0,1
 180 452 180 452 150.5 476.5 c 128,-1,2
 121 501 121 501 121 540 c 0,3,4
 121 577 121 577 143.5 600.5 c 128,-1,5
 166 624 166 624 201.5 637.5 c 128,-1,6
 237 651 237 651 280 658.5 c 128,-1,7
 323 666 323 666 366 670 c 1,8,9
 365 725 365 725 343 747 c 128,-1,10
 321 769 321 769 278 772 c 0,11,12
 250 771 250 771 230.5 762 c 128,-1,13
 211 753 211 753 201 737 c 1,14,15
 217 732 217 732 222 724.5 c 128,-1,16
 227 717 227 717 227 707 c 0,17,18
 227 692 227 692 216 681.5 c 128,-1,19
 205 671 205 671 186 671 c 0,20,21
 143 671 143 671 143 715 c 0,22,23
 143 748 143 748 180 779.5 c 128,-1,24
 217 811 217 811 280 811 c 0,25,26
 350 811 350 811 386 778.5 c 128,-1,27
 422 746 422 746 422 682 c 2,28,-1
 422 542 l 2,29,30
 422 520 422 520 424 509.5 c 128,-1,31
 426 499 426 499 440 499 c 0,32,33
 459 499 459 499 459 538 c 1,34,-1
 497 538 l 1,35,36
 500 489 500 489 479.5 470.5 c 128,-1,37
 459 452 459 452 428 452 c 0,38,39
 407 452 407 452 389.5 466.5 c 128,-1,40
 372 481 372 481 368 525 c 1,41,42
 342 491 342 491 312 471.5 c 128,-1,43
 282 452 282 452 231 452 c 256,0,1
246 505 m 0,44,45
 295 505 295 505 328 538 c 128,-1,46
 361 571 361 571 365 632 c 1,47,48
 283 621 283 621 252.5 611.5 c 128,-1,49
 222 602 222 602 205.5 585.5 c 128,-1,50
 189 569 189 569 189 546 c 0,51,52
 189 505 189 505 246 505 c 0,44,45
104 357 m 1,53,-1
 510 357 l 1,54,-1
 510 280 l 1,55,-1
 104 280 l 1,56,-1
 104 357 l 1,53,-1
EndSplineSet
EndChar

StartChar: guillemotleft
Encoding: 171 171 107
Width: 610
GlyphClass: 2
Flags: W
LayerCount: 2
Fore
SplineSet
330 268 m 1,0,-1
 330 326 l 1,1,-1
 547 529 l 1,2,-1
 547 463 l 1,3,-1
 411 297 l 1,4,-1
 547 131 l 1,5,-1
 547 62 l 1,6,-1
 330 268 l 1,0,-1
104 268 m 1,7,-1
 104 326 l 1,8,-1
 328 529 l 1,9,-1
 328 463 l 1,10,-1
 192 297 l 1,11,-1
 328 131 l 1,12,-1
 328 62 l 1,13,-1
 104 268 l 1,7,-1
EndSplineSet
EndChar

StartChar: logicalnot
Encoding: 172 172 108
Width: 610
GlyphClass: 2
Flags: W
LayerCount: 2
Fore
SplineSet
538 446 m 1,0,-1
 538 115 l 1,1,-1
 461 115 l 1,2,-1
 461 365 l 1,3,-1
 34 365 l 1,4,-1
 34 446 l 1,5,-1
 538 446 l 1,0,-1
EndSplineSet
EndChar

StartChar: uni00AD
Encoding: 173 173 109
Width: 610
GlyphClass: 2
Flags: W
LayerCount: 2
Fore
SplineSet
146 370 m 1,0,-1
 448 370 l 1,1,-1
 490 370 l 1,2,3
 530 359 530 359 530 323 c 2,4,-1
 530 299 l 1,5,6
 526 270 526 270 494 262 c 1,7,-1
 460 262 l 1,8,-1
 120 262 l 1,9,10
 80 268 80 268 82 309 c 2,11,-1
 82 331 l 1,12,13
 88 377 88 377 146 370 c 1,0,-1
EndSplineSet
EndChar

StartChar: registered
Encoding: 174 174 110
Width: 610
GlyphClass: 2
Flags: W
LayerCount: 2
Fore
SplineSet
522 390 m 0,0,1
 483 390 483 390 462 408 c 128,-1,2
 441 426 441 426 429 451 c 128,-1,3
 417 476 417 476 410.5 505 c 128,-1,4
 404 534 404 534 391 553 c 1,5,-1
 324 553 l 1,6,-1
 324 485 l 2,7,8
 324 453 324 453 333 444 c 128,-1,9
 342 435 342 435 385 435 c 1,10,-1
 385 394 l 1,11,-1
 209 394 l 1,12,-1
 209 435 l 1,13,14
 251 436 251 436 258.5 445.5 c 128,-1,15
 266 455 266 455 266 487 c 2,16,-1
 266 665 l 2,17,18
 266 697 266 697 258.5 704 c 128,-1,19
 251 711 251 711 209 711 c 1,20,-1
 209 754 l 1,21,-1
 404 754 l 2,22,23
 466 754 466 754 499 727.5 c 128,-1,24
 532 701 532 701 532 660 c 0,25,26
 532 627 532 627 511.5 597.5 c 128,-1,27
 491 568 491 568 447 558 c 1,28,29
 462 543 462 543 469.5 522 c 128,-1,30
 477 501 477 501 484 482.5 c 128,-1,31
 491 464 491 464 500 451 c 128,-1,32
 509 438 509 438 527 438 c 0,33,34
 549 438 549 438 555.5 449 c 128,-1,35
 562 460 562 460 565 483 c 1,36,-1
 599 483 l 1,37,38
 599 447 599 447 582 418.5 c 128,-1,39
 565 390 565 390 522 390 c 0,0,1
383 211 m 0,40,41
 310 211 310 211 245 238 c 128,-1,42
 180 265 180 265 132 313.5 c 128,-1,43
 84 362 84 362 56.5 426.5 c 128,-1,44
 29 491 29 491 29 564 c 0,45,46
 29 638 29 638 56.5 702.5 c 128,-1,47
 84 767 84 767 132 816 c 128,-1,48
 180 865 180 865 245 892.5 c 128,-1,49
 310 920 310 920 383 920 c 0,50,51
 457 920 457 920 522 892.5 c 128,-1,52
 587 865 587 865 635.5 816 c 128,-1,53
 684 767 684 767 711 702.5 c 128,-1,54
 738 638 738 638 738 564 c 0,55,56
 738 493 738 493 711 427.5 c 128,-1,57
 684 362 684 362 635.5 314.5 c 128,-1,58
 587 267 587 267 522 239 c 128,-1,59
 457 211 457 211 383 211 c 0,40,41
383 262 m 0,60,61
 449 262 449 262 504 284.5 c 128,-1,62
 559 307 559 307 599.5 348 c 128,-1,63
 640 389 640 389 663 444.5 c 128,-1,64
 686 500 686 500 686 564 c 0,65,66
 686 627 686 627 663 682.5 c 128,-1,67
 640 738 640 738 599.5 780 c 128,-1,68
 559 822 559 822 504 846 c 128,-1,69
 449 870 449 870 383 870 c 0,70,71
 320 870 320 870 265 847 c 128,-1,72
 210 824 210 824 169 782 c 128,-1,73
 128 740 128 740 105 683.5 c 128,-1,74
 82 627 82 627 82 564 c 0,75,76
 82 502 82 502 105 446.5 c 128,-1,77
 128 391 128 391 168 350 c 128,-1,78
 208 309 208 309 263 285.5 c 128,-1,79
 318 262 318 262 383 262 c 0,60,61
392 591 m 2,80,81
 439 591 439 591 453.5 610.5 c 128,-1,82
 468 630 468 630 468 658 c 0,83,84
 468 713 468 713 385 713 c 0,85,86
 340 713 340 713 332 708 c 128,-1,87
 324 703 324 703 324 675 c 2,88,-1
 324 591 l 1,89,-1
 392 591 l 2,80,81
EndSplineSet
EndChar

StartChar: macron
Encoding: 175 175 111
Width: 610
GlyphClass: 2
Flags: W
LayerCount: 2
Fore
SplineSet
-17 810 m 1,0,-1
 -17 882 l 1,1,-1
 621 882 l 1,2,-1
 621 810 l 1,3,-1
 -17 810 l 1,0,-1
EndSplineSet
EndChar

StartChar: degree
Encoding: 176 176 112
Width: 610
GlyphClass: 2
Flags: W
LayerCount: 2
Fore
SplineSet
297 508 m 0,0,1
 231 508 231 508 183 555.5 c 128,-1,2
 135 603 135 603 132 673 c 0,3,4
 132 739 132 739 181.5 787.5 c 128,-1,5
 231 836 231 836 297 836 c 0,6,7
 365 836 365 836 412.5 789.5 c 128,-1,8
 460 743 460 743 462 673 c 0,9,10
 462 607 462 607 414.5 557.5 c 128,-1,11
 367 508 367 508 297 508 c 0,0,1
297 572 m 0,12,13
 341 572 341 572 369.5 600.5 c 128,-1,14
 398 629 398 629 398 673 c 0,15,16
 398 713 398 713 369.5 740.5 c 128,-1,17
 341 768 341 768 297 769 c 0,18,19
 257 769 257 769 229.5 741.5 c 128,-1,20
 202 714 202 714 200 673 c 0,21,22
 200 632 200 632 226.5 603 c 128,-1,23
 253 574 253 574 297 572 c 0,12,13
EndSplineSet
EndChar

StartChar: plusminus
Encoding: 177 177 113
Width: 610
GlyphClass: 2
Flags: W
LayerCount: 2
Fore
SplineSet
64 -2 m 1,0,-1
 64 64 l 1,1,-1
 546 64 l 1,2,-1
 546 -2 l 1,3,-1
 64 -2 l 1,0,-1
273 366 m 1,4,-1
 64 366 l 1,5,-1
 64 428 l 1,6,-1
 273 428 l 1,7,-1
 273 637 l 1,8,-1
 335 637 l 1,9,-1
 335 428 l 1,10,-1
 546 428 l 1,11,-1
 546 366 l 1,12,-1
 335 366 l 1,13,-1
 335 163 l 1,14,-1
 273 163 l 1,15,-1
 273 366 l 1,4,-1
EndSplineSet
EndChar

StartChar: twosuperior
Encoding: 178 178 114
Width: 610
GlyphClass: 2
Flags: W
LayerCount: 2
Fore
SplineSet
345 850 m 1,0,1
 425 826 425 826 437 801 c 1,2,3
 485 801 485 801 499 676 c 1,4,-1
 499 664 l 1,5,-1
 494 636 l 1,6,-1
 499 636 l 1,7,8
 499 584 499 584 312 473 c 1,9,10
 205 440 205 440 205 386 c 0,11,12
 205 349 205 349 288 349 c 2,13,-1
 410 349 l 2,14,15
 417 349 417 349 427 343 c 1,16,17
 448 349 448 349 465 349 c 1,18,19
 488 341 488 341 499 322 c 1,20,-1
 499 316 l 1,21,22
 479 281 479 281 471 281 c 2,23,-1
 427 281 l 2,24,25
 403 281 403 281 366 278 c 1,26,-1
 161 284 l 2,27,28
 100 288 100 288 100 349 c 2,29,-1
 100 354 l 2,30,31
 100 450 100 450 277 539 c 1,32,33
 279 549 279 549 377 599 c 1,34,35
 377 605 377 605 417 643 c 1,36,37
 427 662 427 662 427 686 c 1,38,-1
 420 686 l 1,39,-1
 427 698 l 1,40,41
 385 806 385 806 290 788 c 1,42,43
 217 760 217 760 217 741 c 1,44,45
 180 741 180 741 173 654 c 1,46,-1
 140 654 l 2,47,48
 131 654 131 654 123 691 c 1,49,50
 156 806 156 806 189 806 c 1,51,52
 248 855 248 855 345 850 c 1,0,1
EndSplineSet
EndChar

StartChar: threesuperior
Encoding: 179 179 115
Width: 610
GlyphClass: 2
Flags: W
LayerCount: 2
Fore
SplineSet
422 876 m 1,0,1
 471 859 471 859 471 842 c 2,2,-1
 467 817 l 1,3,-1
 320 668 l 1,4,-1
 356 678 l 1,5,-1
 387 676 l 1,6,7
 448 657 448 657 473 593 c 0,8,9
 484 575 484 575 489 545 c 1,10,-1
 489 492 l 1,11,12
 478 406 478 406 419 347 c 1,13,14
 350 289 350 289 278 272 c 1,15,16
 267 252 267 252 188 236 c 1,17,-1
 181 236 l 1,18,-1
 153 249 l 1,19,20
 143 244 143 244 131 244 c 0,21,22
 122 244 122 244 116 267 c 1,23,24
 138 327 138 327 241 335 c 1,25,26
 299 349 299 349 343 382 c 0,27,28
 410 432 410 432 409 507 c 2,29,-1
 409 537 l 2,30,31
 409 588 409 588 350 620 c 1,32,-1
 331 623 l 2,33,34
 305 626 305 626 287 615 c 0,35,36
 235 593 235 593 213 593 c 2,37,-1
 202 593 l 2,38,39
 191 593 191 593 191 605 c 0,40,41
 191 638 191 638 261 694 c 1,42,43
 274 695 274 695 311 753 c 1,44,45
 336 753 336 753 355 790 c 1,46,-1
 355 802 l 2,47,48
 355 807 355 807 314 817 c 1,49,-1
 189 817 l 1,50,51
 184 804 184 804 149 784 c 1,52,-1
 131 784 l 2,53,54
 121 785 121 785 108 794 c 1,55,56
 99 838 99 838 140 876 c 1,57,-1
 422 876 l 1,0,1
EndSplineSet
EndChar

StartChar: acute
Encoding: 180 180 116
Width: 610
GlyphClass: 2
Flags: W
LayerCount: 2
Fore
SplineSet
318 715 m 2,0,1
 358 759 358 759 396 759 c 0,2,3
 417 759 417 759 427.5 745 c 128,-1,4
 438 731 438 731 434 709 c 0,5,6
 430 686 430 686 417 670 c 128,-1,7
 404 654 404 654 382 643 c 2,8,-1
 247 569 l 1,9,-1
 190 569 l 1,10,-1
 318 715 l 2,0,1
EndSplineSet
EndChar

StartChar: mu
Encoding: 181 181 117
Width: 610
GlyphClass: 2
Flags: W
LayerCount: 2
Fore
SplineSet
106 -52 m 2,0,1
 101 -94 101 -94 100.5 -106.5 c 128,-1,2
 100 -119 100 -119 114.5 -130.5 c 128,-1,3
 129 -142 129 -142 125 -155 c 1,4,5
 125 -179 125 -179 97 -192.5 c 128,-1,6
 69 -206 69 -206 54 -206 c 0,7,8
 40 -206 40 -206 34 -190.5 c 128,-1,9
 28 -175 28 -175 33 -143 c 2,10,-1
 122 374 l 2,11,12
 128 407 128 407 117.5 415.5 c 128,-1,13
 107 424 107 424 75 424 c 1,14,-1
 79 452 l 1,15,16
 101 454 101 454 118.5 457.5 c 128,-1,17
 136 461 136 461 151.5 466.5 c 128,-1,18
 167 472 167 472 181 480 c 128,-1,19
 195 488 195 488 209 501 c 1,20,-1
 219 502 l 1,21,-1
 161 162 l 2,22,23
 152 110 152 110 167 79 c 128,-1,24
 182 48 182 48 242 48 c 0,25,26
 280 48 280 48 323.5 79 c 128,-1,27
 367 110 367 110 397 198 c 1,28,-1
 426 374 l 2,29,30
 429 388 429 388 428.5 398 c 128,-1,31
 428 408 428 408 424 414 c 128,-1,32
 420 420 420 420 409 422 c 128,-1,33
 398 424 398 424 378 424 c 1,34,-1
 383 453 l 1,35,36
 430 458 430 458 458 469 c 128,-1,37
 486 480 486 480 514 502 c 1,38,-1
 522 502 l 1,39,-1
 460 136 l 2,40,41
 453 105 453 105 459.5 86.5 c 128,-1,42
 466 68 466 68 478 68 c 0,43,44
 507 68 507 68 561 114 c 1,45,-1
 568 82 l 1,46,47
 530 37 530 37 494 18.5 c 128,-1,48
 458 0 458 0 418 -5 c 1,49,50
 406 2 406 2 398.5 7.5 c 128,-1,51
 391 13 391 13 386 20.5 c 128,-1,52
 381 28 381 28 378 38 c 128,-1,53
 375 48 375 48 379 86 c 1,54,55
 346 30 346 30 312.5 13 c 128,-1,56
 279 -4 279 -4 210 -6 c 0,57,58
 171 -4 171 -4 151.5 12 c 128,-1,59
 132 28 132 28 128 65 c 1,60,-1
 106 -52 l 2,0,1
EndSplineSet
EndChar

StartChar: paragraph
Encoding: 182 182 118
Width: 610
GlyphClass: 2
Flags: W
LayerCount: 2
Fore
SplineSet
308 343 m 1,0,-1
 212 343 l 2,1,2
 127 343 127 343 82.5 400 c 128,-1,3
 38 457 38 457 38 547 c 0,4,5
 38 645 38 645 88.5 695.5 c 128,-1,6
 139 746 139 746 222 746 c 2,7,-1
 579 746 l 1,8,-1
 579 695 l 1,9,10
 546 693 546 693 531.5 691 c 128,-1,11
 517 689 517 689 509.5 681.5 c 128,-1,12
 502 674 502 674 499 660 c 128,-1,13
 496 646 496 646 496 621 c 2,14,-1
 496 -153 l 1,15,-1
 441 -153 l 1,16,-1
 441 620 l 2,17,18
 441 671 441 671 436.5 680 c 128,-1,19
 432 689 432 689 410 689 c 0,20,21
 404 689 404 689 389 689 c 128,-1,22
 374 689 374 689 371 682.5 c 128,-1,23
 368 676 368 676 367 660.5 c 128,-1,24
 366 645 366 645 366 616 c 2,25,-1
 366 -153 l 1,26,-1
 308 -153 l 1,27,-1
 308 343 l 1,0,-1
308 404 m 1,28,-1
 308 621 l 2,29,30
 308 648 308 648 307 662 c 128,-1,31
 306 676 306 676 301 682.5 c 128,-1,32
 296 689 296 689 284.5 691 c 128,-1,33
 273 693 273 693 252 693 c 0,34,35
 193 693 193 693 153.5 653 c 128,-1,36
 114 613 114 613 114 542 c 0,37,38
 114 474 114 474 153.5 439 c 128,-1,39
 193 404 193 404 237 404 c 2,40,-1
 308 404 l 1,28,-1
EndSplineSet
EndChar

StartChar: periodcentered
Encoding: 183 183 119
Width: 610
GlyphClass: 2
Flags: W
LayerCount: 2
Fore
SplineSet
303 233 m 0,0,1
 270 233 270 233 244.5 256.5 c 128,-1,2
 219 280 219 280 219 318 c 0,3,4
 219 351 219 351 243.5 377.5 c 128,-1,5
 268 404 268 404 303 404 c 0,6,7
 340 404 340 404 363.5 379.5 c 128,-1,8
 387 355 387 355 390 318 c 0,9,10
 390 287 390 287 366.5 260 c 128,-1,11
 343 233 343 233 303 233 c 0,0,1
EndSplineSet
EndChar

StartChar: cedilla
Encoding: 184 184 120
Width: 610
GlyphClass: 2
Flags: W
LayerCount: 2
Fore
SplineSet
286 -206 m 0,0,1
 251 -206 251 -206 223.5 -198.5 c 128,-1,2
 196 -191 196 -191 173 -176 c 1,3,-1
 198 -128 l 1,4,5
 240 -152 240 -152 283 -152 c 0,6,7
 327 -152 327 -152 339 -140.5 c 128,-1,8
 351 -129 351 -129 351 -108 c 0,9,10
 351 -83 351 -83 331.5 -73 c 128,-1,11
 312 -63 312 -63 265 -67 c 1,12,-1
 244 -52 l 1,13,-1
 264 34 l 1,14,-1
 319 34 l 1,15,-1
 304 -33 l 1,16,17
 346 -30 346 -30 380.5 -43 c 128,-1,18
 415 -56 415 -56 415 -111 c 0,19,20
 415 -157 415 -157 384 -181.5 c 128,-1,21
 353 -206 353 -206 286 -206 c 0,0,1
EndSplineSet
EndChar

StartChar: onesuperior
Encoding: 185 185 121
Width: 610
GlyphClass: 2
Flags: W
LayerCount: 2
Fore
SplineSet
333 862 m 2,0,1
 339 862 339 862 339 856 c 1,2,-1
 349 862 l 1,3,-1
 359 862 l 1,4,5
 387 849 387 849 387 828 c 2,6,-1
 387 811 l 1,7,8
 381 516 381 516 381 342 c 1,9,-1
 387 342 l 1,10,11
 376 283 376 283 359 283 c 0,12,13
 308 283 308 283 289 304 c 1,14,-1
 296 357 l 1,15,-1
 296 389 l 2,16,17
 296 395 296 395 300 395 c 2,18,-1
 307 673 l 1,19,20
 290 721 290 721 279 721 c 2,21,-1
 268 721 l 1,22,-1
 182 655 l 1,23,24
 129 666 129 666 145 710 c 1,25,-1
 302 849 l 1,26,-1
 333 862 l 2,0,1
EndSplineSet
EndChar

StartChar: ordmasculine
Encoding: 186 186 122
Width: 610
GlyphClass: 2
Flags: W
LayerCount: 2
Fore
SplineSet
302 452 m 0,0,1
 228 452 228 452 178 500.5 c 128,-1,2
 128 549 128 549 128 631 c 256,3,4
 128 713 128 713 178 762 c 128,-1,5
 228 811 228 811 302 811 c 256,6,7
 376 811 376 811 426 765 c 128,-1,8
 476 719 476 719 476 631 c 0,9,10
 476 551 476 551 427 501.5 c 128,-1,11
 378 452 378 452 302 452 c 0,0,1
302 498 m 0,12,13
 397 498 397 498 405 631 c 1,14,15
 405 699 405 699 379 730.5 c 128,-1,16
 353 762 353 762 302 762 c 0,17,18
 249 762 249 762 222.5 727.5 c 128,-1,19
 196 693 196 693 196 631 c 0,20,21
 196 560 196 560 224.5 529 c 128,-1,22
 253 498 253 498 302 498 c 0,12,13
115 357 m 1,23,-1
 491 357 l 1,24,-1
 491 280 l 1,25,-1
 115 280 l 1,26,-1
 115 357 l 1,23,-1
EndSplineSet
EndChar

StartChar: guillemotright
Encoding: 187 187 123
Width: 610
GlyphClass: 2
Flags: W
LayerCount: 2
Fore
SplineSet
103 62 m 1,0,-1
 103 131 l 1,1,-1
 239 297 l 1,2,-1
 103 463 l 1,3,-1
 103 529 l 1,4,-1
 320 326 l 1,5,-1
 320 268 l 1,6,-1
 103 62 l 1,0,-1
322 62 m 1,7,-1
 322 131 l 1,8,-1
 458 297 l 1,9,-1
 322 463 l 1,10,-1
 322 529 l 1,11,-1
 546 326 l 1,12,-1
 546 268 l 1,13,-1
 322 62 l 1,7,-1
EndSplineSet
EndChar

StartChar: onequarter
Encoding: 188 188 124
Width: 610
GlyphClass: 2
Flags: W
LayerCount: 2
Fore
SplineSet
724 449 m 0,0,1
 772 449 772 449 779 393 c 0,2,3
 779 385 779 385 768 341 c 0,4,5
 768 339 768 339 772 280 c 0,6,7
 772 275 772 275 768 266 c 1,8,-1
 772 237 l 1,9,10
 772 204 772 204 763 204 c 1,11,12
 771 185 771 185 783 101 c 1,13,14
 834 92 834 92 853 92 c 1,15,-1
 864 96 l 1,16,17
 888 90 888 90 888 83 c 2,18,-1
 888 58 l 2,19,20
 888 52 888 52 874 45 c 1,21,-1
 803 45 l 2,22,23
 787 45 787 45 772 -13 c 1,24,25
 783 -53 783 -53 783 -60 c 0,26,27
 783 -130 783 -130 744 -130 c 0,28,29
 710 -130 710 -130 703 -73 c 1,30,31
 709 -34 709 -34 709 -7 c 2,32,-1
 709 2 l 2,33,34
 709 23 709 23 678 40 c 1,35,-1
 653 36 l 1,36,-1
 603 36 l 2,37,38
 598 36 598 36 598 40 c 1,39,-1
 589 36 l 1,40,-1
 534 36 l 1,41,42
 509 46 509 46 509 83 c 2,43,-1
 509 87 l 1,44,-1
 559 172 l 1,45,46
 602 259 602 259 639 308 c 1,47,48
 639 315 639 315 668 369 c 1,49,50
 686 445 686 445 718 445 c 1,51,52
 718 449 718 449 724 449 c 0,0,1
598 101 m 1,53,54
 631 92 631 92 633 92 c 2,55,-1
 709 110 l 1,56,57
 714 118 714 118 714 129 c 2,58,-1
 714 139 l 2,59,60
 714 169 714 169 709 199 c 1,61,-1
 714 224 l 1,62,63
 709 250 709 250 709 266 c 1,64,65
 714 275 714 275 714 280 c 1,66,-1
 698 289 l 1,67,68
 639 208 639 208 639 176 c 1,69,70
 598 123 598 123 598 115 c 2,71,-1
 598 101 l 1,53,54
215 790 m 0,72,73
 225 794 225 794 238 796 c 0,74,75
 258 796 258 796 262 782 c 1,76,-1
 261 731 l 1,77,-1
 261 670 l 1,78,-1
 270 352 l 1,79,-1
 266 300 l 1,80,-1
 272 300 l 1,81,82
 277 252 277 252 245 244 c 1,83,84
 199 244 199 244 204 276 c 1,85,-1
 204 314 l 1,86,-1
 202 360 l 2,87,88
 198 434 198 434 198 615 c 1,89,90
 192 660 192 660 192 694 c 1,91,-1
 149 668 l 2,92,93
 115 650 115 650 94 643 c 0,94,95
 62 632 62 632 62 658 c 0,96,97
 59 700 59 700 113 720 c 1,98,99
 153 744 153 744 181 762 c 1,100,101
 198 782 198 782 215 790 c 0,72,73
267 -91 m 1,102,-1
 256 -92 l 2,103,104
 221 -94 221 -94 218 -73 c 1,105,-1
 579 760 l 1,106,-1
 601 780 l 1,107,-1
 607 781 l 2,108,109
 614 782 614 782 625 766 c 1,110,-1
 631 743 l 1,111,-1
 278 -85 l 1,112,-1
 267 -91 l 1,102,-1
EndSplineSet
EndChar

StartChar: onehalf
Encoding: 189 189 125
Width: 610
GlyphClass: 2
Flags: W
LayerCount: 2
Fore
SplineSet
737 427 m 1,0,1
 814 404 814 404 825 380 c 1,2,3
 870 380 870 380 882 260 c 1,4,-1
 882 249 l 1,5,-1
 877 223 l 1,6,-1
 882 223 l 1,7,8
 882 172 882 172 706 66 c 1,9,10
 607 34 607 34 607 -17 c 0,11,12
 607 -53 607 -53 686 -53 c 1,13,-1
 720 -48 l 1,14,15
 742 -59 742 -59 752 -59 c 2,16,-1
 799 -53 l 2,17,18
 804 -53 804 -53 815 -59 c 1,19,20
 835 -53 835 -53 850 -53 c 1,21,22
 872 -61 872 -61 882 -79 c 1,23,-1
 882 -85 l 1,24,25
 863 -117 863 -117 857 -117 c 2,26,-1
 815 -117 l 2,27,28
 793 -117 793 -117 757 -121 c 1,29,-1
 720 -105 l 1,30,31
 704 -105 704 -105 556 -126 c 1,32,33
 510 -111 510 -111 510 -53 c 2,34,-1
 510 -48 l 2,35,36
 510 44 510 44 674 129 c 1,37,38
 676 139 676 139 768 186 c 1,39,40
 768 192 768 192 804 229 c 1,41,42
 815 247 815 247 815 270 c 1,43,-1
 809 270 l 1,44,-1
 815 281 l 1,45,46
 776 385 776 385 687 367 c 1,47,48
 619 341 619 341 619 322 c 1,49,50
 584 322 584 322 577 239 c 1,51,-1
 546 239 l 2,52,53
 537 239 537 239 531 275 c 1,54,55
 561 385 561 385 592 385 c 1,56,57
 649 433 649 433 737 427 c 1,0,1
253 -91 m 1,58,-1
 243 -92 l 2,59,60
 207 -94 207 -94 204 -73 c 1,61,-1
 566 760 l 1,62,-1
 589 780 l 1,63,-1
 594 781 l 2,64,65
 602 782 602 782 612 766 c 1,66,-1
 619 743 l 1,67,-1
 264 -85 l 1,68,-1
 253 -91 l 1,58,-1
201 790 m 0,69,70
 211 794 211 794 225 796 c 0,71,72
 244 796 244 796 248 782 c 1,73,-1
 247 731 l 1,74,-1
 247 670 l 1,75,-1
 257 352 l 1,76,-1
 252 300 l 1,77,-1
 259 300 l 1,78,79
 263 252 263 252 231 244 c 1,80,81
 185 244 185 244 190 276 c 1,82,-1
 190 314 l 1,83,-1
 188 360 l 2,84,85
 184 434 184 434 184 615 c 1,86,87
 178 660 178 660 178 694 c 1,88,-1
 135 668 l 2,89,90
 101 650 101 650 79 643 c 0,91,92
 47 632 47 632 47 658 c 0,93,94
 44 700 44 700 98 720 c 1,95,96
 139 744 139 744 167 762 c 1,97,98
 184 782 184 782 201 790 c 0,69,70
EndSplineSet
EndChar

StartChar: threequarters
Encoding: 190 190 126
Width: 610
GlyphClass: 2
Flags: W
LayerCount: 2
Fore
SplineSet
345 808 m 1,0,1
 390 793 390 793 390 776 c 2,2,-1
 386 752 l 1,3,-1
 248 617 l 1,4,-1
 284 626 l 1,5,-1
 312 624 l 1,6,7
 369 607 369 607 393 548 c 0,8,9
 403 530 403 530 409 501 c 1,10,-1
 409 452 l 1,11,12
 398 371 398 371 342 315 c 1,13,14
 279 261 279 261 210 245 c 1,15,16
 201 227 201 227 126 211 c 1,17,-1
 119 211 l 1,18,-1
 93 224 l 1,19,20
 84 219 84 219 73 219 c 0,21,22
 64 219 64 219 58 240 c 1,23,24
 80 298 80 298 176 304 c 1,25,26
 230 317 230 317 271 349 c 0,27,28
 334 395 334 395 333 466 c 2,29,-1
 333 494 l 2,30,31
 333 543 333 543 277 572 c 1,32,-1
 259 575 l 2,33,34
 235 578 235 578 218 568 c 0,35,36
 170 548 170 548 150 548 c 2,37,-1
 139 548 l 2,38,39
 129 548 129 548 129 558 c 0,40,41
 129 589 129 589 195 641 c 1,42,43
 207 643 207 643 242 693 c 1,44,45
 264 693 264 693 282 727 c 1,46,-1
 282 738 l 2,47,48
 282 743 282 743 244 752 c 1,49,-1
 127 753 l 1,50,51
 123 739 123 739 89 721 c 1,52,-1
 73 721 l 2,53,54
 63 723 63 723 52 731 c 1,55,56
 43 772 43 772 82 807 c 1,57,-1
 345 808 l 1,0,1
733 480 m 0,58,59
 780 480 780 480 785 423 c 0,60,61
 785 414 785 414 776 369 c 0,62,63
 776 367 776 367 780 308 c 0,64,65
 780 303 780 303 776 293 c 1,66,-1
 780 264 l 1,67,68
 780 231 780 231 770 231 c 1,69,70
 779 211 779 211 790 125 c 1,71,72
 838 116 838 116 856 116 c 1,73,-1
 864 120 l 1,74,75
 888 114 888 114 888 106 c 2,76,-1
 888 81 l 2,77,78
 888 75 888 75 874 68 c 1,79,-1
 809 68 l 2,80,81
 792 68 792 68 780 9 c 1,82,83
 790 -31 790 -31 790 -39 c 0,84,85
 790 -110 790 -110 752 -110 c 0,86,87
 721 -110 721 -110 714 -52 c 1,88,89
 719 -13 719 -13 719 15 c 2,90,-1
 719 24 l 2,91,92
 719 46 719 46 690 63 c 1,93,-1
 667 58 l 1,94,-1
 621 58 l 2,95,96
 614 58 614 58 614 63 c 1,97,-1
 606 58 l 1,98,-1
 554 58 l 1,99,100
 531 69 531 69 531 106 c 2,101,-1
 531 111 l 1,102,-1
 578 197 l 1,103,104
 620 286 620 286 653 336 c 0,105,106
 653 343 653 343 681 399 c 1,107,108
 699 476 699 476 729 476 c 1,109,110
 729 480 729 480 733 480 c 0,58,59
614 125 m 1,111,112
 646 116 646 116 648 116 c 2,113,-1
 719 135 l 1,114,115
 723 143 723 143 723 153 c 2,116,-1
 723 164 l 2,117,118
 723 194 723 194 719 225 c 1,119,-1
 723 250 l 1,120,121
 719 277 719 277 719 293 c 1,122,123
 723 303 723 303 723 308 c 1,124,-1
 709 317 l 1,125,126
 653 234 653 234 653 201 c 1,127,128
 614 147 614 147 614 140 c 2,129,-1
 614 125 l 1,111,112
319 -91 m 1,130,-1
 309 -92 l 2,131,132
 274 -94 274 -94 271 -73 c 1,133,-1
 624 760 l 1,134,-1
 646 780 l 1,135,-1
 651 781 l 2,136,137
 658 782 658 782 669 766 c 1,138,-1
 675 743 l 1,139,-1
 329 -85 l 1,140,-1
 319 -91 l 1,130,-1
EndSplineSet
EndChar

StartChar: questiondown
Encoding: 191 191 127
Width: 610
GlyphClass: 2
Flags: W
LayerCount: 2
Fore
SplineSet
332 -206 m 0,0,1
 328 -206 328 -206 295 -199 c 1,2,-1
 242 -206 l 1,3,4
 126 -169 126 -169 112 -124 c 0,5,6
 89 -63 89 -63 89 -23 c 2,7,-1
 89 -9 l 2,8,9
 89 84 89 84 177 127 c 1,10,11
 253 149 253 149 259 202 c 1,12,-1
 259 219 l 2,13,14
 261 259 261 259 261 275 c 1,15,16
 276 298 276 298 295 298 c 0,17,18
 332 297 332 297 332 257 c 2,19,-1
 332 206 l 2,20,21
 332 164 332 164 310 140 c 2,22,-1
 268 104 l 1,23,24
 167 72 167 72 163 -9 c 1,25,26
 164 -128 164 -128 264 -152 c 1,27,-1
 275 -145 l 1,28,29
 301 -152 301 -152 319 -145 c 0,30,31
 404 -128 404 -128 404 -76 c 0,32,33
 404 -50 404 -50 365 -25 c 1,34,-1
 365 7 l 1,35,36
 394 61 394 61 452 32 c 0,37,38
 495 11 495 11 488 -50 c 1,39,40
 485 -114 485 -114 433 -157 c 1,41,42
 394 -196 394 -196 332 -206 c 0,0,1
295 488 m 0,43,44
 319 488 319 488 338 471.5 c 128,-1,45
 357 455 357 455 357 425 c 0,46,47
 357 400 357 400 339.5 382 c 128,-1,48
 322 364 322 364 295 364 c 256,49,50
 268 364 268 364 248.5 381 c 128,-1,51
 229 398 229 398 229 425 c 0,52,53
 229 450 229 450 247 469 c 128,-1,54
 265 488 265 488 295 488 c 0,43,44
EndSplineSet
EndChar

StartChar: Agrave
Encoding: 192 192 128
Width: 610
GlyphClass: 2
Flags: W
LayerCount: 2
Fore
SplineSet
423 771 m 1,0,-1
 369 771 l 1,1,-1
 242 841 l 2,2,3
 221 851 221 851 208.5 866.5 c 128,-1,4
 196 882 196 882 193 904 c 0,5,6
 189 924 189 924 199 937 c 128,-1,7
 209 950 209 950 229 950 c 0,8,9
 264 950 264 950 302 909 c 2,10,-1
 423 771 l 1,0,-1
290 697 m 1,11,12
 317 712 317 712 336 689 c 1,13,-1
 352 629 l 1,14,15
 468 221 468 221 504 87 c 0,16,17
 512 50 512 50 584 56 c 1,18,19
 609 30 609 30 590 -1 c 1,20,21
 518 -3 518 -3 379 -8 c 1,22,23
 344 -3 344 -3 344 13 c 2,24,-1
 344 30 l 2,25,26
 344 46 344 46 399 64 c 0,27,28
 427 69 427 69 417 84 c 1,29,30
 414 186 414 186 389 203 c 1,31,-1
 221 203 l 1,32,33
 194 188 194 188 189 105 c 1,34,35
 175 68 175 68 248 57 c 1,36,-1
 259 34 l 1,37,38
 248 -4 248 -4 224 3 c 1,39,40
 90 -4 90 -4 90 3 c 1,41,-1
 55 -4 l 1,42,-1
 34 -4 l 2,43,44
 28 -4 28 -4 4 23 c 1,45,-1
 4 37 l 2,46,47
 4 73 4 73 55 69 c 0,48,49
 85 63 85 63 104 87 c 1,50,51
 123 139 123 139 154 240 c 2,52,-1
 275 666 l 1,53,-1
 290 697 l 1,11,12
293 550 m 1,54,-1
 220 256 l 1,55,-1
 361 256 l 2,56,57
 382 257 382 257 383 280 c 1,58,-1
 333 493 l 1,59,-1
 323 550 l 2,60,61
 320 567 320 567 309 567 c 0,62,63
 291 567 291 567 293 550 c 1,54,-1
EndSplineSet
EndChar

StartChar: Aacute
Encoding: 193 193 129
Width: 610
GlyphClass: 2
Flags: W
LayerCount: 2
Fore
SplineSet
343 909 m 2,0,1
 381 950 381 950 416 950 c 0,2,3
 436 950 436 950 446 937 c 128,-1,4
 456 924 456 924 452 904 c 0,5,6
 449 882 449 882 436.5 866.5 c 128,-1,7
 424 851 424 851 403 841 c 2,8,-1
 276 771 l 1,9,-1
 222 771 l 1,10,-1
 343 909 l 2,0,1
290 697 m 1,11,12
 317 712 317 712 336 689 c 1,13,-1
 352 629 l 1,14,15
 468 221 468 221 504 87 c 0,16,17
 512 50 512 50 584 56 c 1,18,19
 609 30 609 30 590 -1 c 1,20,21
 518 -3 518 -3 379 -8 c 1,22,23
 344 -3 344 -3 344 13 c 2,24,-1
 344 30 l 2,25,26
 344 46 344 46 399 64 c 0,27,28
 427 69 427 69 417 84 c 1,29,30
 414 186 414 186 389 203 c 1,31,-1
 221 203 l 1,32,33
 194 188 194 188 189 105 c 1,34,35
 175 68 175 68 248 57 c 1,36,-1
 259 34 l 1,37,38
 248 -4 248 -4 224 3 c 1,39,40
 90 -4 90 -4 90 3 c 1,41,-1
 55 -4 l 1,42,-1
 34 -4 l 2,43,44
 28 -4 28 -4 4 23 c 1,45,-1
 4 37 l 2,46,47
 4 73 4 73 55 69 c 0,48,49
 85 63 85 63 104 87 c 1,50,51
 123 139 123 139 154 240 c 2,52,-1
 275 666 l 1,53,-1
 290 697 l 1,11,12
293 550 m 1,54,-1
 220 256 l 1,55,-1
 361 256 l 2,56,57
 382 257 382 257 383 280 c 1,58,-1
 333 493 l 1,59,-1
 323 550 l 2,60,61
 320 567 320 567 309 567 c 0,62,63
 291 567 291 567 293 550 c 1,54,-1
EndSplineSet
EndChar

StartChar: Acircumflex
Encoding: 194 194 130
Width: 610
GlyphClass: 2
Flags: W
LayerCount: 2
Fore
SplineSet
268 950 m 1,0,-1
 348 950 l 1,1,-1
 482 781 l 1,2,-1
 424 781 l 1,3,-1
 308 889 l 1,4,-1
 193 781 l 1,5,-1
 134 781 l 1,6,-1
 268 950 l 1,0,-1
282 729 m 1,7,-1
 310 729 l 2,8,9
 347 729 347 729 387 524 c 1,10,-1
 468 166 l 2,11,12
 478 125 478 125 501 99 c 1,13,14
 594 104 594 104 601 46 c 1,15,16
 596 15 596 15 568 11 c 2,17,-1
 490 10 l 1,18,19
 420 5 420 5 406 5 c 2,20,-1
 381 12 l 1,21,22
 369 5 369 5 354 5 c 1,23,24
 322 15 322 15 327 53 c 1,25,-1
 350 74 l 1,26,27
 432 90 432 90 406 185 c 0,28,29
 393 218 393 218 371 218 c 2,30,-1
 289 218 l 2,31,32
 263 219 263 219 239 219 c 1,33,-1
 210 214 l 1,34,-1
 189 120 l 1,35,36
 191 63 191 63 260 63 c 1,37,-1
 275 55 l 1,38,-1
 275 41 l 1,39,40
 270 25 270 25 270 19 c 1,41,42
 240 -4 240 -4 217 -4 c 2,43,-1
 151 5 l 2,44,45
 132 5 132 5 58 1 c 0,46,47
 11 1 11 1 9 32 c 2,48,-1
 9 45 l 1,49,50
 18 68 18 68 105 84 c 1,51,52
 120 115 120 115 136 168 c 2,53,-1
 151 227 l 1,54,-1
 165 274 l 2,55,56
 175 309 175 309 213 482 c 0,57,58
 227 540 227 540 252 644 c 1,59,-1
 276 617 l 1,60,-1
 275 592 l 1,61,62
 263 500 263 500 237 352 c 1,63,64
 229 331 229 331 226 296 c 1,65,-1
 234 282 l 1,66,-1
 257 282 l 2,67,68
 263 282 263 282 301 281 c 0,69,70
 322 281 322 281 337 280 c 0,71,72
 369 279 369 279 371 323 c 1,73,74
 367 354 367 354 355 400 c 0,75,76
 344 448 344 448 322 561 c 1,77,-1
 321 615 l 1,78,-1
 276 644 l 1,79,80
 263 670 263 670 263 700 c 2,81,-1
 263 706 l 2,82,83
 263 716 263 716 282 729 c 1,7,-1
EndSplineSet
EndChar

StartChar: Atilde
Encoding: 195 195 131
Width: 610
GlyphClass: 2
Flags: W
LayerCount: 2
Fore
SplineSet
290 684 m 1,0,1
 317 699 317 699 336 676 c 1,2,-1
 348 623 l 1,3,4
 470 221 470 221 507 87 c 0,5,6
 515 50 515 50 587 56 c 1,7,8
 612 30 612 30 593 -1 c 1,9,10
 521 -3 521 -3 379 -8 c 1,11,12
 344 -3 344 -3 344 13 c 2,13,-1
 344 30 l 2,14,15
 344 46 344 46 399 64 c 0,16,17
 427 69 427 69 417 84 c 1,18,19
 414 186 414 186 389 203 c 1,20,-1
 221 203 l 1,21,22
 194 188 194 188 189 105 c 1,23,24
 175 68 175 68 248 57 c 1,25,-1
 259 34 l 1,26,27
 248 -4 248 -4 224 3 c 1,28,29
 92 -4 92 -4 92 3 c 1,30,-1
 57 -4 l 1,31,-1
 36 -4 l 2,32,33
 30 -4 30 -4 6 23 c 1,34,-1
 6 37 l 2,35,36
 6 73 6 73 57 69 c 0,37,38
 87 63 87 63 106 87 c 1,39,40
 125 139 125 139 154 240 c 2,41,-1
 275 653 l 1,42,-1
 290 684 l 1,0,1
293 544 m 1,43,-1
 220 256 l 1,44,-1
 361 256 l 2,45,46
 382 257 382 257 383 280 c 1,47,-1
 333 487 l 1,48,-1
 323 544 l 2,49,50
 320 561 320 561 309 561 c 0,51,52
 291 561 291 561 293 544 c 1,43,-1
244 919 m 0,53,54
 272 919 272 919 289 910.5 c 128,-1,55
 306 902 306 902 328 886 c 1,56,57
 349 878 349 878 364 870.5 c 128,-1,58
 379 863 379 863 396 863 c 1,59,60
 440 875 440 875 446 923 c 1,61,-1
 492 923 l 1,62,63
 488 866 488 866 458.5 830.5 c 128,-1,64
 429 795 429 795 377 795 c 0,65,66
 342 795 342 795 294 823 c 0,67,68
 272 834 272 834 257 840 c 128,-1,69
 242 846 242 846 226 846 c 0,70,71
 203 846 203 846 189.5 829 c 128,-1,72
 176 812 176 812 167 788 c 1,73,-1
 123 788 l 1,74,75
 134 844 134 844 167 881.5 c 128,-1,76
 200 919 200 919 244 919 c 0,53,54
EndSplineSet
EndChar

StartChar: Adieresis
Encoding: 196 196 132
Width: 610
GlyphClass: 2
Flags: W
LayerCount: 2
Fore
SplineSet
189 778 m 0,0,1
 165 778 165 778 149 793.5 c 128,-1,2
 133 809 133 809 133 836 c 256,3,4
 133 863 133 863 148 880 c 128,-1,5
 163 897 163 897 189 897 c 0,6,7
 213 897 213 897 230 882.5 c 128,-1,8
 247 868 247 868 247 836 c 0,9,10
 247 811 247 811 232.5 794.5 c 128,-1,11
 218 778 218 778 189 778 c 0,0,1
426 778 m 0,12,13
 402 778 402 778 385 793.5 c 128,-1,14
 368 809 368 809 368 836 c 256,15,16
 368 863 368 863 383.5 880 c 128,-1,17
 399 897 399 897 426 897 c 0,18,19
 449 897 449 897 466.5 882.5 c 128,-1,20
 484 868 484 868 484 836 c 0,21,22
 484 811 484 811 467.5 794.5 c 128,-1,23
 451 778 451 778 426 778 c 0,12,13
290 684 m 1,24,25
 317 699 317 699 336 676 c 1,26,-1
 348 623 l 1,27,28
 470 221 470 221 507 87 c 0,29,30
 515 50 515 50 587 56 c 1,31,32
 612 30 612 30 593 -1 c 1,33,34
 521 -3 521 -3 379 -8 c 1,35,36
 344 -3 344 -3 344 13 c 2,37,-1
 344 30 l 2,38,39
 344 46 344 46 399 64 c 0,40,41
 427 69 427 69 417 84 c 1,42,43
 414 186 414 186 389 203 c 1,44,-1
 221 203 l 1,45,46
 194 188 194 188 189 105 c 1,47,48
 175 68 175 68 248 57 c 1,49,-1
 259 34 l 1,50,51
 248 -4 248 -4 224 3 c 1,52,53
 92 -4 92 -4 92 3 c 1,54,-1
 57 -4 l 1,55,-1
 36 -4 l 2,56,57
 30 -4 30 -4 6 23 c 1,58,-1
 6 37 l 2,59,60
 6 73 6 73 57 69 c 0,61,62
 87 63 87 63 106 87 c 1,63,64
 125 139 125 139 154 240 c 2,65,-1
 275 653 l 1,66,-1
 290 684 l 1,24,25
293 544 m 1,67,-1
 220 256 l 1,68,-1
 361 256 l 2,69,70
 382 257 382 257 383 280 c 1,71,-1
 333 487 l 1,72,-1
 323 544 l 2,73,74
 320 561 320 561 309 561 c 0,75,76
 291 561 291 561 293 544 c 1,67,-1
EndSplineSet
EndChar

StartChar: Aring
Encoding: 197 197 133
Width: 610
GlyphClass: 2
Flags: W
LayerCount: 2
Fore
SplineSet
297 742 m 0,0,1
 255 742 255 742 224.5 772.5 c 128,-1,2
 194 803 194 803 192 847 c 0,3,4
 192 889 192 889 223.5 919.5 c 128,-1,5
 255 950 255 950 297 950 c 256,6,7
 339 950 339 950 369 921 c 128,-1,8
 399 892 399 892 400 847 c 0,9,10
 400 805 400 805 370 773.5 c 128,-1,11
 340 742 340 742 297 742 c 0,0,1
297 783 m 0,12,13
 324 783 324 783 341.5 801 c 128,-1,14
 359 819 359 819 359 847 c 0,15,16
 359 872 359 872 341.5 889 c 128,-1,17
 324 906 324 906 297 907 c 0,18,19
 271 907 271 907 253.5 890 c 128,-1,20
 236 873 236 873 236 847 c 256,21,22
 236 821 236 821 252.5 802.5 c 128,-1,23
 269 784 269 784 297 783 c 0,12,13
290 684 m 1,24,25
 317 699 317 699 336 676 c 1,26,-1
 348 623 l 1,27,28
 470 221 470 221 507 87 c 0,29,30
 515 50 515 50 587 56 c 1,31,32
 612 30 612 30 593 -1 c 1,33,34
 521 -3 521 -3 379 -8 c 1,35,36
 344 -3 344 -3 344 13 c 2,37,-1
 344 30 l 2,38,39
 344 46 344 46 399 64 c 0,40,41
 427 69 427 69 417 84 c 1,42,43
 414 186 414 186 389 203 c 1,44,-1
 221 203 l 1,45,46
 194 188 194 188 189 105 c 1,47,48
 175 68 175 68 248 57 c 1,49,-1
 259 34 l 1,50,51
 248 -4 248 -4 224 3 c 1,52,53
 92 -4 92 -4 92 3 c 1,54,-1
 57 -4 l 1,55,-1
 36 -4 l 2,56,57
 30 -4 30 -4 6 23 c 1,58,-1
 6 37 l 2,59,60
 6 73 6 73 57 69 c 0,61,62
 87 63 87 63 106 87 c 1,63,64
 125 139 125 139 154 240 c 2,65,-1
 275 653 l 1,66,-1
 290 684 l 1,24,25
293 544 m 1,67,-1
 220 256 l 1,68,-1
 361 256 l 2,69,70
 382 257 382 257 383 280 c 1,71,-1
 333 487 l 1,72,-1
 323 544 l 2,73,74
 320 561 320 561 309 561 c 0,75,76
 291 561 291 561 293 544 c 1,67,-1
EndSplineSet
EndChar

StartChar: AE
Encoding: 198 198 134
Width: 610
GlyphClass: 2
Flags: W
LayerCount: 2
Fore
SplineSet
-25 49 m 1,0,1
 57 45 57 45 82 68 c 128,-1,2
 107 91 107 91 132 140 c 2,3,-1
 417 650 l 1,4,5
 407 653 407 653 374 654 c 128,-1,6
 341 655 341 655 329 655 c 1,7,-1
 329 709 l 1,8,-1
 861 709 l 1,9,-1
 867 485 l 1,10,-1
 828 485 l 1,11,12
 824 518 824 518 822.5 552 c 128,-1,13
 821 586 821 586 811 608 c 128,-1,14
 801 630 801 630 783.5 643.5 c 128,-1,15
 766 657 766 657 737 657 c 2,16,-1
 590 657 l 2,17,18
 560 657 560 657 546 654.5 c 128,-1,19
 532 652 532 652 526 643.5 c 128,-1,20
 520 635 520 635 516 611 c 1,21,-1
 516 400 l 1,22,-1
 618 400 l 2,23,24
 643 400 643 400 651.5 403 c 128,-1,25
 660 406 660 406 670 421 c 128,-1,26
 680 436 680 436 684 454 c 128,-1,27
 688 472 688 472 688 505 c 1,28,-1
 725 505 l 1,29,-1
 725 228 l 1,30,-1
 688 228 l 1,31,32
 688 296 688 296 671 325.5 c 128,-1,33
 654 355 654 355 620 355 c 2,34,-1
 516 355 l 1,35,-1
 516 123 l 2,36,37
 516 85 516 85 528.5 67.5 c 128,-1,38
 541 50 541 50 567 50 c 2,39,-1
 730 50 l 2,40,41
 752 50 752 50 770 55 c 128,-1,42
 788 60 788 60 802 78.5 c 128,-1,43
 816 97 816 97 821 133 c 128,-1,44
 826 169 826 169 831 229 c 1,45,-1
 871 229 l 1,46,-1
 861 -2 l 1,47,-1
 375 -2 l 1,48,-1
 375 56 l 1,49,50
 402 57 402 57 418 60.5 c 128,-1,51
 434 64 434 64 442.5 75.5 c 128,-1,52
 451 87 451 87 457 115 c 1,53,-1
 457 246 l 1,54,-1
 253 246 l 1,55,-1
 216 169 l 2,56,57
 188 113 188 113 188.5 79 c 128,-1,58
 189 45 189 45 271 49 c 1,59,-1
 271 -2 l 1,60,-1
 -25 -2 l 1,61,-1
 -25 49 l 1,0,1
457 293 m 1,62,-1
 457 629 l 1,63,-1
 278 293 l 1,64,-1
 457 293 l 1,62,-1
EndSplineSet
EndChar

StartChar: Ccedilla
Encoding: 199 199 135
Width: 610
GlyphClass: 2
Flags: W
LayerCount: 2
Fore
SplineSet
275 737 m 1,0,1
 344 737 344 737 425 697 c 1,2,3
 465 730 465 730 493 730 c 1,4,-1
 513 703 l 1,5,-1
 513 690 l 1,6,7
 500 603 500 603 495 574 c 1,8,9
 517 484 517 484 525 431 c 1,10,11
 513 424 513 424 506 424 c 0,12,13
 443 425 443 425 419 601 c 1,14,15
 391 654 391 654 306 662 c 1,16,-1
 300 662 l 1,17,18
 201 634 201 634 166 560 c 0,19,20
 138 509 138 509 132 424 c 1,21,-1
 138 424 l 1,22,23
 132 411 132 411 132 404 c 0,24,25
 132 386 132 386 138 349 c 2,26,-1
 140 325 l 1,27,28
 140 233 140 233 187 162 c 0,29,30
 213 116 213 116 265 92 c 0,31,32
 339 56 339 56 407 124 c 1,33,34
 439 166 439 166 457 235 c 0,35,36
 462 267 462 267 491 276 c 1,37,38
 526 278 526 278 537 233 c 1,39,40
 537 172 537 172 506 152 c 1,41,42
 506 108 506 108 431 49 c 1,43,-1
 360 16 l 1,44,-1
 316 2 l 1,45,-1
 304 -30 l 1,46,47
 346 -30 346 -30 380.5 -43 c 128,-1,48
 415 -56 415 -56 415 -111 c 0,49,50
 415 -157 415 -157 384 -181.5 c 128,-1,51
 353 -206 353 -206 286 -206 c 0,52,53
 251 -206 251 -206 223.5 -198.5 c 128,-1,54
 196 -191 196 -191 173 -176 c 1,55,-1
 198 -128 l 1,56,57
 240 -152 240 -152 283 -152 c 0,58,59
 318 -152 318 -152 330 -140.5 c 128,-1,60
 342 -129 342 -129 342 -108 c 0,61,62
 342 -83 342 -83 327 -73 c 128,-1,63
 312 -63 312 -63 265 -67 c 1,64,-1
 244 -52 l 1,65,-1
 260 8 l 1,66,67
 176 49 176 49 169 63 c 1,68,69
 169 74 169 74 138 97 c 1,70,71
 113 138 113 138 88 197 c 0,72,73
 58 279 58 279 69 397 c 0,74,75
 69 417 69 417 69 424 c 0,76,77
 69 439 69 439 88 506 c 1,78,79
 82 506 82 506 82 512 c 0,80,81
 92 564 92 564 113 608 c 0,82,83
 128 642 128 642 150 669 c 1,84,85
 205 712 205 712 275 737 c 1,0,1
EndSplineSet
EndChar

StartChar: Egrave
Encoding: 200 200 136
Width: 610
GlyphClass: 2
Flags: W
LayerCount: 2
Fore
SplineSet
378 705 m 1,0,1
 400 719 400 719 427 719 c 1,2,3
 459 703 459 703 459 698 c 1,4,-1
 471 705 l 1,5,-1
 511 705 l 2,6,7
 561 705 561 705 561 616 c 1,8,-1
 571 446 l 1,9,-1
 558 439 l 1,10,-1
 536 439 l 2,11,12
 521 439 521 439 498 616 c 1,13,14
 477 616 477 616 477 637 c 1,15,-1
 471 637 l 2,16,17
 431 637 431 637 390 644 c 1,18,19
 365 637 365 637 346 637 c 1,20,21
 346 646 346 646 315 664 c 1,22,23
 278 655 278 655 278 637 c 1,24,-1
 226 644 l 1,25,26
 220 630 220 630 220 623 c 2,27,-1
 226 576 l 1,28,29
 220 548 220 548 220 528 c 2,30,-1
 220 427 l 1,31,32
 239 398 239 398 276 398 c 0,33,34
 355 399 355 399 346 487 c 0,35,36
 346 514 346 514 359 514 c 2,37,-1
 371 514 l 2,38,39
 383 514 383 514 409 439 c 1,40,41
 409 415 409 415 403 378 c 1,42,43
 415 303 415 303 403 303 c 1,44,-1
 409 269 l 1,45,46
 405 214 405 214 390 214 c 2,47,-1
 371 214 l 2,48,49
 355 214 355 214 340 317 c 1,50,51
 317 351 317 351 290 351 c 0,52,53
 228 348 228 348 232 304 c 1,54,55
 226 244 226 244 226 174 c 0,56,57
 231 75 231 75 256 75 c 2,58,-1
 315 75 l 1,59,60
 483 54 483 54 492 108 c 1,61,-1
 492 131 l 1,62,-1
 492 174 l 1,63,64
 477 239 477 239 527 283 c 1,65,-1
 552 283 l 2,66,67
 564 283 564 283 577 235 c 1,68,69
 570 115 570 115 570 92 c 1,70,-1
 564 92 l 1,71,72
 570 79 570 79 570 71 c 0,73,74
 547 3 547 3 496 3 c 1,75,-1
 471 -4 l 1,76,77
 309 -3 309 -3 159 7 c 1,78,-1
 28 10 l 1,79,-1
 16 31 l 1,80,-1
 16 38 l 1,81,82
 45 85 45 85 84 85 c 1,83,-1
 122 78 l 1,84,85
 159 92 159 92 159 153 c 2,86,-1
 161 569 l 2,87,88
 163 627 163 627 134 627 c 2,89,-1
 128 627 l 2,90,91
 121 627 121 627 68 623 c 1,92,-1
 62 623 l 1,93,94
 24 647 24 647 24 657 c 2,95,-1
 24 685 l 2,96,97
 24 705 24 705 78 712 c 1,98,-1
 91 705 l 1,99,-1
 128 712 l 1,100,101
 140 709 140 709 140 698 c 1,102,-1
 378 705 l 1,0,1
423 771 m 1,103,-1
 369 771 l 1,104,-1
 242 841 l 2,105,106
 221 851 221 851 208.5 866.5 c 128,-1,107
 196 882 196 882 193 904 c 0,108,109
 189 924 189 924 199 937 c 128,-1,110
 209 950 209 950 229 950 c 0,111,112
 264 950 264 950 302 909 c 2,113,-1
 423 771 l 1,103,-1
EndSplineSet
EndChar

StartChar: Eacute
Encoding: 201 201 137
Width: 610
GlyphClass: 2
Flags: W
LayerCount: 2
Fore
SplineSet
343 909 m 2,0,1
 381 950 381 950 416 950 c 0,2,3
 436 950 436 950 446 937 c 128,-1,4
 456 924 456 924 452 904 c 0,5,6
 449 882 449 882 436.5 866.5 c 128,-1,7
 424 851 424 851 403 841 c 2,8,-1
 276 771 l 1,9,-1
 222 771 l 1,10,-1
 343 909 l 2,0,1
378 705 m 1,11,12
 400 719 400 719 427 719 c 1,13,14
 459 703 459 703 459 698 c 1,15,-1
 471 705 l 1,16,-1
 511 705 l 2,17,18
 561 705 561 705 561 616 c 1,19,-1
 571 446 l 1,20,-1
 558 439 l 1,21,-1
 536 439 l 2,22,23
 521 439 521 439 498 616 c 1,24,25
 477 616 477 616 477 637 c 1,26,-1
 471 637 l 2,27,28
 431 637 431 637 390 644 c 1,29,30
 365 637 365 637 346 637 c 1,31,32
 346 646 346 646 315 664 c 1,33,34
 278 655 278 655 278 637 c 1,35,-1
 226 644 l 1,36,37
 220 630 220 630 220 623 c 2,38,-1
 226 576 l 1,39,40
 220 548 220 548 220 528 c 2,41,-1
 220 427 l 1,42,43
 239 398 239 398 276 398 c 0,44,45
 355 399 355 399 346 487 c 0,46,47
 346 514 346 514 359 514 c 2,48,-1
 371 514 l 2,49,50
 383 514 383 514 409 439 c 1,51,52
 409 415 409 415 403 378 c 1,53,54
 415 303 415 303 403 303 c 1,55,-1
 409 269 l 1,56,57
 405 214 405 214 390 214 c 2,58,-1
 371 214 l 2,59,60
 355 214 355 214 340 317 c 1,61,62
 317 351 317 351 290 351 c 0,63,64
 228 348 228 348 232 304 c 1,65,66
 226 244 226 244 226 174 c 0,67,68
 231 75 231 75 256 75 c 2,69,-1
 315 75 l 1,70,71
 483 54 483 54 492 108 c 1,72,-1
 492 131 l 1,73,-1
 492 174 l 1,74,75
 477 239 477 239 527 283 c 1,76,-1
 552 283 l 2,77,78
 564 283 564 283 577 235 c 1,79,80
 570 115 570 115 570 92 c 1,81,-1
 564 92 l 1,82,83
 570 79 570 79 570 71 c 0,84,85
 547 3 547 3 496 3 c 1,86,-1
 471 -4 l 1,87,88
 309 -3 309 -3 159 7 c 1,89,-1
 28 10 l 1,90,-1
 16 31 l 1,91,-1
 16 38 l 1,92,93
 45 85 45 85 84 85 c 1,94,-1
 122 78 l 1,95,96
 159 92 159 92 159 153 c 2,97,-1
 161 569 l 2,98,99
 163 627 163 627 134 627 c 2,100,-1
 128 627 l 2,101,102
 121 627 121 627 68 623 c 1,103,-1
 62 623 l 1,104,105
 24 647 24 647 24 657 c 2,106,-1
 24 685 l 2,107,108
 24 705 24 705 78 712 c 1,109,-1
 91 705 l 1,110,-1
 128 712 l 1,111,112
 140 709 140 709 140 698 c 1,113,-1
 378 705 l 1,11,12
EndSplineSet
EndChar

StartChar: Ecircumflex
Encoding: 202 202 138
Width: 610
GlyphClass: 2
Flags: W
LayerCount: 2
Fore
SplineSet
271 950 m 1,0,-1
 351 950 l 1,1,-1
 485 781 l 1,2,-1
 427 781 l 1,3,-1
 311 881 l 1,4,-1
 196 781 l 1,5,-1
 137 781 l 1,6,-1
 271 950 l 1,0,-1
378 705 m 1,7,8
 400 719 400 719 427 719 c 1,9,10
 459 703 459 703 459 698 c 1,11,-1
 471 705 l 1,12,-1
 511 705 l 2,13,14
 561 705 561 705 561 616 c 1,15,-1
 571 446 l 1,16,-1
 558 439 l 1,17,-1
 536 439 l 2,18,19
 521 439 521 439 498 616 c 1,20,21
 477 616 477 616 477 637 c 1,22,-1
 471 637 l 2,23,24
 431 637 431 637 390 644 c 1,25,26
 365 637 365 637 346 637 c 1,27,28
 346 646 346 646 315 664 c 1,29,30
 278 655 278 655 278 637 c 1,31,-1
 226 644 l 1,32,33
 220 630 220 630 220 623 c 2,34,-1
 226 576 l 1,35,36
 220 548 220 548 220 528 c 2,37,-1
 220 427 l 1,38,39
 239 398 239 398 276 398 c 0,40,41
 355 399 355 399 346 487 c 0,42,43
 346 514 346 514 359 514 c 2,44,-1
 371 514 l 2,45,46
 383 514 383 514 409 439 c 1,47,48
 409 415 409 415 403 378 c 1,49,50
 415 303 415 303 403 303 c 1,51,-1
 409 269 l 1,52,53
 405 214 405 214 390 214 c 2,54,-1
 371 214 l 2,55,56
 355 214 355 214 340 317 c 1,57,58
 317 351 317 351 290 351 c 0,59,60
 228 348 228 348 232 304 c 1,61,62
 226 244 226 244 226 174 c 0,63,64
 231 75 231 75 256 75 c 2,65,-1
 315 75 l 1,66,67
 483 54 483 54 492 108 c 1,68,-1
 492 131 l 1,69,-1
 492 174 l 1,70,71
 477 239 477 239 527 283 c 1,72,-1
 552 283 l 2,73,74
 564 283 564 283 577 235 c 1,75,76
 570 115 570 115 570 92 c 1,77,-1
 564 92 l 1,78,79
 570 79 570 79 570 71 c 0,80,81
 547 3 547 3 496 3 c 1,82,-1
 471 -4 l 1,83,84
 309 -3 309 -3 159 7 c 1,85,-1
 28 10 l 1,86,-1
 16 31 l 1,87,-1
 16 38 l 1,88,89
 45 85 45 85 84 85 c 1,90,-1
 122 78 l 1,91,92
 159 92 159 92 159 153 c 2,93,-1
 161 569 l 2,94,95
 163 627 163 627 134 627 c 2,96,-1
 128 627 l 2,97,98
 121 627 121 627 68 623 c 1,99,-1
 62 623 l 1,100,101
 24 647 24 647 24 657 c 2,102,-1
 24 685 l 2,103,104
 24 705 24 705 78 712 c 1,105,-1
 91 705 l 1,106,-1
 128 712 l 1,107,108
 140 709 140 709 140 698 c 1,109,-1
 378 705 l 1,7,8
EndSplineSet
EndChar

StartChar: Edieresis
Encoding: 203 203 139
Width: 610
GlyphClass: 2
Flags: W
LayerCount: 2
Fore
SplineSet
189 766 m 0,0,1
 165 766 165 766 149 781.5 c 128,-1,2
 133 797 133 797 133 824 c 256,3,4
 133 851 133 851 148 868 c 128,-1,5
 163 885 163 885 189 885 c 0,6,7
 213 885 213 885 230 870.5 c 128,-1,8
 247 856 247 856 247 824 c 0,9,10
 247 799 247 799 232.5 782.5 c 128,-1,11
 218 766 218 766 189 766 c 0,0,1
426 766 m 0,12,13
 402 766 402 766 385 781.5 c 128,-1,14
 368 797 368 797 368 824 c 256,15,16
 368 851 368 851 383.5 868 c 128,-1,17
 399 885 399 885 426 885 c 0,18,19
 449 885 449 885 466.5 870.5 c 128,-1,20
 484 856 484 856 484 824 c 0,21,22
 484 799 484 799 467.5 782.5 c 128,-1,23
 451 766 451 766 426 766 c 0,12,13
378 705 m 1,24,25
 400 719 400 719 427 719 c 1,26,27
 459 703 459 703 459 698 c 1,28,-1
 471 705 l 1,29,-1
 511 705 l 2,30,31
 561 705 561 705 561 616 c 1,32,-1
 571 446 l 1,33,-1
 558 439 l 1,34,-1
 536 439 l 2,35,36
 521 439 521 439 498 616 c 1,37,38
 477 616 477 616 477 637 c 1,39,-1
 471 637 l 2,40,41
 431 637 431 637 390 644 c 1,42,43
 365 637 365 637 346 637 c 1,44,45
 346 646 346 646 315 664 c 1,46,47
 278 655 278 655 278 637 c 1,48,-1
 226 644 l 1,49,50
 220 630 220 630 220 623 c 2,51,-1
 226 576 l 1,52,53
 220 548 220 548 220 528 c 2,54,-1
 220 427 l 1,55,56
 239 398 239 398 276 398 c 0,57,58
 355 399 355 399 346 487 c 0,59,60
 346 514 346 514 359 514 c 2,61,-1
 371 514 l 2,62,63
 383 514 383 514 409 439 c 1,64,65
 409 415 409 415 403 378 c 1,66,67
 415 303 415 303 403 303 c 1,68,-1
 409 269 l 1,69,70
 405 214 405 214 390 214 c 2,71,-1
 371 214 l 2,72,73
 355 214 355 214 340 317 c 1,74,75
 317 351 317 351 290 351 c 0,76,77
 228 348 228 348 232 304 c 1,78,79
 226 244 226 244 226 174 c 0,80,81
 231 75 231 75 256 75 c 2,82,-1
 315 75 l 1,83,84
 483 54 483 54 492 108 c 1,85,-1
 492 131 l 1,86,-1
 492 174 l 1,87,88
 477 239 477 239 527 283 c 1,89,-1
 552 283 l 2,90,91
 564 283 564 283 577 235 c 1,92,93
 570 115 570 115 570 92 c 1,94,-1
 564 92 l 1,95,96
 570 79 570 79 570 71 c 0,97,98
 547 3 547 3 496 3 c 1,99,-1
 471 -4 l 1,100,101
 309 -3 309 -3 159 7 c 1,102,-1
 28 10 l 1,103,-1
 16 31 l 1,104,-1
 16 38 l 1,105,106
 45 85 45 85 84 85 c 1,107,-1
 122 78 l 1,108,109
 159 92 159 92 159 153 c 2,110,-1
 161 569 l 2,111,112
 163 627 163 627 134 627 c 2,113,-1
 128 627 l 2,114,115
 121 627 121 627 68 623 c 1,116,-1
 62 623 l 1,117,118
 24 647 24 647 24 657 c 2,119,-1
 24 685 l 2,120,121
 24 705 24 705 78 712 c 1,122,-1
 91 705 l 1,123,-1
 128 712 l 1,124,125
 140 709 140 709 140 698 c 1,126,-1
 378 705 l 1,24,25
EndSplineSet
EndChar

StartChar: Igrave
Encoding: 204 204 140
Width: 610
GlyphClass: 2
Flags: W
LayerCount: 2
Fore
SplineSet
423 771 m 1,0,-1
 369 771 l 1,1,-1
 242 841 l 2,2,3
 221 851 221 851 208.5 866.5 c 128,-1,4
 196 882 196 882 193 904 c 0,5,6
 189 924 189 924 199 937 c 128,-1,7
 209 950 209 950 229 950 c 0,8,9
 264 950 264 950 302 909 c 2,10,-1
 423 771 l 1,0,-1
270 704 m 1,11,12
 392 703 392 703 486 707 c 1,13,14
 520 701 520 701 532 665 c 1,15,16
 532 649 532 649 507 633 c 1,17,-1
 501 633 l 2,18,19
 487 633 487 633 475 640 c 1,20,-1
 386 640 l 1,21,22
 357 619 357 619 352 599 c 2,23,-1
 342 555 l 1,24,25
 339 461 339 461 339 452 c 2,26,-1
 339 445 l 2,27,28
 339 270 339 270 342 91 c 1,29,-1
 370 70 l 1,30,-1
 476 70 l 1,31,-1
 514 62 l 1,32,33
 533 -8 533 -8 466 -8 c 1,34,-1
 410 -3 l 1,35,-1
 130 0 l 1,36,37
 78 5 78 5 78 19 c 2,38,-1
 78 39 l 2,39,40
 78 77 78 77 160 70 c 0,41,42
 270 60 270 60 269 105 c 2,43,-1
 269 111 l 1,44,-1
 272 136 l 1,45,46
 275 275 275 275 276 595 c 1,47,48
 268 629 268 629 233 629 c 1,49,-1
 220 634 l 1,50,51
 169 632 169 632 128 632 c 2,52,-1
 76 635 l 1,53,-1
 76 655 l 1,54,55
 95 704 95 704 144 704 c 1,56,-1
 180 711 l 1,57,58
 211 697 211 697 223 697 c 2,59,-1
 270 704 l 1,11,12
EndSplineSet
EndChar

StartChar: Iacute
Encoding: 205 205 141
Width: 610
GlyphClass: 2
Flags: W
LayerCount: 2
Fore
SplineSet
343 909 m 2,0,1
 381 950 381 950 416 950 c 0,2,3
 436 950 436 950 446 937 c 128,-1,4
 456 924 456 924 452 904 c 0,5,6
 449 882 449 882 436.5 866.5 c 128,-1,7
 424 851 424 851 403 841 c 2,8,-1
 276 771 l 1,9,-1
 222 771 l 1,10,-1
 343 909 l 2,0,1
270 704 m 1,11,12
 392 703 392 703 486 707 c 1,13,14
 520 701 520 701 532 665 c 1,15,16
 532 649 532 649 507 633 c 1,17,-1
 501 633 l 2,18,19
 487 633 487 633 475 640 c 1,20,-1
 386 640 l 1,21,22
 357 619 357 619 352 599 c 2,23,-1
 342 555 l 1,24,25
 339 461 339 461 339 452 c 2,26,-1
 339 445 l 2,27,28
 339 270 339 270 342 91 c 1,29,-1
 370 70 l 1,30,-1
 476 70 l 1,31,-1
 514 62 l 1,32,33
 533 -8 533 -8 466 -8 c 1,34,-1
 410 -3 l 1,35,-1
 130 0 l 1,36,37
 78 5 78 5 78 19 c 2,38,-1
 78 39 l 2,39,40
 78 77 78 77 160 70 c 0,41,42
 270 60 270 60 269 105 c 2,43,-1
 269 111 l 1,44,-1
 272 136 l 1,45,46
 275 275 275 275 276 595 c 1,47,48
 268 629 268 629 233 629 c 1,49,-1
 220 634 l 1,50,51
 169 632 169 632 128 632 c 2,52,-1
 76 635 l 1,53,-1
 76 655 l 1,54,55
 95 704 95 704 144 704 c 1,56,-1
 180 711 l 1,57,58
 211 697 211 697 223 697 c 2,59,-1
 270 704 l 1,11,12
EndSplineSet
EndChar

StartChar: Icircumflex
Encoding: 206 206 142
Width: 610
GlyphClass: 2
Flags: W
LayerCount: 2
Fore
SplineSet
271 950 m 1,0,-1
 351 950 l 1,1,-1
 485 781 l 1,2,-1
 427 781 l 1,3,-1
 311 881 l 1,4,-1
 196 781 l 1,5,-1
 137 781 l 1,6,-1
 271 950 l 1,0,-1
270 707 m 1,7,8
 293 717 293 717 330 707 c 0,9,10
 336 707 336 707 348 714 c 1,11,12
 519 709 519 709 519 697 c 1,13,-1
 532 668 l 1,14,15
 532 652 532 652 507 636 c 1,16,-1
 501 636 l 2,17,18
 487 636 487 636 475 643 c 1,19,-1
 386 643 l 1,20,21
 357 622 357 622 352 602 c 2,22,-1
 342 558 l 1,23,24
 339 463 339 463 339 454 c 2,25,-1
 339 447 l 2,26,27
 339 271 339 271 342 91 c 1,28,-1
 378 78 l 1,29,-1
 494 75 l 1,30,-1
 514 62 l 1,31,32
 533 -8 533 -8 466 -8 c 1,33,-1
 410 -3 l 1,34,-1
 130 0 l 1,35,36
 78 5 78 5 78 19 c 2,37,-1
 78 39 l 2,38,39
 78 77 78 77 152 77 c 1,40,41
 269 69 269 69 269 105 c 2,42,-1
 269 111 l 1,43,-1
 272 136 l 1,44,45
 275 276 275 276 276 598 c 1,46,47
 268 632 268 632 233 632 c 1,48,-1
 220 637 l 1,49,50
 169 635 169 635 128 635 c 2,51,-1
 76 638 l 1,52,-1
 76 658 l 1,53,54
 95 707 95 707 144 707 c 1,55,-1
 180 714 l 1,56,57
 211 700 211 700 223 700 c 2,58,-1
 270 707 l 1,7,8
EndSplineSet
EndChar

StartChar: Idieresis
Encoding: 207 207 143
Width: 610
GlyphClass: 2
Flags: W
LayerCount: 2
Fore
SplineSet
189 778 m 0,0,1
 165 778 165 778 149 793.5 c 128,-1,2
 133 809 133 809 133 836 c 256,3,4
 133 863 133 863 148 880 c 128,-1,5
 163 897 163 897 189 897 c 0,6,7
 213 897 213 897 230 882.5 c 128,-1,8
 247 868 247 868 247 836 c 0,9,10
 247 811 247 811 232.5 794.5 c 128,-1,11
 218 778 218 778 189 778 c 0,0,1
426 778 m 0,12,13
 402 778 402 778 385 793.5 c 128,-1,14
 368 809 368 809 368 836 c 256,15,16
 368 863 368 863 383.5 880 c 128,-1,17
 399 897 399 897 426 897 c 0,18,19
 449 897 449 897 466.5 882.5 c 128,-1,20
 484 868 484 868 484 836 c 0,21,22
 484 811 484 811 467.5 794.5 c 128,-1,23
 451 778 451 778 426 778 c 0,12,13
270 704 m 1,24,25
 392 703 392 703 486 707 c 1,26,27
 520 701 520 701 532 665 c 1,28,29
 532 649 532 649 507 633 c 1,30,-1
 501 633 l 2,31,32
 487 633 487 633 475 640 c 1,33,-1
 386 640 l 1,34,35
 357 619 357 619 352 599 c 2,36,-1
 342 555 l 1,37,38
 339 461 339 461 339 452 c 2,39,-1
 339 445 l 2,40,41
 339 270 339 270 342 91 c 1,42,-1
 370 70 l 1,43,-1
 476 70 l 1,44,-1
 514 62 l 1,45,46
 533 -8 533 -8 466 -8 c 1,47,-1
 410 -3 l 1,48,-1
 130 0 l 1,49,50
 78 5 78 5 78 19 c 2,51,-1
 78 39 l 2,52,53
 78 77 78 77 160 70 c 0,54,55
 270 60 270 60 269 105 c 2,56,-1
 269 111 l 1,57,-1
 272 136 l 1,58,59
 275 275 275 275 276 595 c 1,60,61
 268 629 268 629 233 629 c 1,62,-1
 220 634 l 1,63,64
 169 632 169 632 128 632 c 2,65,-1
 76 635 l 1,66,-1
 76 655 l 1,67,68
 95 704 95 704 144 704 c 1,69,-1
 180 711 l 1,70,71
 211 697 211 697 223 697 c 2,72,-1
 270 704 l 1,24,25
EndSplineSet
EndChar

StartChar: Eth
Encoding: 208 208 144
Width: 610
GlyphClass: 2
Flags: W
LayerCount: 2
Fore
SplineSet
188 703 m 2,0,1
 291 703 291 703 310 703 c 0,2,3
 470 683 470 683 484 635 c 1,4,5
 554 591 554 591 572 493 c 1,6,7
 577 430 577 430 585 430 c 1,8,9
 585 424 585 424 580 371 c 0,10,11
 580 351 580 351 578 267 c 1,12,13
 564 171 564 171 535 171 c 1,14,-1
 535 165 l 1,15,-1
 541 117 l 1,16,17
 474 21 474 21 416 21 c 1,18,19
 402 12 402 12 315 -5 c 0,20,21
 303 -5 303 -5 271 8 c 1,22,23
 240 -5 240 -5 228 -5 c 2,24,-1
 153 1 l 1,25,26
 134 -5 134 -5 134 -12 c 1,27,28
 19 -12 19 -12 19 49 c 2,29,-1
 19 56 l 1,30,31
 26 87 26 87 69 83 c 2,32,-1
 122 76 l 1,33,-1
 147 76 l 1,34,35
 172 87 172 87 169 124 c 0,36,37
 169 131 169 131 169 165 c 128,-1,38
 169 199 169 199 170 234 c 2,39,-1
 170 330 l 1,40,-1
 39 327 l 1,41,42
 11 344 11 344 33 395 c 1,43,-1
 170 396 l 1,44,-1
 170 485 l 1,45,-1
 170 620 l 1,46,-1
 140 638 l 1,47,48
 72 631 72 631 32 631 c 1,49,50
 19 656 19 656 19 689 c 1,51,52
 47 703 47 703 91 703 c 2,53,-1
 188 703 l 2,0,1
231 614 m 1,54,55
 227 516 227 516 230 395 c 1,56,-1
 361 396 l 1,57,-1
 362 332 l 1,58,-1
 231 332 l 1,59,60
 229 300 229 300 231 244 c 2,61,-1
 231 145 l 1,62,63
 224 76 224 76 265 76 c 2,64,-1
 284 76 l 2,65,66
 429 76 429 76 490 221 c 1,67,-1
 509 317 l 2,68,69
 509 322 509 322 509 410 c 1,70,-1
 502 437 l 1,71,72
 509 475 509 475 486 539 c 1,73,74
 465 578 465 578 440 594 c 1,75,76
 406 631 406 631 306 641 c 1,77,78
 247 633 247 633 231 614 c 1,54,55
EndSplineSet
EndChar

StartChar: Ntilde
Encoding: 209 209 145
Width: 610
GlyphClass: 2
Flags: W
LayerCount: 2
Fore
SplineSet
244 919 m 0,0,1
 272 919 272 919 289 910.5 c 128,-1,2
 306 902 306 902 328 886 c 1,3,4
 349 878 349 878 364 870.5 c 128,-1,5
 379 863 379 863 396 863 c 1,6,7
 440 875 440 875 446 923 c 1,8,-1
 492 923 l 1,9,10
 488 866 488 866 458.5 830.5 c 128,-1,11
 429 795 429 795 377 795 c 0,12,13
 342 795 342 795 294 823 c 0,14,15
 272 834 272 834 257 840 c 128,-1,16
 242 846 242 846 226 846 c 0,17,18
 203 846 203 846 189.5 829 c 128,-1,19
 176 812 176 812 167 788 c 1,20,-1
 123 788 l 1,21,22
 134 844 134 844 167 881.5 c 128,-1,23
 200 919 200 919 244 919 c 0,0,1
17 39 m 1,24,25
 21 59 21 59 37.5 62 c 128,-1,26
 54 65 54 65 72 67 c 2,27,-1
 91 70 l 2,28,29
 107 74 107 74 112 85 c 0,30,31
 116 95 116 95 117.5 101 c 128,-1,32
 119 107 119 107 119 136 c 2,33,-1
 121 575 l 1,34,-1
 113 607 l 2,35,36
 103 635 103 635 61.5 639.5 c 128,-1,37
 20 644 20 644 20 671 c 0,38,39
 20 693 20 693 22 698 c 128,-1,40
 24 703 24 703 37 703 c 2,41,-1
 196 703 l 1,42,-1
 223 693 l 1,43,-1
 243 668 l 1,44,-1
 276 572 l 1,45,46
 312 481 312 481 417 189 c 0,47,48
 430 162 430 162 443 162 c 128,-1,49
 456 162 456 162 454 222 c 2,50,-1
 452 339 l 1,51,-1
 444 626 l 1,52,-1
 436 641 l 1,53,-1
 416 641 l 1,54,-1
 370 649 l 2,55,56
 353 656 353 656 353 680 c 0,57,58
 353 693 353 693 379 706 c 1,59,60
 392 706 392 706 429.5 705.5 c 128,-1,61
 467 705 467 705 488 705 c 2,62,-1
 575 705 l 2,63,64
 577 705 577 705 583.5 698 c 128,-1,65
 590 691 590 691 591 688 c 0,66,67
 590 654 590 654 576 648 c 128,-1,68
 562 642 562 642 544 644.5 c 128,-1,69
 526 647 526 647 512 640 c 1,70,-1
 509 614 l 1,71,-1
 513 58 l 1,72,-1
 508 14 l 1,73,-1
 490 -6 l 1,74,-1
 472 -8 l 2,75,76
 448 -8 448 -8 433 4 c 0,77,78
 426 11 426 11 418 21 c 0,79,80
 393 62 393 62 318.5 273.5 c 128,-1,81
 244 485 244 485 240 494 c 0,82,83
 203 598 203 598 192 598 c 2,84,-1
 186 598 l 1,85,-1
 185 583 l 1,86,-1
 185 376 l 1,87,-1
 185 110 l 2,88,89
 188 90 188 90 196.5 79.5 c 128,-1,90
 205 69 205 69 215 65 c 2,91,-1
 268 55 l 1,92,93
 284 46 284 46 286 28 c 0,94,95
 285 18 285 18 284 14.5 c 128,-1,96
 283 11 283 11 277 2 c 1,97,98
 262 -4 262 -4 252.5 -3.5 c 128,-1,99
 243 -3 243 -3 229 -1 c 0,100,101
 194 0 194 0 126 -1 c 2,102,-1
 39 -1 l 1,103,104
 18 11 18 11 17 39 c 1,24,25
EndSplineSet
EndChar

StartChar: Ograve
Encoding: 210 210 146
Width: 610
GlyphClass: 2
Flags: W
LayerCount: 2
Fore
SplineSet
314 711 m 1,0,1
 411 694 411 694 442 649 c 0,2,3
 511 549 511 549 507 476 c 1,4,5
 533 474 533 474 542 349 c 0,6,7
 542 337 542 337 534 273 c 0,8,9
 526 241 526 241 526 229 c 0,10,11
 503 158 503 158 502 142 c 1,12,-1
 508 141 l 1,13,14
 452 33 452 33 339 0 c 1,15,16
 326 1 326 1 296 16 c 1,17,18
 261 11 261 11 239 13 c 0,19,20
 203 18 203 18 144 106 c 1,21,22
 96 109 96 109 67 308 c 0,23,24
 68 315 68 315 74 328 c 1,25,26
 63 351 63 351 64 370 c 0,27,28
 74 550 74 550 160 644 c 1,29,30
 211 662 211 662 212 675 c 0,31,32
 224 716 224 716 314 711 c 1,0,1
175 568 m 1,33,-1
 160 524 l 2,34,35
 160 513 160 513 144 481 c 1,36,37
 124 381 124 381 137 325 c 1,38,-1
 136 318 l 1,39,40
 133 264 133 264 158 211 c 0,41,42
 185 152 185 152 254 106 c 1,43,-1
 284 99 l 1,44,45
 376 96 376 96 416 160 c 1,46,-1
 449 206 l 1,47,48
 444 219 444 219 462 251 c 1,49,50
 466 328 466 328 465 373 c 0,51,52
 465 485 465 485 425 554 c 1,53,54
 401 622 401 622 342 648 c 1,55,56
 216 641 216 641 215 614 c 1,57,-1
 175 568 l 1,33,-1
423 771 m 1,58,-1
 369 771 l 1,59,-1
 242 841 l 2,60,61
 221 851 221 851 208.5 866.5 c 128,-1,62
 196 882 196 882 193 904 c 0,63,64
 189 924 189 924 199 937 c 128,-1,65
 209 950 209 950 229 950 c 0,66,67
 264 950 264 950 302 909 c 2,68,-1
 423 771 l 1,58,-1
EndSplineSet
EndChar

StartChar: Oacute
Encoding: 211 211 147
Width: 610
GlyphClass: 2
Flags: W
LayerCount: 2
Fore
SplineSet
343 909 m 2,0,1
 381 950 381 950 416 950 c 0,2,3
 436 950 436 950 446 937 c 128,-1,4
 456 924 456 924 452 904 c 0,5,6
 449 882 449 882 436.5 866.5 c 128,-1,7
 424 851 424 851 403 841 c 2,8,-1
 276 771 l 1,9,-1
 222 771 l 1,10,-1
 343 909 l 2,0,1
314 711 m 1,11,12
 411 694 411 694 442 649 c 0,13,14
 511 549 511 549 507 476 c 1,15,16
 533 474 533 474 542 349 c 0,17,18
 542 337 542 337 534 273 c 0,19,20
 526 241 526 241 526 229 c 0,21,22
 503 158 503 158 502 142 c 1,23,-1
 508 141 l 1,24,25
 452 33 452 33 339 0 c 1,26,27
 326 1 326 1 296 16 c 1,28,29
 261 11 261 11 239 13 c 0,30,31
 203 18 203 18 144 106 c 1,32,33
 96 109 96 109 67 308 c 0,34,35
 68 315 68 315 74 328 c 1,36,37
 63 351 63 351 64 370 c 0,38,39
 74 550 74 550 160 644 c 1,40,41
 211 662 211 662 212 675 c 0,42,43
 224 716 224 716 314 711 c 1,11,12
175 568 m 1,44,-1
 160 524 l 2,45,46
 160 513 160 513 144 481 c 1,47,48
 124 381 124 381 137 325 c 1,49,-1
 136 318 l 1,50,51
 133 264 133 264 158 211 c 0,52,53
 185 152 185 152 254 106 c 1,54,-1
 284 99 l 1,55,56
 376 96 376 96 416 160 c 1,57,-1
 449 206 l 1,58,59
 444 219 444 219 462 251 c 1,60,61
 466 328 466 328 465 373 c 0,62,63
 465 485 465 485 425 554 c 1,64,65
 401 622 401 622 342 648 c 1,66,67
 216 641 216 641 215 614 c 1,68,-1
 175 568 l 1,44,-1
EndSplineSet
EndChar

StartChar: Ocircumflex
Encoding: 212 212 148
Width: 610
GlyphClass: 2
Flags: W
LayerCount: 2
Fore
SplineSet
271 950 m 1,0,-1
 351 950 l 1,1,-1
 485 781 l 1,2,-1
 427 781 l 1,3,-1
 311 881 l 1,4,-1
 196 781 l 1,5,-1
 137 781 l 1,6,-1
 271 950 l 1,0,-1
314 711 m 1,7,8
 411 694 411 694 442 649 c 0,9,10
 511 549 511 549 507 476 c 1,11,12
 533 474 533 474 542 349 c 0,13,14
 542 337 542 337 534 273 c 0,15,16
 526 241 526 241 526 229 c 0,17,18
 503 158 503 158 502 142 c 1,19,-1
 508 141 l 1,20,21
 452 33 452 33 339 0 c 1,22,23
 326 1 326 1 296 16 c 1,24,25
 261 11 261 11 239 13 c 0,26,27
 203 18 203 18 144 106 c 1,28,29
 96 109 96 109 67 308 c 0,30,31
 68 315 68 315 74 328 c 1,32,33
 63 351 63 351 64 370 c 0,34,35
 74 550 74 550 160 644 c 1,36,37
 211 662 211 662 212 675 c 0,38,39
 224 716 224 716 314 711 c 1,7,8
175 568 m 1,40,-1
 160 524 l 2,41,42
 160 513 160 513 144 481 c 1,43,44
 124 381 124 381 137 325 c 1,45,-1
 136 318 l 1,46,47
 133 264 133 264 158 211 c 0,48,49
 185 152 185 152 254 106 c 1,50,-1
 284 99 l 1,51,52
 376 96 376 96 416 160 c 1,53,-1
 449 206 l 1,54,55
 444 219 444 219 462 251 c 1,56,57
 466 328 466 328 465 373 c 0,58,59
 465 485 465 485 425 554 c 1,60,61
 401 622 401 622 342 648 c 1,62,63
 216 641 216 641 215 614 c 1,64,-1
 175 568 l 1,40,-1
EndSplineSet
EndChar

StartChar: Otilde
Encoding: 213 213 149
Width: 610
GlyphClass: 2
Flags: W
LayerCount: 2
Fore
SplineSet
314 711 m 1,0,1
 411 694 411 694 442 649 c 0,2,3
 511 549 511 549 507 476 c 1,4,5
 533 474 533 474 544 344 c 0,6,7
 544 332 544 332 515 264 c 1,8,9
 526 241 526 241 526 229 c 0,10,11
 503 158 503 158 502 142 c 1,12,-1
 508 141 l 1,13,14
 452 33 452 33 339 0 c 1,15,16
 326 1 326 1 296 16 c 1,17,18
 261 11 261 11 239 13 c 0,19,20
 203 18 203 18 144 106 c 1,21,22
 96 109 96 109 67 308 c 0,23,24
 68 315 68 315 74 328 c 1,25,26
 63 351 63 351 64 370 c 0,27,28
 74 550 74 550 160 644 c 1,29,30
 211 662 211 662 212 675 c 0,31,32
 224 716 224 716 314 711 c 1,0,1
175 568 m 1,33,-1
 179 534 l 2,34,35
 179 523 179 523 140 509 c 1,36,37
 152 483 152 483 150 454 c 2,38,-1
 148 420 l 2,39,40
 148 404 148 404 140 393 c 1,41,-1
 157 351 l 1,42,-1
 137 325 l 1,43,-1
 136 318 l 1,44,45
 133 264 133 264 158 211 c 0,46,47
 185 152 185 152 254 106 c 1,48,-1
 284 99 l 1,49,50
 376 96 376 96 416 160 c 1,51,-1
 449 206 l 1,52,53
 444 219 444 219 462 251 c 1,54,55
 466 328 466 328 475 327 c 1,56,57
 462 580 462 580 420 583 c 1,58,59
 420 594 420 594 342 648 c 1,60,61
 216 641 216 641 215 614 c 1,62,-1
 175 568 l 1,33,-1
244 919 m 0,63,64
 272 919 272 919 289 910.5 c 128,-1,65
 306 902 306 902 328 886 c 1,66,67
 349 878 349 878 364 870.5 c 128,-1,68
 379 863 379 863 396 863 c 1,69,70
 440 875 440 875 446 923 c 1,71,-1
 492 923 l 1,72,73
 488 866 488 866 458.5 830.5 c 128,-1,74
 429 795 429 795 377 795 c 0,75,76
 342 795 342 795 294 823 c 0,77,78
 272 834 272 834 257 840 c 128,-1,79
 242 846 242 846 226 846 c 0,80,81
 203 846 203 846 189.5 829 c 128,-1,82
 176 812 176 812 167 788 c 1,83,-1
 123 788 l 1,84,85
 134 844 134 844 167 881.5 c 128,-1,86
 200 919 200 919 244 919 c 0,63,64
EndSplineSet
EndChar

StartChar: Odieresis
Encoding: 214 214 150
Width: 610
GlyphClass: 2
Flags: W
LayerCount: 2
Fore
SplineSet
314 711 m 1,0,1
 411 694 411 694 442 649 c 0,2,3
 511 549 511 549 507 476 c 1,4,5
 533 474 533 474 544 344 c 0,6,7
 544 332 544 332 515 264 c 1,8,9
 526 241 526 241 526 229 c 0,10,11
 503 158 503 158 502 142 c 1,12,-1
 508 141 l 1,13,14
 452 33 452 33 339 0 c 1,15,16
 326 1 326 1 296 16 c 1,17,18
 261 11 261 11 239 13 c 0,19,20
 203 18 203 18 144 106 c 1,21,22
 96 109 96 109 67 308 c 0,23,24
 68 315 68 315 74 328 c 1,25,26
 63 351 63 351 64 370 c 0,27,28
 74 550 74 550 160 644 c 1,29,30
 211 662 211 662 212 675 c 0,31,32
 224 716 224 716 314 711 c 1,0,1
175 568 m 1,33,-1
 179 534 l 2,34,35
 179 523 179 523 140 509 c 1,36,37
 152 483 152 483 150 454 c 2,38,-1
 148 420 l 2,39,40
 148 404 148 404 140 393 c 1,41,-1
 157 351 l 1,42,-1
 137 325 l 1,43,-1
 136 318 l 1,44,45
 133 264 133 264 158 211 c 0,46,47
 185 152 185 152 254 106 c 1,48,-1
 284 99 l 1,49,50
 376 96 376 96 416 160 c 1,51,-1
 449 206 l 1,52,53
 444 219 444 219 462 251 c 1,54,55
 466 328 466 328 475 327 c 1,56,57
 462 580 462 580 420 583 c 1,58,59
 420 594 420 594 342 648 c 1,60,61
 216 641 216 641 215 614 c 1,62,-1
 175 568 l 1,33,-1
189 778 m 0,63,64
 165 778 165 778 149 793.5 c 128,-1,65
 133 809 133 809 133 836 c 256,66,67
 133 863 133 863 148 880 c 128,-1,68
 163 897 163 897 189 897 c 0,69,70
 213 897 213 897 230 882.5 c 128,-1,71
 247 868 247 868 247 836 c 0,72,73
 247 811 247 811 232.5 794.5 c 128,-1,74
 218 778 218 778 189 778 c 0,63,64
426 778 m 0,75,76
 402 778 402 778 385 793.5 c 128,-1,77
 368 809 368 809 368 836 c 256,78,79
 368 863 368 863 383.5 880 c 128,-1,80
 399 897 399 897 426 897 c 0,81,82
 449 897 449 897 466.5 882.5 c 128,-1,83
 484 868 484 868 484 836 c 0,84,85
 484 811 484 811 467.5 794.5 c 128,-1,86
 451 778 451 778 426 778 c 0,75,76
EndSplineSet
EndChar

StartChar: multiply
Encoding: 215 215 151
Width: 610
GlyphClass: 2
Flags: W
LayerCount: 2
Fore
SplineSet
520 115 m 1,0,-1
 476 68 l 1,1,-1
 306 241 l 1,2,-1
 136 68 l 1,3,-1
 91 115 l 1,4,-1
 260 288 l 1,5,-1
 91 461 l 1,6,-1
 136 506 l 1,7,-1
 306 334 l 1,8,-1
 476 506 l 1,9,-1
 520 461 l 1,10,-1
 351 288 l 1,11,-1
 520 115 l 1,0,-1
EndSplineSet
EndChar

StartChar: Oslash
Encoding: 216 216 152
Width: 610
GlyphClass: 2
Flags: W
LayerCount: 2
Fore
SplineSet
486 605 m 1,0,1
 513 588 513 588 535 537 c 0,2,3
 555 491 555 491 560 438 c 2,4,-1
 567 363 l 1,5,6
 568 209 568 209 520 118 c 0,7,8
 452 -5 452 -5 309 -5 c 0,9,10
 239 -5 239 -5 195 26 c 1,11,-1
 134 -94 l 1,12,13
 108 -109 108 -109 87 -94 c 0,14,15
 72 -79 72 -79 85 -51 c 2,16,-1
 145 63 l 1,17,18
 104 103 104 103 76 178 c 1,19,-1
 53 253 l 1,20,-1
 53 277 l 1,21,22
 47 296 47 296 47 344 c 0,23,24
 47 383 47 383 51.5 420.5 c 128,-1,25
 56 458 56 458 66 490 c 2,26,-1
 91 563 l 1,27,28
 113 601 113 601 124 616 c 0,29,30
 140 632 140 632 142 635 c 0,31,32
 158 658 158 658 202 674 c 0,33,34
 261 700 261 700 321 700 c 0,35,36
 358 700 358 700 388.5 687.5 c 128,-1,37
 419 675 419 675 444 653 c 1,38,-1
 512 774 l 1,39,40
 549 793 549 793 557 749 c 1,41,-1
 506 647 l 1,42,-1
 486 605 l 1,0,1
220 82 m 1,43,44
 240 72 240 72 264.5 66 c 128,-1,45
 289 60 289 60 331 60 c 0,46,47
 356 60 356 60 384 69 c 128,-1,48
 412 78 412 78 445 112 c 1,49,50
 476 155 476 155 493 214 c 1,51,-1
 499 246 l 2,52,53
 500 248 500 248 506 344 c 1,54,55
 514 369 514 369 495 484 c 1,56,57
 483 524 483 524 460 555 c 1,58,59
 225 97 225 97 220 82 c 1,43,44
179 115 m 1,60,-1
 187 139 l 1,61,62
 394 545 394 545 420 598 c 1,63,64
 374 646 374 646 301 646 c 0,65,66
 282 646 282 646 267 644 c 128,-1,67
 252 642 252 642 239 631 c 1,68,69
 203 623 203 623 174 574 c 1,70,71
 122 501 122 501 107 384 c 1,72,-1
 109 308 l 2,73,74
 109 304 109 304 115.5 263 c 128,-1,75
 122 222 122 222 122 219 c 0,76,77
 149 163 149 163 159.5 144.5 c 128,-1,78
 170 126 170 126 179 115 c 1,60,-1
EndSplineSet
EndChar

StartChar: Ugrave
Encoding: 217 217 153
Width: 610
GlyphClass: 2
Flags: W
LayerCount: 2
Fore
SplineSet
423 771 m 1,0,-1
 369 771 l 1,1,-1
 242 841 l 2,2,3
 221 851 221 851 208.5 866.5 c 128,-1,4
 196 882 196 882 193 904 c 0,5,6
 189 924 189 924 199 937 c 128,-1,7
 209 950 209 950 229 950 c 0,8,9
 264 950 264 950 302 909 c 2,10,-1
 423 771 l 1,0,-1
377 689 m 2,11,-1
 571 689 l 1,12,-1
 594 670 l 1,13,14
 593 637 593 637 578 621 c 1,15,16
 572 621 572 621 533 623 c 0,17,18
 492 622 492 622 497 575 c 1,19,-1
 497 536 l 1,20,-1
 497 287 l 2,21,22
 497 152 497 152 465 83 c 1,23,24
 423 10 423 10 365 -9 c 0,25,26
 341 -16 341 -16 281 -20 c 1,27,28
 190 -6 190 -6 152 43 c 0,29,30
 119 80 119 80 109 141 c 1,31,-1
 109 206 l 1,32,-1
 110 592 l 2,33,34
 112 636 112 636 28 631 c 1,35,-1
 22 660 l 1,36,37
 21 688 21 688 52 693 c 1,38,-1
 135 694 l 1,39,-1
 227 693 l 2,40,41
 260 694 260 694 258 660 c 2,42,-1
 258 648 l 2,43,44
 258 634 258 634 246 634 c 0,45,46
 232 634 232 634 216 629 c 1,47,48
 182 642 182 642 180 602 c 2,49,-1
 180 410 l 2,50,51
 180 311 180 311 180 268 c 2,52,-1
 180 206 l 1,53,54
 191 62 191 62 314 56 c 1,55,56
 396 59 396 59 427 172 c 1,57,58
 433 215 433 215 432 251 c 2,59,-1
 433 595 l 1,60,61
 427 607 427 607 427 623 c 1,62,-1
 374 622 l 1,63,64
 345 632 345 632 345 643 c 2,65,-1
 345 669 l 1,66,67
 354 691 354 691 377 689 c 2,11,-1
EndSplineSet
EndChar

StartChar: Uacute
Encoding: 218 218 154
Width: 610
GlyphClass: 2
Flags: W
LayerCount: 2
Fore
SplineSet
343 909 m 2,0,1
 381 950 381 950 416 950 c 0,2,3
 436 950 436 950 446 937 c 128,-1,4
 456 924 456 924 452 904 c 0,5,6
 449 882 449 882 436.5 866.5 c 128,-1,7
 424 851 424 851 403 841 c 2,8,-1
 276 771 l 1,9,-1
 222 771 l 1,10,-1
 343 909 l 2,0,1
377 689 m 2,11,-1
 571 689 l 1,12,-1
 594 670 l 1,13,14
 593 637 593 637 578 621 c 1,15,16
 572 621 572 621 533 623 c 0,17,18
 492 622 492 622 497 575 c 1,19,-1
 497 536 l 1,20,-1
 497 287 l 2,21,22
 497 152 497 152 465 83 c 1,23,24
 423 10 423 10 365 -9 c 0,25,26
 341 -16 341 -16 281 -20 c 1,27,28
 190 -6 190 -6 152 43 c 0,29,30
 119 80 119 80 109 141 c 1,31,-1
 109 206 l 1,32,-1
 110 592 l 2,33,34
 112 636 112 636 28 631 c 1,35,-1
 22 660 l 1,36,37
 21 688 21 688 52 693 c 1,38,-1
 135 694 l 1,39,-1
 227 693 l 2,40,41
 260 694 260 694 258 660 c 2,42,-1
 258 648 l 2,43,44
 258 634 258 634 246 634 c 0,45,46
 232 634 232 634 216 629 c 1,47,48
 182 642 182 642 180 602 c 2,49,-1
 180 410 l 2,50,51
 180 311 180 311 180 268 c 2,52,-1
 180 206 l 1,53,54
 191 62 191 62 314 56 c 1,55,56
 396 59 396 59 427 172 c 1,57,58
 433 215 433 215 432 251 c 2,59,-1
 433 595 l 1,60,61
 427 607 427 607 427 623 c 1,62,-1
 374 622 l 1,63,64
 345 632 345 632 345 643 c 2,65,-1
 345 669 l 1,66,67
 354 691 354 691 377 689 c 2,11,-1
EndSplineSet
EndChar

StartChar: Ucircumflex
Encoding: 219 219 155
Width: 610
GlyphClass: 2
Flags: W
LayerCount: 2
Fore
SplineSet
271 950 m 1,0,-1
 351 950 l 1,1,-1
 485 781 l 1,2,-1
 427 781 l 1,3,-1
 311 881 l 1,4,-1
 196 781 l 1,5,-1
 137 781 l 1,6,-1
 271 950 l 1,0,-1
377 689 m 2,7,-1
 571 689 l 1,8,-1
 594 670 l 1,9,10
 593 637 593 637 578 621 c 1,11,12
 572 621 572 621 533 623 c 0,13,14
 492 622 492 622 497 575 c 1,15,-1
 497 536 l 1,16,-1
 497 287 l 2,17,18
 497 152 497 152 465 83 c 1,19,20
 423 10 423 10 365 -9 c 0,21,22
 341 -16 341 -16 281 -20 c 1,23,24
 190 -6 190 -6 152 43 c 0,25,26
 119 80 119 80 109 141 c 1,27,-1
 109 206 l 1,28,-1
 110 592 l 2,29,30
 112 636 112 636 28 631 c 1,31,-1
 22 660 l 1,32,33
 21 688 21 688 52 693 c 1,34,-1
 135 694 l 1,35,-1
 227 693 l 2,36,37
 260 694 260 694 258 660 c 2,38,-1
 258 648 l 2,39,40
 258 634 258 634 246 634 c 0,41,42
 232 634 232 634 216 629 c 1,43,44
 182 642 182 642 180 602 c 2,45,-1
 180 410 l 2,46,47
 180 311 180 311 180 268 c 2,48,-1
 180 206 l 1,49,50
 191 62 191 62 314 56 c 1,51,52
 396 59 396 59 427 172 c 1,53,54
 433 215 433 215 432 251 c 2,55,-1
 433 595 l 1,56,57
 427 607 427 607 427 623 c 1,58,-1
 374 622 l 1,59,60
 345 632 345 632 345 643 c 2,61,-1
 345 669 l 1,62,63
 354 691 354 691 377 689 c 2,7,-1
EndSplineSet
EndChar

StartChar: Udieresis
Encoding: 220 220 156
Width: 610
GlyphClass: 2
Flags: W
LayerCount: 2
Fore
SplineSet
189 778 m 0,0,1
 165 778 165 778 149 793.5 c 128,-1,2
 133 809 133 809 133 836 c 256,3,4
 133 863 133 863 148 880 c 128,-1,5
 163 897 163 897 189 897 c 0,6,7
 213 897 213 897 230 882.5 c 128,-1,8
 247 868 247 868 247 836 c 0,9,10
 247 811 247 811 232.5 794.5 c 128,-1,11
 218 778 218 778 189 778 c 0,0,1
426 778 m 0,12,13
 402 778 402 778 385 793.5 c 128,-1,14
 368 809 368 809 368 836 c 256,15,16
 368 863 368 863 383.5 880 c 128,-1,17
 399 897 399 897 426 897 c 0,18,19
 449 897 449 897 466.5 882.5 c 128,-1,20
 484 868 484 868 484 836 c 0,21,22
 484 811 484 811 467.5 794.5 c 128,-1,23
 451 778 451 778 426 778 c 0,12,13
377 689 m 2,24,-1
 571 689 l 1,25,-1
 594 670 l 1,26,27
 593 637 593 637 578 621 c 1,28,29
 572 621 572 621 533 623 c 0,30,31
 492 622 492 622 497 575 c 1,32,-1
 497 536 l 1,33,-1
 497 287 l 2,34,35
 497 152 497 152 465 83 c 1,36,37
 423 10 423 10 365 -9 c 0,38,39
 341 -16 341 -16 281 -20 c 1,40,41
 190 -6 190 -6 152 43 c 0,42,43
 119 80 119 80 109 141 c 1,44,-1
 109 206 l 1,45,-1
 110 592 l 2,46,47
 112 636 112 636 28 631 c 1,48,-1
 22 660 l 1,49,50
 21 688 21 688 52 693 c 1,51,-1
 135 694 l 1,52,-1
 227 693 l 2,53,54
 260 694 260 694 258 660 c 2,55,-1
 258 648 l 2,56,57
 258 634 258 634 246 634 c 0,58,59
 232 634 232 634 216 629 c 1,60,61
 182 642 182 642 180 602 c 2,62,-1
 180 410 l 2,63,64
 180 311 180 311 180 268 c 2,65,-1
 180 206 l 1,66,67
 191 62 191 62 314 56 c 1,68,69
 396 59 396 59 427 172 c 1,70,71
 433 215 433 215 432 251 c 2,72,-1
 433 595 l 1,73,74
 427 607 427 607 427 623 c 1,75,-1
 374 622 l 1,76,77
 345 632 345 632 345 643 c 2,78,-1
 345 669 l 1,79,80
 354 691 354 691 377 689 c 2,24,-1
EndSplineSet
EndChar

StartChar: Yacute
Encoding: 221 221 157
Width: 610
GlyphClass: 2
Flags: W
LayerCount: 2
Fore
SplineSet
93 706 m 1,0,-1
 172 701 l 2,1,2
 177 701 177 701 222 708 c 1,3,4
 277 687 277 687 266 653 c 1,5,6
 247 633 247 633 197 626 c 1,7,-1
 197 605 l 1,8,9
 256 457 256 457 292 399 c 1,10,-1
 312 392 l 1,11,-1
 415 599 l 1,12,-1
 415 626 l 1,13,14
 353 641 353 641 353 653 c 2,15,-1
 353 667 l 2,16,17
 353 692 353 692 422 708 c 1,18,-1
 453 701 l 1,19,20
 517 708 517 708 556 708 c 256,21,22
 595 708 595 708 600 660 c 0,23,24
 600 650 600 650 575 633 c 1,25,26
 559 633 559 633 508 633 c 1,27,28
 494 608 494 608 447 531 c 0,29,30
 389 431 389 431 356 362 c 1,31,32
 344 320 344 320 335 252 c 1,33,34
 325 78 325 78 361 69 c 1,35,36
 478 72 478 72 478 47 c 2,37,-1
 478 20 l 1,38,39
 471 7 471 7 471 0 c 1,40,-1
 465 0 l 2,41,42
 448 0 448 0 320 10 c 1,43,44
 274 -8 274 -8 194 0 c 1,45,-1
 176 0 l 2,46,47
 158 2 158 2 126 13 c 1,48,49
 107 38 107 38 130 67 c 1,50,51
 150 74 150 74 186.5 77 c 128,-1,52
 223 80 223 80 239 80 c 0,53,54
 268 80 268 80 270 149 c 2,55,-1
 270 227 l 1,56,-1
 270 259 l 2,57,58
 270 290 270 290 261 317 c 0,59,60
 185 489 185 489 128 598 c 1,61,62
 108 624 108 624 89 633 c 1,63,-1
 64 626 l 1,64,-1
 58 626 l 2,65,66
 16 626 16 626 12 646 c 1,67,-1
 12 674 l 2,68,69
 12 690 12 690 93 706 c 1,0,-1
343 909 m 2,70,71
 381 950 381 950 416 950 c 0,72,73
 436 950 436 950 446 937 c 128,-1,74
 456 924 456 924 452 904 c 0,75,76
 449 882 449 882 436.5 866.5 c 128,-1,77
 424 851 424 851 403 841 c 2,78,-1
 276 771 l 1,79,-1
 222 771 l 1,80,-1
 343 909 l 2,70,71
EndSplineSet
EndChar

StartChar: Thorn
Encoding: 222 222 158
Width: 610
GlyphClass: 2
Flags: W
LayerCount: 2
Fore
SplineSet
213 488 m 1,0,-1
 213 248 l 1,1,2
 235 236 235 236 269 235.5 c 128,-1,3
 303 235 303 235 329 235 c 0,4,5
 409 231 409 231 446 261.5 c 128,-1,6
 483 292 483 292 483 359 c 0,7,8
 481 430 481 430 437 459.5 c 128,-1,9
 393 489 393 489 299 488 c 2,10,-1
 213 488 l 1,0,-1
42 -4 m 1,11,-1
 42 52 l 1,12,-1
 45 52 l 2,13,14
 107 52 107 52 127.5 62.5 c 128,-1,15
 148 73 148 73 148 104 c 2,16,-1
 148 621 l 2,17,18
 148 650 148 650 129 656 c 128,-1,19
 110 662 110 662 69 662 c 1,20,-1
 42 668 l 1,21,-1
 42 706 l 1,22,23
 89 716 89 716 122 715 c 128,-1,24
 155 714 155 714 176 714 c 256,25,26
 197 714 197 714 233.5 715 c 128,-1,27
 270 716 270 716 324 704 c 1,28,-1
 324 671 l 1,29,-1
 292 662 l 1,30,31
 255 662 255 662 234 656 c 128,-1,32
 213 650 213 650 213 621 c 2,33,-1
 213 544 l 1,34,-1
 319 544 l 2,35,36
 444 544 444 544 500 495 c 128,-1,37
 556 446 556 446 556 365 c 0,38,39
 556 274 556 274 507 223 c 128,-1,40
 458 172 458 172 328 172 c 2,41,-1
 213 175 l 1,42,-1
 213 111 l 2,43,44
 213 69 213 69 228.5 60.5 c 128,-1,45
 244 52 244 52 296 52 c 2,46,-1
 323 52 l 1,47,-1
 323 -4 l 1,48,49
 256 -3 256 -3 224.5 -2 c 128,-1,50
 193 -1 193 -1 176 -1 c 0,51,52
 160 -1 160 -1 128.5 -2 c 128,-1,53
 97 -3 97 -3 42 -4 c 1,11,-1
EndSplineSet
EndChar

StartChar: germandbls
Encoding: 223 223 159
Width: 610
GlyphClass: 2
Flags: W
LayerCount: 2
Fore
SplineSet
278 95 m 2,0,1
 286 127 286 127 328 138 c 1,2,3
 353 138 353 138 365 124 c 128,-1,4
 377 110 377 110 377 92 c 2,5,-1
 380 69 l 1,6,7
 351 43 351 43 392 48 c 2,8,-1
 413 50 l 1,9,10
 444 66 444 66 462.5 112 c 128,-1,11
 481 158 481 158 470 238 c 2,12,-1
 460 293 l 1,13,-1
 441 322 l 2,14,15
 434 339 434 339 417 356 c 1,16,17
 375 377 375 377 337 380 c 2,18,-1
 278 379 l 1,19,-1
 275 410 l 1,20,-1
 276 439 l 1,21,22
 319 433 319 433 374.5 455 c 128,-1,23
 430 477 430 477 430 557 c 1,24,25
 426 605 426 605 418 614 c 0,26,27
 401 652 401 652 374.5 665.5 c 128,-1,28
 348 679 348 679 304 681 c 1,29,30
 240 677 240 677 202 598 c 1,31,32
 185 548 185 548 185 453 c 2,33,-1
 185 225 l 1,34,-1
 185 75 l 1,35,36
 199 69 199 69 207.5 63 c 128,-1,37
 216 57 216 57 221 54 c 0,38,39
 232 37 232 37 232 21 c 0,40,41
 232 14 232 14 229 8 c 0,42,43
 223 -5 223 -5 214 -2 c 0,44,45
 211 -2 211 -2 202.5 -1.5 c 128,-1,46
 194 -1 194 -1 193 -1 c 2,47,-1
 128 -1 l 1,48,-1
 109 -1 l 2,49,50
 80 -1 80 -1 55.5 1.5 c 128,-1,51
 31 4 31 4 28 9.5 c 128,-1,52
 25 15 25 15 23 21 c 0,53,54
 21 58 21 58 31 61.5 c 128,-1,55
 41 65 41 65 81 67 c 0,56,57
 91 67 91 67 98 70.5 c 128,-1,58
 105 74 105 74 117 80 c 1,59,-1
 118 515 l 1,60,-1
 128 588 l 1,61,-1
 153 657 l 1,62,63
 192 713 192 713 232 728 c 128,-1,64
 272 743 272 743 319 743 c 0,65,66
 398 743 398 743 448 702 c 0,67,68
 506 658 506 658 506 572 c 0,69,70
 506 514 506 514 478 469 c 0,71,72
 453 433 453 433 413 415 c 1,73,74
 458 405 458 405 483 377 c 0,75,76
 494 365 494 365 500 355 c 0,77,78
 519 333 519 333 533 304 c 128,-1,79
 547 275 547 275 551 220 c 1,80,81
 551 126 551 126 520 72 c 0,82,83
 485 4 485 4 403 -14 c 1,84,-1
 391 -14 l 2,85,86
 338 -13 338 -13 323.5 -5 c 128,-1,87
 309 3 309 3 297 11 c 1,88,89
 286 26 286 26 280 37 c 128,-1,90
 274 48 274 48 274 63 c 2,91,-1
 278 95 l 2,0,1
EndSplineSet
EndChar

